<?xml version="1.0" encoding="utf-8"?>
<!-- Generator: Adobe Illustrator 20.0.0, SVG Export Plug-In . SVG Version: 6.00 Build 0)  -->
<svg version="1.1" id="Layer_1" xmlns="http://www.w3.org/2000/svg" xmlns:xlink="http://www.w3.org/1999/xlink" x="0px" y="0px"
	 viewBox="0 0 659.7 320" style="enable-background:new 0 0 659.7 320;" xml:space="preserve">
<style type="text/css">
	.st0{clip-path:url(#SVGID_2_);fill:#08306B;}
	.st1{clip-path:url(#SVGID_4_);fill:#3787C0;}
	.st2{clip-path:url(#SVGID_6_);fill:#ABCFE6;}
	.st3{clip-path:url(#SVGID_8_);fill:#F7FBFF;}
	.st4{font-family:'ArialMT';}
	.st5{font-size:25px;}
</style>
<g>
	<g>
		<defs>
			<path id="SVGID_1_" d="M-157,254h147V20h-147V254 M22.7,254h294V20h-294V254 M349.3,254h294V20h-294V254 M676,254h147V20H676V254
				"/>
		</defs>
		<clipPath id="SVGID_2_">
			<use xlink:href="#SVGID_1_"  style="overflow:visible;"/>
		</clipPath>
		<path id="streamfakeRoottreemap" shape-rendering="geometricPrecision" class="st0" d="M169.7,20H6.3v234h163.3H333v-29.2h163.3
			h163.3V49.2H496.3H333V20H169.7"/>
	</g>
	<g>
		<defs>
			<path id="SVGID_3_" d="M-157,254h130.7V20H-157V254 M39,254h261.3V20H39V254 M365.7,254H627V20H365.7V254 M692.3,254H823V20
				H692.3V254"/>
		</defs>
		<clipPath id="SVGID_4_">
			<use xlink:href="#SVGID_3_"  style="overflow:visible;"/>
		</clipPath>
		<path id="stream4treemap" shape-rendering="geometricPrecision" class="st1" d="M169.7,49.2H6.3v175.5h163.3H333v-29.2h163.3
			h163.3v-117H496.3H333V49.2H169.7"/>
	</g>
	<g>
		<defs>
			<path id="SVGID_5_" d="M-157,254h114.3V20H-157V254 M55.3,254H284V20H55.3V254 M382,254h228.7V20H382V254 M708.7,254H823V20
				H708.7V254"/>
		</defs>
		<clipPath id="SVGID_6_">
			<use xlink:href="#SVGID_5_"  style="overflow:visible;"/>
		</clipPath>
		<path id="stream2treemap" shape-rendering="geometricPrecision" class="st2" d="M169.7,78.5H6.3v117h163.3H333v-29.2h163.3h163.3
			v-58.5H496.3H333V78.5H169.7"/>
	</g>
	<g>
		<defs>
			<path id="SVGID_7_" d="M-157,254h98V20h-98V254 M71.7,254h196V20h-196V254 M398.3,254h98V20h-98V254"/>
		</defs>
		<clipPath id="SVGID_8_">
			<use xlink:href="#SVGID_7_"  style="overflow:visible;"/>
		</clipPath>
		<path id="stream0treemap" shape-rendering="geometricPrecision" class="st3" d="M169.7,107.8H6.3v58.5h163.3H333v-58.5H169.7"/>
	</g>
</g>
<text transform="matrix(1 0 0 1 124.3331 298.0006)" class="st4 st5">January</text>
<text transform="matrix(1 0 0 1 458.3333 298.001)" class="st4 st5">February</text>
</svg>
