<?xml version="1.0" encoding="utf-8"?>
<!-- Generator: Adobe Illustrator 20.0.0, SVG Export Plug-In . SVG Version: 6.00 Build 0)  -->
<svg version="1.1" id="Layer_1" xmlns="http://www.w3.org/2000/svg" xmlns:xlink="http://www.w3.org/1999/xlink" x="0px" y="0px"
	 viewBox="0 0 624 394" style="enable-background:new 0 0 624 394;" xml:space="preserve">
<style type="text/css">
	.st0{clip-path:url(#SVGID_2_);fill:#08306B;}
	.st1{clip-path:url(#SVGID_4_);fill:#6DAED5;}
	.st2{clip-path:url(#SVGID_6_);fill:#6DAED5;}
	.st3{clip-path:url(#SVGID_8_);fill:#F7FBFF;}
	.st4{clip-path:url(#SVGID_10_);fill:#F7FBFF;}
	.st5{font-family:'ArialMT';}
	.st6{font-size:40px;}
</style>
<g>
	<g>
		<defs>
			<path id="SVGID_1_" d="M-126,327H5.4V20H-126V327 M34.6,327h262.8V20H34.6V327 M326.6,327h262.8V20H326.6V327 M618.6,327H750V20
				H618.6V327"/>
		</defs>
		<clipPath id="SVGID_2_">
			<use xlink:href="#SVGID_1_"  style="overflow:visible;"/>
		</clipPath>
		<path id="streamfakeRoottreemap" shape-rendering="geometricPrecision" class="st0" d="M166,20H20v307h146h146h146h146V20H458H312
			H166"/>
	</g>
	<g>
		<defs>
			<path id="SVGID_3_" d="M-126,327H-9.2V20H-126V327 M49.2,327h233.6V20H49.2V327 M341.2,327h233.6V20H341.2V327 M633.2,327H750V20
				H633.2V327"/>
		</defs>
		<clipPath id="SVGID_4_">
			<use xlink:href="#SVGID_3_"  style="overflow:visible;"/>
		</clipPath>
		<path id="stream0treemap" shape-rendering="geometricPrecision" class="st1" d="M166,245.1H20v61.4h146h146h146h146v-61.4H458H312
			H166"/>
	</g>
	<g>
		<defs>
			<path id="SVGID_5_" d="M-126,327H-9.2V20H-126V327 M49.2,327h233.6V20H49.2V327 M341.2,327h233.6V20H341.2V327 M633.2,327H750V20
				H633.2V327"/>
		</defs>
		<clipPath id="SVGID_6_">
			<use xlink:href="#SVGID_5_"  style="overflow:visible;"/>
		</clipPath>
		<path id="stream2treemap" shape-rendering="geometricPrecision" class="st2" d="M166,40.5H20v184.2h146h146h146h146V40.5H458H312
			H166"/>
	</g>
	<g>
		<defs>
			<path id="SVGID_7_" d="M-126,327h102.2V20H-126V327 M63.8,327h204.4V20H63.8V327 M355.8,327h204.4V20H355.8V327 M647.8,327H750
				V20H647.8V327"/>
		</defs>
		<clipPath id="SVGID_8_">
			<use xlink:href="#SVGID_7_"  style="overflow:visible;"/>
		</clipPath>
		<path id="stream4treemap" shape-rendering="geometricPrecision" class="st3" d="M166,142.8H20v61.4h146h146h146h146v-61.4H458H312
			H166"/>
	</g>
	<g>
		<defs>
			<path id="SVGID_9_" d="M-126,327h102.2V20H-126V327 M63.8,327h204.4V20H63.8V327 M355.8,327h204.4V20H355.8V327 M647.8,327H750
				V20H647.8V327"/>
		</defs>
		<clipPath id="SVGID_10_">
			<use xlink:href="#SVGID_9_"  style="overflow:visible;"/>
		</clipPath>
		<path id="stream6treemap" shape-rendering="geometricPrecision" class="st4" d="M166,60.9H20v61.4h146h146h146h146V60.9H458H312
			H166"/>
	</g>
</g>
<text transform="matrix(1 0 0 1 91.52 371.2139)" class="st5 st6">January</text>
<text transform="matrix(1 0 0 1 397.04 371.2139)" class="st5 st6">February</text>
</svg>
