<?xml version="1.0" encoding="utf-8"?>
<!-- Generator: Adobe Illustrator 20.0.0, SVG Export Plug-In . SVG Version: 6.00 Build 0)  -->
<svg version="1.1" id="Layer_1" xmlns="http://www.w3.org/2000/svg" xmlns:xlink="http://www.w3.org/1999/xlink" x="0px" y="0px"
	 viewBox="0 0 624 394" style="enable-background:new 0 0 624 394;" xml:space="preserve">
<style type="text/css">
	.st0{clip-path:url(#SVGID_2_);fill:#08306B;}
	.st1{clip-path:url(#SVGID_4_);fill:#2271B4;}
	.st2{clip-path:url(#SVGID_6_);fill:#6DAED5;}
	.st3{clip-path:url(#SVGID_8_);fill:#C3DBEE;}
	.st4{clip-path:url(#SVGID_10_);fill:#F7FBFF;}
	.st5{font-family:'ArialMT';}
	.st6{font-size:35px;}
</style>
<g>
	<g>
		<defs>
			<path id="SVGID_1_" d="M-77.3,327h87.6V20h-87.6V327 M29.7,327h175.2V20H29.7V327 M224.4,327h175.2V20H224.4V327 M419.1,327
				h175.2V20H419.1V327 M613.7,327h87.6V20h-87.6V327"/>
		</defs>
		<clipPath id="SVGID_2_">
			<use xlink:href="#SVGID_1_"  style="overflow:visible;"/>
		</clipPath>
		<path id="streamfakeRoottreemap" shape-rendering="geometricPrecision" class="st0" d="M117.3,20H20v307h97.3h97.3H312h97.3h97.3
			H604V20h-97.3h-97.3H312h-97.3H117.3"/>
	</g>
	<g>
		<defs>
			<path id="SVGID_3_" d="M-77.3,327H0.5V20h-77.9V327 M39.5,327h155.7V20H39.5V327 M234.1,327h155.7V20H234.1V327 M428.8,327h155.7
				V20H428.8V327 M623.5,327h77.9V20h-77.9V327"/>
		</defs>
		<clipPath id="SVGID_4_">
			<use xlink:href="#SVGID_3_"  style="overflow:visible;"/>
		</clipPath>
		<path id="stream9treemap" shape-rendering="geometricPrecision" class="st1" d="M117.3,50.7H20v245.6h97.3h97.3H312h97.3h97.3H604
			V50.7h-97.3h-97.3H312h-97.3H117.3"/>
	</g>
	<g>
		<defs>
			<path id="SVGID_5_" d="M-77.3,327h68.1V20h-68.1V327 M49.2,327h136.3V20H49.2V327 M243.9,327h136.3V20H243.9V327 M438.5,327
				h136.3V20H438.5V327 M633.2,327h68.1V20h-68.1V327"/>
		</defs>
		<clipPath id="SVGID_6_">
			<use xlink:href="#SVGID_5_"  style="overflow:visible;"/>
		</clipPath>
		<path id="stream0treemap" shape-rendering="geometricPrecision" class="st2" d="M117.3,71.2H20v61.4h97.3h97.3H312h97.3v133h97.3
			H604V81.4h-97.3h-97.3V71.2H312h-97.3H117.3"/>
	</g>
	<g>
		<defs>
			<path id="SVGID_7_" d="M-77.3,327h68.1V20h-68.1V327 M49.2,327h136.3V20H49.2V327 M243.9,327h136.3V20H243.9V327 M448.3,327
				h116.8V20H448.3V327 M642.9,327h58.4V20h-58.4V327"/>
		</defs>
		<clipPath id="SVGID_8_">
			<use xlink:href="#SVGID_7_"  style="overflow:visible;"/>
		</clipPath>
		<path id="stream6treemap" shape-rendering="geometricPrecision" class="st3" d="M117.3,153H20v122.8h97.3h97.3H312h97.3v-40.9
			h97.3H604V112.1h-97.3h-97.3V153H312h-97.3H117.3"/>
	</g>
	<g>
		<defs>
			<path id="SVGID_9_" d="M-77.3,327h58.4V20h-58.4V327 M58.9,327h116.8V20H58.9V327 M253.6,327h116.8V20H253.6V327 M458,327h97.3
				V20H458V327 M652.7,327h48.7V20h-48.7V327"/>
		</defs>
		<clipPath id="SVGID_10_">
			<use xlink:href="#SVGID_9_"  style="overflow:visible;"/>
		</clipPath>
		<path id="stream3treemap" shape-rendering="geometricPrecision" class="st4" d="M117.3,183.7H20v61.4h97.3h97.3H312h97.3v-40.9
			h97.3H604v-61.4h-97.3h-97.3v40.9H312h-97.3H117.3"/>
	</g>
</g>
<text transform="matrix(1 0 0 1 58.9335 371.2139)" class="st5 st6">January</text>
<text transform="matrix(1 0 0 1 243.8669 371.2139)" class="st5 st6">February</text>
<text transform="matrix(1 0 0 1 465.7043 371.2139)" class="st5 st6">March</text>
</svg>
