<?xml version="1.0" encoding="utf-8"?>
<!-- Generator: Adobe Illustrator 20.0.0, SVG Export Plug-In . SVG Version: 6.00 Build 0)  -->
<svg version="1.1" id="Layer_1" xmlns="http://www.w3.org/2000/svg" xmlns:xlink="http://www.w3.org/1999/xlink" x="0px" y="0px"
	 viewBox="0 0 603.6 318.6" style="enable-background:new 0 0 603.6 318.6;" xml:space="preserve">
<style type="text/css">
	.st0{clip-path:url(#SVGID_2_);fill:#08306B;}
	.st1{clip-path:url(#SVGID_4_);fill:#2271B4;}
	.st2{clip-path:url(#SVGID_6_);fill:#2271B4;}
	.st3{clip-path:url(#SVGID_8_);fill:#2271B4;}
	.st4{clip-path:url(#SVGID_10_);fill:#6DAED5;}
	.st5{clip-path:url(#SVGID_12_);fill:#6DAED5;}
	.st6{clip-path:url(#SVGID_14_);fill:#6DAED5;}
	.st7{clip-path:url(#SVGID_16_);fill:#6DAED5;}
	.st8{clip-path:url(#SVGID_18_);fill:#C3DBEE;}
	.st9{clip-path:url(#SVGID_20_);fill:#C3DBEE;}
	.st10{clip-path:url(#SVGID_22_);fill:#C3DBEE;}
	.st11{clip-path:url(#SVGID_24_);fill:#C3DBEE;}
	.st12{clip-path:url(#SVGID_26_);fill:#F7FBFF;}
	.st13{font-family:'ArialMT';}
	.st14{font-size:25px;}
</style>
<g>
	<g>
		<defs>
			<path id="SVGID_1_" d="M-117.9,274H7V0h-124.9V274 M34.8,274h249.8V0H34.8V274 M312.3,274H562V0H312.3V274 M589.8,274h124.9V0
				H589.8V274"/>
		</defs>
		<clipPath id="SVGID_2_">
			<use xlink:href="#SVGID_1_"  style="overflow:visible;"/>
		</clipPath>
		<path id="streamfakeRoottreemap" shape-rendering="geometricPrecision" class="st0" d="M159.6,10.5H20.9v252.9h138.8h138.8V274
			h138.8h138.8V0H437.1H298.4v10.5H159.6"/>
	</g>
	<g>
		<defs>
			<path id="SVGID_3_" d="M-117.9,274h111V0h-111V274 M48.6,274h222V0h-222V274 M326.1,274h222V0h-222V274 M603.6,274h111V0h-111
				V274"/>
		</defs>
		<clipPath id="SVGID_4_">
			<use xlink:href="#SVGID_3_"  style="overflow:visible;"/>
		</clipPath>
		<path id="stream6treemap" shape-rendering="geometricPrecision" class="st1" d="M159.6,68.5H20.9v189.7h138.8h138.8v10.5h138.8
			h138.8V58H437.1H298.4v10.5H159.6"/>
	</g>
	<g>
		<defs>
			<path id="SVGID_5_" d="M-117.9,274h111V0h-111V274 M48.6,274h222V0h-222V274 M326.1,274h222V0h-222V274 M603.6,274h111V0h-111
				V274"/>
		</defs>
		<clipPath id="SVGID_6_">
			<use xlink:href="#SVGID_5_"  style="overflow:visible;"/>
		</clipPath>
		<path id="stream10treemap" shape-rendering="geometricPrecision" class="st2" d="M159.6,42.2H20.9v21.1h138.8h138.8V52.7h138.8
			h138.8V31.6H437.1H298.4v10.5H159.6"/>
	</g>
	<g>
		<defs>
			<path id="SVGID_7_" d="M-117.9,274h111V0h-111V274 M48.6,274h222V0h-222V274 M326.1,274h222V0h-222V274 M603.6,274h111V0h-111
				V274"/>
		</defs>
		<clipPath id="SVGID_8_">
			<use xlink:href="#SVGID_7_"  style="overflow:visible;"/>
		</clipPath>
		<path id="stream16treemap" shape-rendering="geometricPrecision" class="st3" d="M159.6,15.8H20.9v21.1h138.8h138.8V26.3h138.8
			h138.8V5.3H437.1H298.4v10.5H159.6"/>
	</g>
	<g>
		<defs>
			<path id="SVGID_9_" d="M-117.9,274h97.1V0h-97.1V274 M62.5,274h194.2V0H62.5V274 M340,274h194.2V0H340V274 M617.5,274h97.1V0
				h-97.1V274"/>
		</defs>
		<clipPath id="SVGID_10_">
			<use xlink:href="#SVGID_9_"  style="overflow:visible;"/>
		</clipPath>
		<path id="stream20treemap" shape-rendering="geometricPrecision" class="st4" d="M159.6,211.8H20.9V254h138.8h138.8v10.5h138.8
			h138.8v-42.2H437.1H298.4v-10.5H159.6"/>
	</g>
	<g>
		<defs>
			<path id="SVGID_11_" d="M-117.9,274h97.1V0h-97.1V274 M62.5,274h194.2V0H62.5V274 M340,274h194.2V0H340V274 M617.5,274h97.1V0
				h-97.1V274"/>
		</defs>
		<clipPath id="SVGID_12_">
			<use xlink:href="#SVGID_11_"  style="overflow:visible;"/>
		</clipPath>
		<path id="stream12treemap" shape-rendering="geometricPrecision" class="st5" d="M159.6,144.4H20.9v63.2h138.8h138.8v10.5h138.8
			h138.8V176H437.1H298.4v-31.6H159.6"/>
	</g>
	<g>
		<defs>
			<path id="SVGID_13_" d="M-117.9,274h97.1V0h-97.1V274 M62.5,274h194.2V0H62.5V274 M340,274h194.2V0H340V274 M617.5,274h97.1V0
				h-97.1V274"/>
		</defs>
		<clipPath id="SVGID_14_">
			<use xlink:href="#SVGID_13_"  style="overflow:visible;"/>
		</clipPath>
		<path id="stream0treemap" shape-rendering="geometricPrecision" class="st6" d="M159.6,119.1H20.9v21.1h138.8h138.8v31.6h138.8
			h138.8v-21.1H437.1H298.4v-31.6H159.6"/>
	</g>
	<g>
		<defs>
			<path id="SVGID_15_" d="M-117.9,274h97.1V0h-97.1V274 M62.5,274h194.2V0H62.5V274 M340,274h194.2V0H340V274 M617.5,274h97.1V0
				h-97.1V274"/>
		</defs>
		<clipPath id="SVGID_16_">
			<use xlink:href="#SVGID_15_"  style="overflow:visible;"/>
		</clipPath>
		<path id="stream8treemap" shape-rendering="geometricPrecision" class="st7" d="M159.6,72.7H20.9v42.2h138.8h138.8v31.6h138.8
			h138.8V62.2H437.1H298.4v10.5H159.6"/>
	</g>
	<g>
		<defs>
			<path id="SVGID_17_" d="M-117.9,274h83.2V0h-83.2V274 M76.4,274h166.5V0H76.4V274 M353.9,274h166.5V0H353.9V274 M631.4,274h83.3
				V0h-83.3V274"/>
		</defs>
		<clipPath id="SVGID_18_">
			<use xlink:href="#SVGID_17_"  style="overflow:visible;"/>
		</clipPath>
		<path id="stream2treemap" shape-rendering="geometricPrecision" class="st8" d="M159.6,222.4H20.9v21.1h138.8h138.8V254h138.8
			h138.8v-21.1H437.1H298.4v-10.5H159.6"/>
	</g>
	<g>
		<defs>
			<path id="SVGID_19_" d="M-117.9,274h83.2V0h-83.2V274 M76.4,274h166.5V0H76.4V274 M353.9,274h166.5V0H353.9V274 M631.4,274h83.3
				V0h-83.3V274"/>
		</defs>
		<clipPath id="SVGID_20_">
			<use xlink:href="#SVGID_19_"  style="overflow:visible;"/>
		</clipPath>
		<path id="stream4treemap" shape-rendering="geometricPrecision" class="st9" d="M159.6,151.4H20.9v21.1h138.8h138.8v35.1h138.8
			h138.8v-21.1H437.1H298.4v-35.1H159.6"/>
	</g>
	<g>
		<defs>
			<path id="SVGID_21_" d="M-117.9,274h83.2V0h-83.2V274 M76.4,274h166.5V0H76.4V274 M353.9,274h166.5V0H353.9V274 M631.4,274h83.3
				V0h-83.3V274"/>
		</defs>
		<clipPath id="SVGID_22_">
			<use xlink:href="#SVGID_21_"  style="overflow:visible;"/>
		</clipPath>
		<path id="stream14treemap" shape-rendering="geometricPrecision" class="st10" d="M159.6,83.3H20.9v21.1h138.8h138.8v35.1h138.8
			h138.8V97.3H437.1H298.4V83.3H159.6"/>
	</g>
	<g>
		<defs>
			<path id="SVGID_23_" d="M-117.9,274h360.8V0h-360.8V274 M353.9,274h166.5V0H353.9V274 M631.4,274h83.3V0h-83.3V274"/>
		</defs>
		<clipPath id="SVGID_24_">
			<use xlink:href="#SVGID_23_"  style="overflow:visible;"/>
		</clipPath>
		<path id="stream23treemap" shape-rendering="geometricPrecision" class="st11" d="M437.1,69.2H298.4v21.1h138.8h138.8V69.2H437.1"
			/>
	</g>
	<g>
		<defs>
			<path id="SVGID_25_" d="M-117.9,274h83.2V0h-83.2V274 M76.4,274h166.5V0H76.4V274 M367.8,274h138.8V0H367.8V274 M645.3,274h69.4
				V0h-69.4V274"/>
		</defs>
		<clipPath id="SVGID_26_">
			<use xlink:href="#SVGID_25_"  style="overflow:visible;"/>
		</clipPath>
		<path id="stream18treemap" shape-rendering="geometricPrecision" class="st12" d="M159.6,179.5H20.9v21.1h138.8h138.8v-71.7h138.8
			h138.8v-21.1H437.1H298.4v71.7H159.6"/>
	</g>
</g>
<text transform="matrix(1 0 0 1 110.1346 302.4733)" class="st13 st14">January</text>
<text transform="matrix(1 0 0 1 403.4054 302.4732)" class="st13 st14">February</text>
</svg>
