<?xml version="1.0" encoding="utf-8"?>
<!-- Generator: Adobe Illustrator 20.0.0, SVG Export Plug-In . SVG Version: 6.00 Build 0)  -->
<svg version="1.1" id="Layer_1" xmlns="http://www.w3.org/2000/svg" xmlns:xlink="http://www.w3.org/1999/xlink" x="0px" y="0px"
	 viewBox="0 0 555.1 352.6" style="enable-background:new 0 0 555.1 352.6;" xml:space="preserve">
<style type="text/css">
	.st0{clip-path:url(#SVGID_2_);fill:#08306B;}
	.st1{clip-path:url(#SVGID_4_);fill:#1864AA;}
	.st2{clip-path:url(#SVGID_6_);fill:#4B97C9;}
	.st3{clip-path:url(#SVGID_8_);fill:#4B97C9;}
	.st4{clip-path:url(#SVGID_10_);fill:#93C3DF;}
	.st5{clip-path:url(#SVGID_12_);fill:#93C3DF;}
	.st6{clip-path:url(#SVGID_14_);fill:#CFE1F2;}
	.st7{clip-path:url(#SVGID_16_);fill:#CFE1F2;}
	.st8{clip-path:url(#SVGID_18_);fill:#F7FBFF;}
	.st9{font-family:'ArialMT';}
	.st10{font-size:25px;}
</style>
<g>
	<g>
		<defs>
			<path id="SVGID_1_" d="M-138.8,310h124.9V20h-124.9V310 M13.9,310h249.8V20H13.9V310 M291.4,310h249.8V20H291.4V310 M568.9,310
				h124.9V20H568.9V310"/>
		</defs>
		<clipPath id="SVGID_2_">
			<use xlink:href="#SVGID_1_"  style="overflow:visible;"/>
		</clipPath>
		<path id="streamfakeRoottreemap" shape-rendering="geometricPrecision" class="st0" d="M138.8,20H0v290h138.8h138.8h138.8h138.8
			V20H416.3H277.5H138.8"/>
	</g>
	<g>
		<defs>
			<path id="SVGID_3_" d="M-138.8,310h111V20h-111V310 M27.8,310h222V20h-222V310 M305.3,310h222V20h-222V310 M582.8,310h111V20
				h-111V310"/>
		</defs>
		<clipPath id="SVGID_4_">
			<use xlink:href="#SVGID_3_"  style="overflow:visible;"/>
		</clipPath>
		<path id="stream0treemap" shape-rendering="geometricPrecision" class="st1" d="M138.8,36.1H0v257.8h138.8h138.8h138.8h138.8V36.1
			H416.3H277.5H138.8"/>
	</g>
	<g>
		<defs>
			<path id="SVGID_5_" d="M-138.8,310h97.1V20h-97.1V310 M41.6,310h194.3V20H41.6V310 M319.2,310h194.3V20H319.2V310 M596.7,310
				h97.1V20h-97.1V310"/>
		</defs>
		<clipPath id="SVGID_6_">
			<use xlink:href="#SVGID_5_"  style="overflow:visible;"/>
		</clipPath>
		<path id="stream6treemap" shape-rendering="geometricPrecision" class="st2" d="M138.8,89.8H0v193.3h138.8h138.8h138.8h138.8V89.8
			H416.3H277.5H138.8"/>
	</g>
	<g>
		<defs>
			<path id="SVGID_7_" d="M-138.8,310h97.1V20h-97.1V310 M41.6,310h194.3V20H41.6V310 M319.2,310h194.3V20H319.2V310 M596.7,310
				h97.1V20h-97.1V310"/>
		</defs>
		<clipPath id="SVGID_8_">
			<use xlink:href="#SVGID_7_"  style="overflow:visible;"/>
		</clipPath>
		<path id="stream2treemap" shape-rendering="geometricPrecision" class="st3" d="M138.8,46.9H0v32.2h138.8h138.8h138.8h138.8V46.9
			H416.3H277.5H138.8"/>
	</g>
	<g>
		<defs>
			<path id="SVGID_9_" d="M-138.8,310h83.3V20h-83.3V310 M55.5,310H222V20H55.5V310 M333,310h166.5V20H333V310 M610.6,310h83.3V20
				h-83.3V310"/>
		</defs>
		<clipPath id="SVGID_10_">
			<use xlink:href="#SVGID_9_"  style="overflow:visible;"/>
		</clipPath>
		<path id="stream8treemap" shape-rendering="geometricPrecision" class="st4" d="M138.8,143.5H0v128.9h138.8h138.8h138.8h138.8
			V143.5H416.3H277.5H138.8"/>
	</g>
	<g>
		<defs>
			<path id="SVGID_11_" d="M-138.8,310h83.3V20h-83.3V310 M55.5,310H222V20H55.5V310 M333,310h166.5V20H333V310 M610.6,310h83.3V20
				h-83.3V310"/>
		</defs>
		<clipPath id="SVGID_12_">
			<use xlink:href="#SVGID_11_"  style="overflow:visible;"/>
		</clipPath>
		<path id="stream12treemap" shape-rendering="geometricPrecision" class="st5" d="M138.8,100.6H0v32.2h138.8h138.8h138.8h138.8
			v-32.2H416.3H277.5H138.8"/>
	</g>
	<g>
		<defs>
			<path id="SVGID_13_" d="M-138.8,310h69.4V20h-69.4V310 M69.4,310h138.8V20H69.4V310 M346.9,310h138.8V20H346.9V310 M624.5,310
				h69.4V20h-69.4V310"/>
		</defs>
		<clipPath id="SVGID_14_">
			<use xlink:href="#SVGID_13_"  style="overflow:visible;"/>
		</clipPath>
		<path id="stream14treemap" shape-rendering="geometricPrecision" class="st6" d="M138.8,197.2H0v64.4h138.8h138.8h138.8h138.8
			v-64.4H416.3H277.5H138.8"/>
	</g>
	<g>
		<defs>
			<path id="SVGID_15_" d="M-138.8,310h69.4V20h-69.4V310 M69.4,310h138.8V20H69.4V310 M346.9,310h138.8V20H346.9V310 M624.5,310
				h69.4V20h-69.4V310"/>
		</defs>
		<clipPath id="SVGID_16_">
			<use xlink:href="#SVGID_15_"  style="overflow:visible;"/>
		</clipPath>
		<path id="stream10treemap" shape-rendering="geometricPrecision" class="st7" d="M138.8,154.3H0v32.2h138.8h138.8h138.8h138.8
			v-32.2H416.3H277.5H138.8"/>
	</g>
	<g>
		<defs>
			<path id="SVGID_17_" d="M-138.8,310h55.5V20h-55.5V310 M83.3,310h111V20h-111V310 M360.8,310h111V20h-111V310 M638.3,310h55.5V20
				h-55.5V310"/>
		</defs>
		<clipPath id="SVGID_18_">
			<use xlink:href="#SVGID_17_"  style="overflow:visible;"/>
		</clipPath>
		<path id="stream4treemap" shape-rendering="geometricPrecision" class="st8" d="M138.8,213.3H0v32.2h138.8h138.8h138.8h138.8
			v-32.2H416.3H277.5H138.8"/>
	</g>
</g>
<text transform="matrix(1 0 0 1 89.268 336.465)" class="st9 st10">January</text>
<text transform="matrix(1 0 0 1 379.5385 336.465)" class="st9 st10">February</text>
</svg>
