<?xml version="1.0" encoding="utf-8"?>
<!-- Generator: Adobe Illustrator 20.0.0, SVG Export Plug-In . SVG Version: 6.00 Build 0)  -->
<svg version="1.1" id="Layer_1" xmlns="http://www.w3.org/2000/svg" xmlns:xlink="http://www.w3.org/1999/xlink" x="0px" y="0px"
	 viewBox="0 0 764.7 345" style="enable-background:new 0 0 764.7 345;" xml:space="preserve">
<style type="text/css">
	.st0{clip-path:url(#SVGID_2_);fill:#08306B;}
	.st1{clip-path:url(#SVGID_4_);fill:#1864AA;}
	.st2{clip-path:url(#SVGID_6_);fill:#1864AA;}
	.st3{clip-path:url(#SVGID_8_);fill:#1864AA;}
	.st4{clip-path:url(#SVGID_10_);fill:#4B97C9;}
	.st5{clip-path:url(#SVGID_12_);fill:#4B97C9;}
	.st6{clip-path:url(#SVGID_14_);fill:#4B97C9;}
	.st7{clip-path:url(#SVGID_16_);fill:#93C3DF;}
	.st8{clip-path:url(#SVGID_18_);fill:#93C3DF;}
	.st9{clip-path:url(#SVGID_20_);fill:#CFE1F2;}
	.st10{clip-path:url(#SVGID_22_);fill:#F41111;}
	.st11{font-family:'ArialMT';}
	.st12{font-size:25px;}
</style>
<g>
	<g>
		<g>
			<defs>
				<path id="SVGID_1_" d="M-111,294H0V20h-111V294 M24.7,294h222V20h-222L24.7,294 M271.3,294h222V20h-222V294 M518,294h222V20H518
					V294 M764.7,294h111V20h-111V294"/>
			</defs>
			<clipPath id="SVGID_2_">
				<use xlink:href="#SVGID_1_"  style="overflow:visible;"/>
			</clipPath>
			<path id="streamfakeRoottreemap" shape-rendering="geometricPrecision" class="st0" d="M135.7,20H12.3v274h123.3H259h123.3h123.3
				H629h123.3V20H629H505.7H382.3H259H135.7"/>
		</g>
	</g>
	<g>
		<g>
			<defs>
				<path id="SVGID_3_" d="M-111,294h98.7V20H-111V294 M37,294h197.3V20H37V294 M283.7,294H481V20H283.7V294 M530.4,294h197.3V20
					H530.4V294 M777,294h98.7V20H777V294"/>
			</defs>
			<clipPath id="SVGID_4_">
				<use xlink:href="#SVGID_3_"  style="overflow:visible;"/>
			</clipPath>
			<path id="stream6treemap" shape-rendering="geometricPrecision" class="st1" d="M135.7,262.9H12.3v24.9h123.3H259h123.3h123.3
				H629h123.3v-24.9H629H505.7H382.3H259H135.7"/>
		</g>
	</g>
	<g>
		<g>
			<defs>
				<path id="SVGID_5_" d="M-111,294h98.7V20H-111V294 M37,294h197.3V20H37V294 M283.7,294H481V20H283.7V294 M530.4,294h197.3V20
					H530.4V294 M777,294h98.7V20H777V294"/>
			</defs>
			<clipPath id="SVGID_6_">
				<use xlink:href="#SVGID_5_"  style="overflow:visible;"/>
			</clipPath>
			<path id="stream15treemap" shape-rendering="geometricPrecision" class="st2" d="M135.7,82.3H12.3v174.4h123.3H259h123.3h123.3
				H629h123.3V82.3H629H505.7H382.3H259H135.7"/>
		</g>
	</g>
	<g>
		<g>
			<defs>
				<path id="SVGID_7_" d="M-111,294h98.7V20H-111V294 M37,294h197.3V20H37V294 M283.7,294H481V20H283.7V294 M530.4,294h197.3V20
					H530.4V294 M777,294h98.7V20H777V294"/>
			</defs>
			<clipPath id="SVGID_8_">
				<use xlink:href="#SVGID_7_"  style="overflow:visible;"/>
			</clipPath>
			<path id="stream24treemap" shape-rendering="geometricPrecision" class="st3" d="M135.7,26.2H12.3V76h123.3H259h123.3h123.3H629
				h123.3V26.2H629H505.7H382.3H259H135.7"/>
		</g>
	</g>
	<g>
		<g>
			<defs>
				<path id="SVGID_9_" d="M-111,294h86.3V20H-111V294 M49.3,294H222V20H49.3V294 M296,294h172.7V20H296V294 M542.7,294h172.7V20
					H542.7V294 M789.4,294h86.3V20h-86.3V294"/>
			</defs>
			<clipPath id="SVGID_10_">
				<use xlink:href="#SVGID_9_"  style="overflow:visible;"/>
			</clipPath>
			<path id="stream9treemap" shape-rendering="geometricPrecision" class="st4" d="M135.7,175.7H12.3v74.7h123.3H259v-2.1h123.3
				h123.3H629h123.3V123.8H629H505.7H382.3H259v51.9L135.7,175.7"/>
		</g>
	</g>
	<g>
		<g>
			<defs>
				<path id="SVGID_11_" d="M-111,294h86.3V20H-111V294 M49.3,294H222V20H49.3V294 M296,294h172.7V20H296V294 M542.7,294h172.7V20
					H542.7V294 M789.4,294h86.3V20h-86.3V294"/>
			</defs>
			<clipPath id="SVGID_12_">
				<use xlink:href="#SVGID_11_"  style="overflow:visible;"/>
			</clipPath>
			<path id="stream3treemap" shape-rendering="geometricPrecision" class="st5" d="M135.7,88.5H12.3v24.9h123.3H259v2.1h123.3h123.3
				H629h123.3V90.6H629H505.7H382.3H259v-2.1H135.7"/>
		</g>
	</g>
	<g>
		<g>
			<defs>
				<path id="SVGID_13_" d="M-111,294h86.3V20H-111V294 M49.3,294H222V20H49.3V294 M296,294h172.7V20H296V294 M542.7,294h172.7V20
					H542.7V294 M789.4,294h86.3V20h-86.3V294"/>
			</defs>
			<clipPath id="SVGID_14_">
				<use xlink:href="#SVGID_13_"  style="overflow:visible;"/>
			</clipPath>
			<path id="stream21treemap" shape-rendering="geometricPrecision" class="st6" d="M135.7,38.7H12.3v24.9h123.3H259h123.3h123.3
				H629h123.3V38.7H629H505.7H382.3H259H135.7"/>
		</g>
	</g>
	<g>
		<g>
			<defs>
				<path id="SVGID_15_" d="M-111,294h74V20h-74V294 M61.7,294h148V20h-148L61.7,294 M308.3,294h148V20h-148V294 M555,294h148V20
					H555V294 M801.7,294h74V20h-74V294"/>
			</defs>
			<clipPath id="SVGID_16_">
				<use xlink:href="#SVGID_15_"  style="overflow:visible;"/>
			</clipPath>
			<path id="stream27treemap" shape-rendering="geometricPrecision" class="st7" d="M135.7,217.2H12.3v24.9h123.3H259V240h123.3
				h123.3H629h123.3v-24.9H629H505.7H382.3H259v2.1L135.7,217.2"/>
		</g>
	</g>
	<g>
		<g>
			<defs>
				<path id="SVGID_17_" d="M-111,294h74V20h-74V294 M61.7,294h148V20h-148L61.7,294 M308.3,294h148V20h-148V294 M555,294h148V20
					H555V294 M801.7,294h74V20h-74V294"/>
			</defs>
			<clipPath id="SVGID_18_">
				<use xlink:href="#SVGID_17_"  style="overflow:visible;"/>
			</clipPath>
			<path id="stream18treemap" shape-rendering="geometricPrecision" class="st8" d="M135.7,184H12.3v24.9h123.3H259v-2.1h123.3
				h123.3H629h123.3v-74.7H629H505.7H382.3H259V184H135.7"/>
		</g>
	</g>
	<g>
		<g>
			<defs>
				<path id="SVGID_19_" d="M-111,294h86.3V20H-111V294 M49.3,294H222V20H49.3V294 M320.7,294H444V20H320.7V294 M567.4,294h123.3V20
					H567.4V294 M814,294h61.7V20H814V294"/>
			</defs>
			<clipPath id="SVGID_20_">
				<use xlink:href="#SVGID_19_"  style="overflow:visible;"/>
			</clipPath>
			<path id="stream12treemap" shape-rendering="geometricPrecision" class="st9" d="M135.7,119.6H12.3v49.8h123.3H259v24.9h123.3
				h123.3H629h123.3v-49.8H629H505.7H382.3H259v-24.9L135.7,119.6"/>
		</g>
	</g>
	<g>
		<g>
			<defs>
				<path id="SVGID_21_" d="M-111,294h74V20h-74V294 M61.7,294h148V20h-148L61.7,294 M333,294h98.7V20H333V294 M579.7,294h98.7V20
					h-98.7V294 M826.4,294h49.3V20h-49.3V294"/>
			</defs>
			<clipPath id="SVGID_22_">
				<use xlink:href="#SVGID_21_"  style="overflow:visible;"/>
			</clipPath>
			<path id="stream0treemap" shape-rendering="geometricPrecision" class="st10" d="M135.7,132.1H12.3V157h123.3H259v24.9h123.3
				h123.3H629h123.3V157H629H505.7H382.3H259v-24.9H135.7"/>
		</g>
	</g>
</g>
<text transform="matrix(1 0 0 1 91.6498 327.0001)" class="st11 st12">January</text>
<text transform="matrix(1 0 0 1 332.65 327.0002)" class="st11 st12">February</text>
<text transform="matrix(1 0 0 1 611.2195 327.001)" class="st11 st12">March</text>
</svg>
