<?xml version="1.0" encoding="utf-8"?>
<!-- Generator: Adobe Illustrator 20.0.0, SVG Export Plug-In . SVG Version: 6.00 Build 0)  -->
<svg version="1.1" id="Layer_1" xmlns="http://www.w3.org/2000/svg" xmlns:xlink="http://www.w3.org/1999/xlink" x="0px" y="0px"
	 viewBox="0 0 744 358.4" style="enable-background:new 0 0 744 358.4;" xml:space="preserve">
<style type="text/css">
	.st0{clip-path:url(#SVGID_2_);fill:#08306B;}
	.st1{clip-path:url(#SVGID_4_);fill:#2271B4;}
	.st2{clip-path:url(#SVGID_6_);fill:#6DAED5;}
	.st3{clip-path:url(#SVGID_8_);fill:#6DAED5;}
	.st4{clip-path:url(#SVGID_10_);fill:#6DAED5;}
	.st5{clip-path:url(#SVGID_12_);fill:#6DAED5;}
	.st6{clip-path:url(#SVGID_14_);fill:#C3DBEE;}
	.st7{clip-path:url(#SVGID_16_);fill:#F7FBFF;}
	.st8{fill:#F41111;}
	.st9{font-family:'ArialMT';}
	.st10{font-size:25px;}
</style>
<g>
	<g>
		<g>
			<defs>
				<path id="SVGID_1_" d="M-123.3,310h111V20h-111V310 M12.3,310h222V20h-222V310 M259,310h222V20H259V310 M505.6,310h222V20h-222
					V310 M752.3,310h111V20h-111V310"/>
			</defs>
			<clipPath id="SVGID_2_">
				<use xlink:href="#SVGID_1_"  style="overflow:visible;"/>
			</clipPath>
			<path id="streamfakeRoottreemap" shape-rendering="geometricPrecision" class="st0" d="M123.3,38.1H0v253.8h123.3h123.3V310H370
				h123.3h123.3H740V20H616.6H493.3H370H246.6v18.1H123.3"/>
		</g>
	</g>
	<g>
		<g>
			<defs>
				<path id="SVGID_3_" d="M-123.3,310h98.6V20h-98.6V310 M24.7,310H222V20H24.7V310 M271.3,310h197.3V20H271.3V310 M518,310h197.3
					V20H518V310 M764.6,310h98.6V20h-98.6V310"/>
			</defs>
			<clipPath id="SVGID_4_">
				<use xlink:href="#SVGID_3_"  style="overflow:visible;"/>
			</clipPath>
			<path id="stream6treemap" shape-rendering="geometricPrecision" class="st1" d="M123.3,56.2H0v217.5h123.3h123.3v18.1H370h123.3
				h123.3H740V38.1H616.6H493.3H370H246.6v18.1L123.3,56.2"/>
		</g>
	</g>
	<g>
		<g>
			<defs>
				<path id="SVGID_5_" d="M-123.3,310H-37V20h-86.3V310 M37,310h172.6V20H37V310 M283.6,310h172.6V20H283.6V310 M530.3,310H703V20
					H530.3V310 M777,310h86.3V20H777V310"/>
			</defs>
			<clipPath id="SVGID_6_">
				<use xlink:href="#SVGID_5_"  style="overflow:visible;"/>
			</clipPath>
			<path id="stream9treemap" shape-rendering="geometricPrecision" class="st2" d="M123.3,230.2H0v36.2h123.3h123.3v18.1H370h123.3
				h123.3H740v-36.2H616.6H493.3H370H246.6v-18.1H123.3"/>
		</g>
	</g>
	<g>
		<g>
			<defs>
				<path id="SVGID_7_" d="M-123.3,310H-37V20h-86.3V310 M37,310h172.6V20H37V310 M283.6,310h172.6V20H283.6V310 M530.3,310H703V20
					H530.3V310 M777,310h86.3V20H777V310"/>
			</defs>
			<clipPath id="SVGID_8_">
				<use xlink:href="#SVGID_7_"  style="overflow:visible;"/>
			</clipPath>
			<path id="stream18treemap" shape-rendering="geometricPrecision" class="st3" d="M123.3,150.5H0V223h123.3h123.3v-25.4H370h123.3
				h123.3H740V88.9H616.6H493.3H370H246.6v61.6H123.3"/>
		</g>
	</g>
	<g>
		<g>
			<defs>
				<path id="SVGID_9_" d="M-123.3,310H-37V20h-86.3V310 M37,310h172.6V20H37V310 M283.6,310h172.6V20H283.6V310 M530.3,310H703V20
					H530.3V310 M777,310h86.3V20H777V310"/>
			</defs>
			<clipPath id="SVGID_10_">
				<use xlink:href="#SVGID_9_"  style="overflow:visible;"/>
			</clipPath>
			<path id="stream3treemap" shape-rendering="geometricPrecision" class="st4" d="M123.3,107H0v36.2h123.3h123.3V81.6H370h123.3
				h123.3H740V45.4H616.6H493.3H370H246.6V107H123.3"/>
		</g>
	</g>
	<g>
		<g>
			<defs>
				<path id="SVGID_11_" d="M-123.3,310h333V20h-333V310 M283.6,310h172.6V20H283.6V310 M530.3,310H703V20H530.3V310 M777,310h86.3
					V20H777V310"/>
			</defs>
			<clipPath id="SVGID_12_">
				<use xlink:href="#SVGID_11_"  style="overflow:visible;"/>
			</clipPath>
			<path id="stream13treemap" shape-rendering="geometricPrecision" class="st5" d="M370,204.9H246.6v36.2H370h123.3h123.3H740
				v-36.2H616.6H493.3H370"/>
		</g>
	</g>
	<g>
		<g>
			<defs>
				<path id="SVGID_13_" d="M-123.3,310h74V20h-74V310 M49.3,310h148V20h-148V310 M296,310h148V20H296V310 M542.6,310h148V20h-148
					V310 M789.3,310h74V20h-74V310"/>
			</defs>
			<clipPath id="SVGID_14_">
				<use xlink:href="#SVGID_13_"  style="overflow:visible;"/>
			</clipPath>
			<path id="stream15treemap" shape-rendering="geometricPrecision" class="st6" d="M123.3,168.6H0v36.2h123.3h123.3v-25.4H370
				h123.3h123.3H740V107H616.6H493.3H370H246.6v61.6H123.3"/>
		</g>
	</g>
	<g>
		<g>
			<defs>
				<path id="SVGID_15_" d="M-123.3,310H-37V20h-86.3V310 M37,310h172.6V20H37V310 M308.3,310h123.3V20H308.3V310 M555,310h123.3V20
					H555V310 M801.6,310h61.7V20h-61.7V310"/>
			</defs>
			<clipPath id="SVGID_16_">
				<use xlink:href="#SVGID_15_"  style="overflow:visible;"/>
			</clipPath>
			<path id="stream0treemap" shape-rendering="geometricPrecision" class="st7" d="M123.3,63.5H0v36.2h123.3h123.3v61.6H370h123.3
				h123.3H740v-36.2H616.6H493.3H370H246.6V63.5H123.3"/>
		</g>
	</g>
</g>
<rect y="55.9" class="st8" width="24.7" height="218.1"/>
<text transform="matrix(1 0 0 1 81.9988 336.4735)" class="st9 st10">January</text>
<text transform="matrix(1 0 0 1 330.2696 336.4731)" class="st9 st10">February</text>
<text transform="matrix(1 0 0 1 587.2695 336.4739)" class="st9 st10">March</text>
</svg>
