<?xml version="1.0" encoding="utf-8"?>
<!-- Generator: Adobe Illustrator 20.0.0, SVG Export Plug-In . SVG Version: 6.00 Build 0)  -->
<svg version="1.1" id="Layer_1" xmlns="http://www.w3.org/2000/svg" xmlns:xlink="http://www.w3.org/1999/xlink" x="0px" y="0px"
	 viewBox="0 0 780 382" style="enable-background:new 0 0 780 382;" xml:space="preserve">
<style type="text/css">
	.st0{clip-path:url(#SVGID_2_);fill:#08306B;}
	.st1{clip-path:url(#SVGID_4_);fill:#2271B4;}
	.st2{clip-path:url(#SVGID_6_);fill:#2271B4;}
	.st3{clip-path:url(#SVGID_8_);fill:#6DAED5;}
	.st4{clip-path:url(#SVGID_10_);fill:#6DAED5;}
	.st5{clip-path:url(#SVGID_12_);fill:#C3DBEE;}
	.st6{clip-path:url(#SVGID_14_);fill:#C3DBEE;}
	.st7{clip-path:url(#SVGID_16_);fill:#C3DBEE;}
	.st8{clip-path:url(#SVGID_18_);fill:#F7FBFF;}
	.st9{font-family:'ArialMT';}
	.st10{font-size:25px;}
</style>
<g>
	<g>
		<defs>
			<path id="SVGID_1_" d="M-103.3,327h111V20h-111V327 M32.3,327h222V20h-222V327 M279,327h222V20H279V327 M525.7,327h222V20h-222
				V327 M772.3,327h111V20h-111V327"/>
		</defs>
		<clipPath id="SVGID_2_">
			<use xlink:href="#SVGID_1_"  style="overflow:visible;"/>
		</clipPath>
		<path id="streamfakeRoottreemap" shape-rendering="geometricPrecision" class="st0" d="M143.3,46.1H20v254.7h123.3h123.3V327H390
			h123.3v-17.4h123.3H760V37.4H636.7H513.3V20H390H266.7v26.1H143.3"/>
	</g>
	<g>
		<defs>
			<path id="SVGID_3_" d="M-103.3,327h98.7V20h-98.7V327 M44.7,327H242V20H44.7V327 M291.3,327h197.3V20H291.3V327 M538,327h197.3
				V20H538V327 M784.7,327h98.7V20h-98.7V327"/>
		</defs>
		<clipPath id="SVGID_4_">
			<use xlink:href="#SVGID_3_"  style="overflow:visible;"/>
		</clipPath>
		<path id="stream3treemap" shape-rendering="geometricPrecision" class="st1" d="M143.3,276.8H20v5.8h123.3h123.3v26.1H390h123.3
			v-17.4h123.3H760v-10.9H636.7H513.3v-19H390H266.7v15.3H143.3"/>
	</g>
	<g>
		<defs>
			<path id="SVGID_5_" d="M-103.3,327h98.7V20h-98.7V327 M44.7,327H242V20H44.7V327 M291.3,327h197.3V20H291.3V327 M538,327h197.3
				V20H538V327 M784.7,327h98.7V20h-98.7V327"/>
		</defs>
		<clipPath id="SVGID_6_">
			<use xlink:href="#SVGID_5_"  style="overflow:visible;"/>
		</clipPath>
		<path id="stream21treemap" shape-rendering="geometricPrecision" class="st2" d="M143.3,64.4H20v194.1h123.3h123.3v-15.3H390
			h123.3v19h123.3H760V55.7H636.7H513.3V38.3H390H266.7v26.1H143.3"/>
	</g>
	<g>
		<defs>
			<path id="SVGID_7_" d="M-103.3,327H-17V20h-86.3V327 M57,327h172.7V20H57V327 M303.7,327h172.7V20H303.7V327 M550.3,327H723V20
				H550.3V327 M797,327h86.3V20H797V327"/>
		</defs>
		<clipPath id="SVGID_8_">
			<use xlink:href="#SVGID_7_"  style="overflow:visible;"/>
		</clipPath>
		<path id="stream9treemap" shape-rendering="geometricPrecision" class="st3" d="M143.3,174.7H20v66.6h123.3h123.3V225H390h123.3
			v29.8h123.3H760v-87.2H636.7H513.3v-46.8H390H266.7v53.9H143.3"/>
	</g>
	<g>
		<defs>
			<path id="SVGID_9_" d="M-103.3,327H-17V20h-86.3V327 M57,327h172.7V20H57V327 M303.7,327h172.7V20H303.7V327 M550.3,327H723V20
				H550.3V327 M797,327h86.3V20H797V327"/>
		</defs>
		<clipPath id="SVGID_10_">
			<use xlink:href="#SVGID_9_"  style="overflow:visible;"/>
		</clipPath>
		<path id="stream24treemap" shape-rendering="geometricPrecision" class="st4" d="M143.3,81.7H20v75.7h123.3h123.3v-54.9H390h123.3
			v57.6h123.3H760v-97H636.7H513.3v-6.6H390H266.7v25.2H143.3"/>
	</g>
	<g>
		<defs>
			<path id="SVGID_11_" d="M-103.3,327h74V20h-74V327 M69.3,327h148V20h-148V327 M316,327h148V20H316V327 M562.7,327h148V20h-148
				V327 M809.3,327h74V20h-74V327"/>
		</defs>
		<clipPath id="SVGID_12_">
			<use xlink:href="#SVGID_11_"  style="overflow:visible;"/>
		</clipPath>
		<path id="stream15treemap" shape-rendering="geometricPrecision" class="st5" d="M143.3,195.3H20v25.3h123.3h123.3v-9.2H390h123.3
			v40.5h123.3H760v-25.5H636.7H513.3v-92.1H390H266.7v61H143.3"/>
	</g>
	<g>
		<defs>
			<path id="SVGID_13_" d="M-103.3,327h74V20h-74V327 M69.3,327h148V20h-148V327 M316,327h148V20H316V327 M562.7,327h148V20h-148
				V327 M809.3,327h74V20h-74V327"/>
		</defs>
		<clipPath id="SVGID_14_">
			<use xlink:href="#SVGID_13_"  style="overflow:visible;"/>
		</clipPath>
		<path id="stream6treemap" shape-rendering="geometricPrecision" class="st6" d="M143.3,95.8H20v47.4h123.3h123.3v-59H390h123.3v50
			h123.3H760V88.9H636.7H513.3V74.8H390H266.7v21.1H143.3"/>
	</g>
	<g>
		<defs>
			<path id="SVGID_15_" d="M-103.3,327H464V20h-567.3V327 M562.7,327h148V20h-148V327 M809.3,327h74V20h-74V327"/>
		</defs>
		<clipPath id="SVGID_16_">
			<use xlink:href="#SVGID_15_"  style="overflow:visible;"/>
		</clipPath>
		<path id="stream20treemap" shape-rendering="geometricPrecision" class="st7" d="M636.7,170.4H513.3v53.2h123.3H760v-53.2H636.7"
			/>
	</g>
	<g>
		<defs>
			<path id="SVGID_17_" d="M-103.3,327h61.7V20h-61.7V327 M81.7,327H205V20H81.7V327 M328.3,327h123.3V20H328.3V327 M575,327h61.7
				V20H575V327"/>
		</defs>
		<clipPath id="SVGID_18_">
			<use xlink:href="#SVGID_17_"  style="overflow:visible;"/>
		</clipPath>
		<path id="stream0treemap" shape-rendering="geometricPrecision" class="st8" d="M143.3,196.7H20v22.5h123.3h123.3v-28.7H390h123.3
			v-35.4H390H266.7v41.5H143.3"/>
	</g>
</g>
<text transform="matrix(1 0 0 1 97.6341 362.4735)" class="st9 st10">January</text>
<text transform="matrix(1 0 0 1 350.9049 362.4736)" class="st9 st10">February</text>
<text transform="matrix(1 0 0 1 611.9048 362.4734)" class="st9 st10">March</text>
</svg>
