<?xml version="1.0" encoding="utf-8"?>
<!-- Generator: Adobe Illustrator 20.0.0, SVG Export Plug-In . SVG Version: 6.00 Build 0)  -->
<svg version="1.1" id="Layer_1" xmlns="http://www.w3.org/2000/svg" xmlns:xlink="http://www.w3.org/1999/xlink" x="0px" y="0px"
	 viewBox="0 0 780 362" style="enable-background:new 0 0 780 362;" xml:space="preserve">
<style type="text/css">
	.st0{clip-path:url(#SVGID_2_);fill:#08306B;}
	.st1{clip-path:url(#SVGID_4_);fill:#1864AA;}
	.st2{clip-path:url(#SVGID_6_);fill:#1864AA;}
	.st3{clip-path:url(#SVGID_8_);fill:#4B97C9;}
	.st4{clip-path:url(#SVGID_10_);fill:#93C3DF;}
	.st5{clip-path:url(#SVGID_12_);fill:#CFE1F2;}
	.st6{clip-path:url(#SVGID_14_);fill:#F7FBFF;}
	.st7{font-family:'ArialMT';}
	.st8{font-size:25px;}
</style>
<g>
	<g>
		<defs>
			<path id="SVGID_1_" d="M-72.5,311h83.2V20h-83.2V311 M29.2,311h166.5V20H29.2V311 M214.2,311h166.5V20H214.2V311 M399.2,311
				h166.5V20H399.2V311 M584.2,311h166.5V20H584.2V311 M769.2,311h83.2V20h-83.2V311"/>
		</defs>
		<clipPath id="SVGID_2_">
			<use xlink:href="#SVGID_1_"  style="overflow:visible;"/>
		</clipPath>
		<path id="streamfakeRoottreemap" shape-rendering="geometricPrecision" class="st0" d="M112.5,20H20v291h92.5H205h92.5H390h92.5
			H575h92.5H760V20h-92.5H575h-92.5H390h-92.5H205H112.5"/>
	</g>
	<g>
		<defs>
			<path id="SVGID_3_" d="M-72.5,311h74V20h-74V311 M38.5,311h148V20h-148V311 M223.5,311h148V20h-148V311 M408.5,311h148V20h-148
				V311 M593.5,311h148V20h-148V311 M778.5,311h74V20h-74V311"/>
		</defs>
		<clipPath id="SVGID_4_">
			<use xlink:href="#SVGID_3_"  style="overflow:visible;"/>
		</clipPath>
		<path id="stream12treemap" shape-rendering="geometricPrecision" class="st1" d="M112.5,255.6H20v41.6h92.5H205h92.5H390h92.5H575
			h92.5H760v-41.6h-92.5H575h-92.5H390h-92.5H205H112.5"/>
	</g>
	<g>
		<defs>
			<path id="SVGID_5_" d="M-72.5,311h74V20h-74V311 M38.5,311h148V20h-148V311 M223.5,311h148V20h-148V311 M408.5,311h148V20h-148
				V311 M593.5,311h148V20h-148V311 M778.5,311h74V20h-74V311"/>
		</defs>
		<clipPath id="SVGID_6_">
			<use xlink:href="#SVGID_5_"  style="overflow:visible;"/>
		</clipPath>
		<path id="stream16treemap" shape-rendering="geometricPrecision" class="st2" d="M112.5,33.9H20v207.9h92.5H205h92.5H390h92.5H575
			h92.5H760V33.9h-92.5H575h-92.5H390h-92.5H205H112.5"/>
	</g>
	<g>
		<defs>
			<path id="SVGID_7_" d="M-72.5,311h64.8V20h-64.8V311 M47.8,311h129.5V20H47.8V311 M232.8,311h129.5V20H232.8V311 M417.8,311
				h129.5V20H417.8V311 M602.8,311h129.5V20H602.8V311 M787.8,311h64.8V20h-64.8V311"/>
		</defs>
		<clipPath id="SVGID_8_">
			<use xlink:href="#SVGID_7_"  style="overflow:visible;"/>
		</clipPath>
		<path id="stream0treemap" shape-rendering="geometricPrecision" class="st3" d="M112.5,96.2H20v83.1h92.5H205v48.5h92.5H390h92.5
			H575v-6.9h92.5H760V54.6h-92.5H575v90.1h-92.5H390h-92.5H205V96.2H112.5"/>
	</g>
	<g>
		<defs>
			<path id="SVGID_9_" d="M-72.5,311h64.8V20h-64.8V311 M47.8,311h129.5V20H47.8V311 M232.8,311h129.5V20H232.8V311 M417.8,311
				h129.5V20H417.8V311 M612,311h111V20H612V311 M797,311h55.5V20H797V311"/>
		</defs>
		<clipPath id="SVGID_10_">
			<use xlink:href="#SVGID_9_"  style="overflow:visible;"/>
		</clipPath>
		<path id="stream20treemap" shape-rendering="geometricPrecision" class="st4" d="M112.5,44.2H20v41.6h92.5H205v45h92.5H390h92.5
			H575v69.3h92.5H760V75.4h-92.5H575V47.7h-92.5H390h-92.5H205v-3.5H112.5"/>
	</g>
	<g>
		<defs>
			<path id="SVGID_11_" d="M-72.5,311h64.8V20h-64.8V311 M47.8,311h129.5V20H47.8V311 M242,311h111V20H242V311 M427,311h111V20H427
				V311 M621.2,311h92.5V20h-92.5V311 M806.2,311h46.2V20h-46.2V311"/>
		</defs>
		<clipPath id="SVGID_12_">
			<use xlink:href="#SVGID_11_"  style="overflow:visible;"/>
		</clipPath>
		<path id="stream8treemap" shape-rendering="geometricPrecision" class="st5" d="M112.5,189.8H20v41.6h92.5H205V110.1h92.5H390
			h92.5H575v69.3h92.5H760V96.2h-92.5H575V68.5h-92.5H390h-92.5H205v121.2H112.5"/>
	</g>
	<g>
		<defs>
			<path id="SVGID_13_" d="M-72.5,311H-17V20h-55.5V311 M57,311h111V20H57V311 M242,311h111V20H242V311 M427,311h111V20H427V311
				 M630.5,311h74V20h-74V311 M815.5,311h37V20h-37V311"/>
		</defs>
		<clipPath id="SVGID_14_">
			<use xlink:href="#SVGID_13_"  style="overflow:visible;"/>
		</clipPath>
		<path id="stream4treemap" shape-rendering="geometricPrecision" class="st6" d="M112.5,117H20v41.6h92.5H205v48.5h92.5H390h92.5
			H575v-48.5h92.5H760V117h-92.5H575v48.5h-92.5H390h-92.5H205V117H112.5"/>
	</g>
</g>
<text transform="matrix(1 0 0 1 72.7231 341.7051)" class="st7 st8">January</text>
<text transform="matrix(1 0 0 1 259.7234 341.7051)" class="st7 st8">February</text>
<text transform="matrix(1 0 0 1 449.7234 341.7051)" class="st7 st8">March</text>
<text transform="matrix(1 0 0 1 646.4998 341.7051)" class="st7 st8">April</text>
</svg>
