<?xml version="1.0" encoding="utf-8"?>
<!-- Generator: Adobe Illustrator 20.0.0, SVG Export Plug-In . SVG Version: 6.00 Build 0)  -->
<svg version="1.1" id="Layer_1" xmlns="http://www.w3.org/2000/svg" xmlns:xlink="http://www.w3.org/1999/xlink" x="0px" y="0px"
	 viewBox="0 0 556.5 337" style="enable-background:new 0 0 556.5 337;" xml:space="preserve">
<style type="text/css">
	.st0{clip-path:url(#SVGID_2_);fill:#08306B;}
	.st1{clip-path:url(#SVGID_4_);fill:#2271B4;}
	.st2{clip-path:url(#SVGID_6_);fill:#2271B4;}
	.st3{clip-path:url(#SVGID_8_);fill:#6DAED5;}
	.st4{clip-path:url(#SVGID_10_);fill:#6DAED5;}
	.st5{clip-path:url(#SVGID_12_);fill:#C3DBEE;}
	.st6{clip-path:url(#SVGID_14_);fill:#F7FBFF;}
	.st7{font-family:'ArialMT';}
	.st8{font-size:25px;}
</style>
<g>
	<g>
		<defs>
			<path id="SVGID_1_" d="M-137.2,294h124.9V20h-124.9V294 M15.4,294h249.7V20H15.4V294 M292.9,294h249.7V20H292.9V294 M570.4,294
				h124.9V20H570.4V294"/>
		</defs>
		<clipPath id="SVGID_2_">
			<use xlink:href="#SVGID_1_"  style="overflow:visible;"/>
		</clipPath>
		<path id="streamfakeRoottreemap" shape-rendering="geometricPrecision" class="st0" d="M140.3,20H1.5v274h138.7H279v-38.9h138.7
			h138.7V58.9H417.7H279V20H140.3"/>
	</g>
	<g>
		<defs>
			<path id="SVGID_3_" d="M-137.2,294h111V20h-111V294 M29.3,294h222V20h-222V294 M306.7,294h222V20h-222V294 M584.2,294h111V20
				h-111V294"/>
		</defs>
		<clipPath id="SVGID_4_">
			<use xlink:href="#SVGID_3_"  style="overflow:visible;"/>
		</clipPath>
		<path id="stream4treemap" shape-rendering="geometricPrecision" class="st1" d="M140.3,235H1.5v40h138.7H279v-38.9h138.7h138.7
			v-91.7H417.7H279V235H140.3"/>
	</g>
	<g>
		<defs>
			<path id="SVGID_5_" d="M-137.2,294h111V20h-111V294 M29.3,294h222V20h-222V294 M306.7,294h222V20h-222V294 M584.2,294h111V20
				h-111V294"/>
		</defs>
		<clipPath id="SVGID_6_">
			<use xlink:href="#SVGID_5_"  style="overflow:visible;"/>
		</clipPath>
		<path id="stream10treemap" shape-rendering="geometricPrecision" class="st2" d="M140.3,39H1.5v177h138.7H279v-90.6h138.7h138.7
			V77.9H417.7H279V39H140.3"/>
	</g>
	<g>
		<defs>
			<path id="SVGID_7_" d="M-137.2,294h97.1V20h-97.1V294 M43.1,294h194.2V20H43.1V294 M320.6,294h194.2V20H320.6V294 M598.1,294
				h97.1V20h-97.1V294"/>
		</defs>
		<clipPath id="SVGID_8_">
			<use xlink:href="#SVGID_7_"  style="overflow:visible;"/>
		</clipPath>
		<path id="stream8treemap" shape-rendering="geometricPrecision" class="st3" d="M140.3,236.3H1.5v37.5h138.7H279V218h138.7h138.7
			v-55.4H417.7H279v73.7H140.3"/>
	</g>
	<g>
		<defs>
			<path id="SVGID_9_" d="M-137.2,294h97.1V20h-97.1V294 M43.1,294h194.2V20H43.1V294 M320.6,294h194.2V20H320.6V294 M598.1,294
				h97.1V20h-97.1V294"/>
		</defs>
		<clipPath id="SVGID_10_">
			<use xlink:href="#SVGID_9_"  style="overflow:visible;"/>
		</clipPath>
		<path id="stream0treemap" shape-rendering="geometricPrecision" class="st4" d="M140.3,58.9H1.5v137.2h138.7H279v-74.4h138.7
			h138.7v-40H417.7H279V58.9H140.3"/>
	</g>
	<g>
		<defs>
			<path id="SVGID_11_" d="M-137.2,294H-54V20h-83.2V294 M57,294h166.5V20H57V294 M334.5,294H501V20H334.5V294 M612,294h83.2V20H612
				V294"/>
		</defs>
		<clipPath id="SVGID_12_">
			<use xlink:href="#SVGID_11_"  style="overflow:visible;"/>
		</clipPath>
		<path id="stream6treemap" shape-rendering="geometricPrecision" class="st5" d="M140.3,83.9H1.5v87.1h138.7H279v-51.4h138.7h138.7
			v-36H417.7H279v0.3H140.3"/>
	</g>
	<g>
		<defs>
			<path id="SVGID_13_" d="M-137.2,294h69.4V20h-69.4V294 M70.9,294h138.7V20H70.9V294 M348.4,294h138.7V20H348.4V294 M625.9,294
				h69.4V20h-69.4V294"/>
		</defs>
		<clipPath id="SVGID_14_">
			<use xlink:href="#SVGID_13_"  style="overflow:visible;"/>
		</clipPath>
		<path id="stream2treemap" shape-rendering="geometricPrecision" class="st6" d="M140.3,109.8H1.5v35.4h138.7H279v-29h138.7h138.7
			V87.1H417.7H279v22.7H140.3"/>
	</g>
</g>
<text transform="matrix(1 0 0 1 90.7402 322.2131)" class="st7 st8">January</text>
<text transform="matrix(1 0 0 1 384.0111 322.2131)" class="st7 st8">February</text>
</svg>
