<?xml version="1.0" encoding="utf-8"?>
<!-- Generator: Adobe Illustrator 20.0.0, SVG Export Plug-In . SVG Version: 6.00 Build 0)  -->
<svg version="1.1" id="Layer_1" xmlns="http://www.w3.org/2000/svg" xmlns:xlink="http://www.w3.org/1999/xlink" x="0px" y="0px"
	 viewBox="0 0 780 374" style="enable-background:new 0 0 780 374;" xml:space="preserve">
<style type="text/css">
	.st0{clip-path:url(#SVGID_2_);fill:#08306B;}
	.st1{clip-path:url(#SVGID_4_);fill:#2271B4;}
	.st2{clip-path:url(#SVGID_6_);fill:#2271B4;}
	.st3{clip-path:url(#SVGID_8_);fill:#2271B4;}
	.st4{clip-path:url(#SVGID_10_);fill:#6DAED5;}
	.st5{clip-path:url(#SVGID_12_);fill:#6DAED5;}
	.st6{clip-path:url(#SVGID_14_);fill:#6DAED5;}
	.st7{clip-path:url(#SVGID_16_);fill:#6DAED5;}
	.st8{clip-path:url(#SVGID_18_);fill:#C3DBEE;}
	.st9{clip-path:url(#SVGID_20_);fill:#F7FBFF;}
	.st10{font-family:'ArialMT';}
	.st11{font-size:25px;}
</style>
<g>
	<g>
		<defs>
			<path id="SVGID_1_" d="M-103.3,311h111V20h-111V311 M32.3,311h222V20h-222V311 M279,311h222V20H279V311 M525.7,311h222V20h-222
				V311 M772.3,311h111V20h-111V311"/>
		</defs>
		<clipPath id="SVGID_2_">
			<use xlink:href="#SVGID_1_"  style="overflow:visible;"/>
		</clipPath>
		<path id="streamfakeRoottreemap" shape-rendering="geometricPrecision" class="st0" d="M143.3,77.7H20v175.6h123.3h123.3V303H390
			h123.3v8h123.3H760V20H636.7H513.3v8H390H266.7v49.7H143.3"/>
	</g>
	<g>
		<defs>
			<path id="SVGID_3_" d="M-103.3,311h98.7V20h-98.7V311 M44.7,311H242V20H44.7V311 M291.3,311h197.3V20H291.3V311 M538,311h197.3
				V20H538V311 M784.7,311h98.7V20h-98.7V311"/>
		</defs>
		<clipPath id="SVGID_4_">
			<use xlink:href="#SVGID_3_"  style="overflow:visible;"/>
		</clipPath>
		<path id="stream0treemap" shape-rendering="geometricPrecision" class="st1" d="M143.3,228.4H20v12.8h123.3h123.3v49.7H390h123.3
			v8h123.3H760v-59.3H636.7H513.3v-31.3H390H266.7v20.1H143.3"/>
	</g>
	<g>
		<defs>
			<path id="SVGID_5_" d="M-103.3,311h98.7V20h-98.7V311 M44.7,311H242V20H44.7V311 M291.3,311h197.3V20H291.3V311 M538,311h197.3
				V20H538V311 M784.7,311h98.7V20h-98.7V311"/>
		</defs>
		<clipPath id="SVGID_6_">
			<use xlink:href="#SVGID_5_"  style="overflow:visible;"/>
		</clipPath>
		<path id="stream15treemap" shape-rendering="geometricPrecision" class="st2" d="M143.3,179.5H20v36.8h123.3h123.3v-20.1H390
			h123.3v31.3h123.3H760v-41.2H636.7H513.3v-4.1H390H266.7v-2.8H143.3"/>
	</g>
	<g>
		<defs>
			<path id="SVGID_7_" d="M-103.3,311h98.7V20h-98.7V311 M44.7,311H242V20H44.7V311 M291.3,311h197.3V20H291.3V311 M538,311h197.3
				V20H538V311 M784.7,311h98.7V20h-98.7V311"/>
		</defs>
		<clipPath id="SVGID_8_">
			<use xlink:href="#SVGID_7_"  style="overflow:visible;"/>
		</clipPath>
		<path id="stream21treemap" shape-rendering="geometricPrecision" class="st3" d="M143.3,89.8H20v77.6h123.3h123.3v2.8H390h123.3
			v4.1h123.3H760V32.1H636.7H513.3v8H390H266.7v49.7H143.3"/>
	</g>
	<g>
		<defs>
			<path id="SVGID_9_" d="M-103.3,311H-17V20h-86.3V311 M57,311h172.7V20H57V311 M303.7,311h172.7V20H303.7V311 M550.3,311H723V20
				H550.3V311 M797,311h86.3V20H797V311"/>
		</defs>
		<clipPath id="SVGID_10_">
			<use xlink:href="#SVGID_9_"  style="overflow:visible;"/>
		</clipPath>
		<path id="stream24treemap" shape-rendering="geometricPrecision" class="st4" d="M143.3,234.1H20v1.3h123.3h123.3v37.2H390h123.3
			v5.8h123.3H760V260H636.7H513.3v-33.5H390H266.7v7.6H143.3"/>
	</g>
	<g>
		<defs>
			<path id="SVGID_11_" d="M-103.3,311H-17V20h-86.3V311 M57,311h172.7V20H57V311 M303.7,311h172.7V20H303.7V311 M550.3,311H723V20
				H550.3V311 M797,311h86.3V20H797V311"/>
		</defs>
		<clipPath id="SVGID_12_">
			<use xlink:href="#SVGID_11_"  style="overflow:visible;"/>
		</clipPath>
		<path id="stream12treemap" shape-rendering="geometricPrecision" class="st5" d="M143.3,130.7H20v34.2h123.3h123.3v4.7H390h123.3
			v0.6h123.3H760V99.2H636.7H513.3V86.4H390H266.7v44.3H143.3"/>
	</g>
	<g>
		<defs>
			<path id="SVGID_13_" d="M-103.3,311H-17V20h-86.3V311 M57,311h172.7V20H57V311 M303.7,311h172.7V20H303.7V311 M550.3,311H723V20
				H550.3V311 M797,311h86.3V20H797V311"/>
		</defs>
		<clipPath id="SVGID_14_">
			<use xlink:href="#SVGID_13_"  style="overflow:visible;"/>
		</clipPath>
		<path id="stream9treemap" shape-rendering="geometricPrecision" class="st6" d="M143.3,127.5H20v0.8h123.3h123.3V85.8H390h123.3
			v9.3h123.3H760V61.2H636.7H513.3v-18H390H266.7v84.2H143.3"/>
	</g>
	<g>
		<defs>
			<path id="SVGID_15_" d="M-103.3,311H-17V20h-86.3V311 M57,311h172.7V20H57V311 M303.7,311h172.7V20H303.7V311 M550.3,311H723V20
				H550.3V311 M797,311h86.3V20H797V311"/>
		</defs>
		<clipPath id="SVGID_16_">
			<use xlink:href="#SVGID_15_"  style="overflow:visible;"/>
		</clipPath>
		<path id="stream3treemap" shape-rendering="geometricPrecision" class="st7" d="M143.3,92.3H20V125h123.3h123.3V42.6H390h123.3
			v14.5h123.3H760V36.2H636.7H513.3v4.5H390H266.7v51.5H143.3"/>
	</g>
	<g>
		<defs>
			<path id="SVGID_17_" d="M-103.3,311h74V20h-74V311 M69.3,311h148V20h-148V311 M316,311h148V20H316V311 M562.7,311h148V20h-148
				V311 M809.3,311h74V20h-74V311"/>
		</defs>
		<clipPath id="SVGID_18_">
			<use xlink:href="#SVGID_17_"  style="overflow:visible;"/>
		</clipPath>
		<path id="stream6treemap" shape-rendering="geometricPrecision" class="st8" d="M143.3,144.4H20v6.8h123.3h123.3v-3.4H390h123.3
			v15.4h123.3H760v-57.1H636.7H513.3v2H390H266.7v36.2H143.3"/>
	</g>
	<g>
		<defs>
			<path id="SVGID_19_" d="M-103.3,311h61.7V20h-61.7V311 M81.7,311H205V20H81.7V311 M328.3,311h123.3V20H328.3V311 M575,311h123.3
				V20H575V311 M821.7,311h61.7V20h-61.7V311"/>
		</defs>
		<clipPath id="SVGID_20_">
			<use xlink:href="#SVGID_19_"  style="overflow:visible;"/>
		</clipPath>
		<path id="stream18treemap" shape-rendering="geometricPrecision" class="st9" d="M143.3,147.4H20v0.7h123.3h123.3v-8.3H390h123.3
			v0.3h123.3H760v-10.8H636.7H513.3v-13.1H390H266.7v31.3H143.3"/>
	</g>
</g>
<text transform="matrix(1 0 0 1 90.6497 347.0001)" class="st10 st11">January</text>
<text transform="matrix(1 0 0 1 331.6499 347.0002)" class="st10 st11">February</text>
<text transform="matrix(1 0 0 1 610.2194 347.001)" class="st10 st11">March</text>
</svg>
