<?xml version="1.0" encoding="utf-8"?>
<!-- Generator: Adobe Illustrator 20.0.0, SVG Export Plug-In . SVG Version: 6.00 Build 0)  -->
<svg version="1.1" id="Layer_1" xmlns="http://www.w3.org/2000/svg" xmlns:xlink="http://www.w3.org/1999/xlink" x="0px" y="0px"
	 viewBox="0 0 780 380" style="enable-background:new 0 0 780 380;" xml:space="preserve">
<style type="text/css">
	.st0{clip-path:url(#SVGID_2_);fill:#08306B;}
	.st1{clip-path:url(#SVGID_4_);fill:#1864AA;}
	.st2{clip-path:url(#SVGID_6_);fill:#1864AA;}
	.st3{clip-path:url(#SVGID_8_);fill:#1864AA;}
	.st4{clip-path:url(#SVGID_10_);fill:#4B97C9;}
	.st5{clip-path:url(#SVGID_12_);fill:#4B97C9;}
	.st6{clip-path:url(#SVGID_14_);fill:#4B97C9;}
	.st7{clip-path:url(#SVGID_16_);fill:#4B97C9;}
	.st8{clip-path:url(#SVGID_18_);fill:#93C3DF;}
	.st9{clip-path:url(#SVGID_20_);fill:#93C3DF;}
	.st10{clip-path:url(#SVGID_22_);fill:#93C3DF;}
	.st11{clip-path:url(#SVGID_24_);fill:#CFE1F2;}
	.st12{clip-path:url(#SVGID_26_);fill:#F7FBFF;}
	.st13{font-family:'ArialMT';}
	.st14{font-size:25px;}
</style>
<g>
	<g>
		<defs>
			<path id="SVGID_1_" d="M-72.5,327h83.2V20h-83.2V327 M29.2,327h166.5V20H29.2V327 M214.2,327h166.5V20H214.2V327 M399.2,327
				h166.5V20H399.2V327 M584.2,327h166.5V20H584.2V327 M769.2,327h83.2V20h-83.2V327"/>
		</defs>
		<clipPath id="SVGID_2_">
			<use xlink:href="#SVGID_1_"  style="overflow:visible;"/>
		</clipPath>
		<path id="streamfakeRoottreemap" shape-rendering="geometricPrecision" class="st0" d="M112.5,20H20v307h92.5H205h92.5H390h92.5
			H575h92.5H760V20h-92.5H575h-92.5H390h-92.5H205H112.5"/>
	</g>
	<g>
		<defs>
			<path id="SVGID_3_" d="M-72.5,327h74V20h-74V327 M38.5,327h148V20h-148V327 M223.5,327h148V20h-148V327 M408.5,327h148V20h-148
				V327 M593.5,327h148V20h-148V327 M778.5,327h74V20h-74V327"/>
		</defs>
		<clipPath id="SVGID_4_">
			<use xlink:href="#SVGID_3_"  style="overflow:visible;"/>
		</clipPath>
		<path id="stream8treemap" shape-rendering="geometricPrecision" class="st1" d="M112.5,250.2H20v70.8h92.5H205h92.5H390h92.5H575
			h92.5H760v-47.2h-92.5H575v-47.2h-92.5H390v23.6h-92.5H205H112.5"/>
	</g>
	<g>
		<defs>
			<path id="SVGID_5_" d="M-72.5,327h74V20h-74V327 M38.5,327h148V20h-148V327 M223.5,327h148V20h-148V327 M408.5,327h148V20h-148
				V327 M593.5,327h148V20h-148V327 M778.5,327h74V20h-74V327"/>
		</defs>
		<clipPath id="SVGID_6_">
			<use xlink:href="#SVGID_5_"  style="overflow:visible;"/>
		</clipPath>
		<path id="stream12treemap" shape-rendering="geometricPrecision" class="st2" d="M112.5,173.5H20v70.8h92.5H205h92.5H390v-23.6
			h92.5H575V268h92.5H760v-47.2h-92.5H575v-47.2h-92.5H390h-92.5H205H112.5"/>
	</g>
	<g>
		<defs>
			<path id="SVGID_7_" d="M-72.5,327h74V20h-74V327 M38.5,327h148V20h-148V327 M223.5,327h148V20h-148V327 M408.5,327h148V20h-148
				V327 M593.5,327h148V20h-148V327 M778.5,327h74V20h-74V327"/>
		</defs>
		<clipPath id="SVGID_8_">
			<use xlink:href="#SVGID_7_"  style="overflow:visible;"/>
		</clipPath>
		<path id="stream16treemap" shape-rendering="geometricPrecision" class="st3" d="M112.5,25.9H20v141.7h92.5H205h92.5H390h92.5H575
			v47.2h92.5H760V25.9h-92.5H575h-92.5H390h-92.5H205H112.5"/>
	</g>
	<g>
		<defs>
			<path id="SVGID_9_" d="M-72.5,327h64.8V20h-64.8V327 M47.8,327h129.5V20H47.8V327 M232.8,327h129.5V20H232.8V327 M417.8,327
				h129.5V20H417.8V327 M602.8,327h129.5V20H602.8V327 M787.8,327h64.8V20h-64.8V327"/>
		</defs>
		<clipPath id="SVGID_10_">
			<use xlink:href="#SVGID_9_"  style="overflow:visible;"/>
		</clipPath>
		<path id="stream20treemap" shape-rendering="geometricPrecision" class="st4" d="M112.5,289.6H20v23.6h92.5H205h92.5H390h92.5H575
			v-3.9h92.5H760v-23.6h-92.5H575V266h-92.5H390v23.6h-92.5H205H112.5"/>
	</g>
	<g>
		<defs>
			<path id="SVGID_11_" d="M-72.5,327h64.8V20h-64.8V327 M47.8,327h129.5V20H47.8V327 M232.8,327h129.5V20H232.8V327 M417.8,327
				h129.5V20H417.8V327 M602.8,327h129.5V20H602.8V327 M787.8,327h64.8V20h-64.8V327"/>
		</defs>
		<clipPath id="SVGID_12_">
			<use xlink:href="#SVGID_11_"  style="overflow:visible;"/>
		</clipPath>
		<path id="stream4treemap" shape-rendering="geometricPrecision" class="st5" d="M112.5,181.4H20V205h92.5H205h92.5H390v3.9h92.5
			H575v47.2h92.5H760v-23.6h-92.5H575v-47.2h-92.5H390v-3.9h-92.5H205H112.5"/>
	</g>
	<g>
		<defs>
			<path id="SVGID_13_" d="M-72.5,327h64.8V20h-64.8V327 M47.8,327h129.5V20H47.8V327 M232.8,327h129.5V20H232.8V327 M417.8,327
				h129.5V20H417.8V327 M602.8,327h129.5V20H602.8V327 M787.8,327h64.8V20h-64.8V327"/>
		</defs>
		<clipPath id="SVGID_14_">
			<use xlink:href="#SVGID_13_"  style="overflow:visible;"/>
		</clipPath>
		<path id="stream40treemap" shape-rendering="geometricPrecision" class="st6" d="M112.5,61.3H20v47.2h92.5H205h92.5H390v51.2h92.5
			H575V207h92.5H760V88.9h-92.5H575V65.3h-92.5H390v-3.9h-92.5H205H112.5"/>
	</g>
	<g>
		<defs>
			<path id="SVGID_15_" d="M-72.5,327h64.8V20h-64.8V327 M47.8,327h129.5V20H47.8V327 M232.8,327h129.5V20H232.8V327 M417.8,327
				h129.5V20H417.8V327 M602.8,327h129.5V20H602.8V327 M787.8,327h64.8V20h-64.8V327"/>
		</defs>
		<clipPath id="SVGID_16_">
			<use xlink:href="#SVGID_15_"  style="overflow:visible;"/>
		</clipPath>
		<path id="stream32treemap" shape-rendering="geometricPrecision" class="st7" d="M112.5,31.8H20v23.6h92.5H205h92.5H390v2h92.5
			H575V81h92.5H760V33.8h-92.5H575l0,0h-92.5H390v-2h-92.5H205H112.5"/>
	</g>
	<g>
		<defs>
			<path id="SVGID_17_" d="M-72.5,327h64.8V20h-64.8V327 M47.8,327h129.5V20H47.8V327 M232.8,327h129.5V20H232.8V327 M417.8,327
				h129.5V20H417.8V327 M612,327h111V20H612V327 M797,327h55.5V20H797V327"/>
		</defs>
		<clipPath id="SVGID_18_">
			<use xlink:href="#SVGID_17_"  style="overflow:visible;"/>
		</clipPath>
		<path id="stream0treemap" shape-rendering="geometricPrecision" class="st8" d="M112.5,258.1H20v23.6h92.5H205h92.5H390v-23.6
			h92.5H575V69.2h92.5H760V45.6h-92.5H575v188.9h-92.5H390v23.6h-92.5H205H112.5"/>
	</g>
	<g>
		<defs>
			<path id="SVGID_19_" d="M-72.5,327h64.8V20h-64.8V327 M47.8,327h129.5V20H47.8V327 M232.8,327h129.5V20H232.8V327 M427,327h111
				V20H427V327 M612,327h111V20H612V327 M797,327h55.5V20H797V327"/>
		</defs>
		<clipPath id="SVGID_20_">
			<use xlink:href="#SVGID_19_"  style="overflow:visible;"/>
		</clipPath>
		<path id="stream24treemap" shape-rendering="geometricPrecision" class="st9" d="M112.5,114.5H20v47.2h92.5H205h92.5H390v-9.8
			h92.5H575v47.2h92.5H760v-70.8h-92.5H575v-23.6h-92.5H390v9.8h-92.5H205H112.5"/>
	</g>
	<g>
		<defs>
			<path id="SVGID_21_" d="M-72.5,327H-17V20h-55.5V327 M57,327h111V20H57V327 M242,327h111V20H242V327 M427,327h111V20H427V327
				 M612,327h111V20H612V327 M797,327h55.5V20H797V327"/>
		</defs>
		<clipPath id="SVGID_22_">
			<use xlink:href="#SVGID_21_"  style="overflow:visible;"/>
		</clipPath>
		<path id="stream44treemap" shape-rendering="geometricPrecision" class="st10" d="M112.5,73.1H20v23.6h92.5H205h92.5H390l0,0h92.5
			H575v23.6h92.5H760V96.8h-92.5H575V73.1h-92.5H390l0,0h-92.5H205H112.5"/>
	</g>
	<g>
		<defs>
			<path id="SVGID_23_" d="M-72.5,327H-17V20h-55.5V327 M57,327h111V20H57V327 M242,327h111V20H242V327 M436.2,327h92.5V20h-92.5
				V327 M621.2,327h92.5V20h-92.5V327 M806.2,327h46.2V20h-46.2V327"/>
		</defs>
		<clipPath id="SVGID_24_">
			<use xlink:href="#SVGID_23_"  style="overflow:visible;"/>
		</clipPath>
		<path id="stream28treemap" shape-rendering="geometricPrecision" class="st11" d="M112.5,126.3H20v23.6h92.5H205h92.5H390V140
			h92.5H575v47.2h92.5H760V140h-92.5H575v-23.6h-92.5H390v9.8h-92.5H205H112.5"/>
	</g>
	<g>
		<defs>
			<path id="SVGID_25_" d="M-72.5,327h64.8V20h-64.8V327 M47.8,327h129.5V20H47.8V327 M232.8,327h129.5V20H232.8V327 M427,327h111
				V20H427V327 M630.5,327h74V20h-74V327 M815.5,327h37V20h-37V327"/>
		</defs>
		<clipPath id="SVGID_26_">
			<use xlink:href="#SVGID_25_"  style="overflow:visible;"/>
		</clipPath>
		<path id="stream36treemap" shape-rendering="geometricPrecision" class="st12" d="M112.5,212.9H20v23.6h92.5H205h92.5H390v64.9
			h92.5H575V175.5h92.5H760v-23.6h-92.5H575v125.9h-92.5H390v-64.9h-92.5H205H112.5"/>
	</g>
</g>
<text transform="matrix(1 0 0 1 66.1115 356.7051)" class="st13 st14">January</text>
<text transform="matrix(1 0 0 1 253.1118 356.7051)" class="st13 st14">February</text>
<text transform="matrix(1 0 0 1 452.1118 356.7051)" class="st13 st14">March</text>
<text transform="matrix(1 0 0 1 639.8882 356.7051)" class="st13 st14">April</text>
</svg>
