<?xml version="1.0" encoding="utf-8"?>
<!-- Generator: Adobe Illustrator 20.0.0, SVG Export Plug-In . SVG Version: 6.00 Build 0)  -->
<svg version="1.1" id="Layer_1" xmlns="http://www.w3.org/2000/svg" xmlns:xlink="http://www.w3.org/1999/xlink" x="0px" y="0px"
	 viewBox="0 0 758.6 334.8" style="enable-background:new 0 0 758.6 334.8;" xml:space="preserve">
<style type="text/css">
	.st0{clip-path:url(#SVGID_2_);fill:#08306B;}
	.st1{clip-path:url(#SVGID_4_);fill:#2271B4;}
	.st2{clip-path:url(#SVGID_6_);fill:#2271B4;}
	.st3{clip-path:url(#SVGID_8_);fill:#6DAED5;}
	.st4{clip-path:url(#SVGID_10_);fill:#C3DBEE;}
	.st5{clip-path:url(#SVGID_12_);fill:#F7FBFF;}
	.st6{font-family:'ArialMT';}
	.st7{font-size:25px;}
</style>
<g>
	<g>
		<defs>
			<path id="SVGID_1_" d="M-83.3,294H0V20h-83.3V294 M18.5,294H185V20H18.5V294 M203.5,294H370V20H203.5V294 M388.5,294h166.5V20
				H388.5V294 M573.6,294h166.5V20H573.6V294 M758.6,294h83.3V20h-83.3V294"/>
		</defs>
		<clipPath id="SVGID_2_">
			<use xlink:href="#SVGID_1_"  style="overflow:visible;"/>
		</clipPath>
		<path id="streamfakeRoottreemap" shape-rendering="geometricPrecision" class="st0" d="M101.8,20H9.3v274h92.5h92.5h92.5h92.5
			h92.5h92.5h92.5h92.5V20h-92.5h-92.5h-92.5h-92.5h-92.5h-92.5H101.8"/>
	</g>
	<g>
		<defs>
			<path id="SVGID_3_" d="M-83.3,294h74V20h-74V294 M27.8,294h148V20h-148V294 M212.8,294h148V20h-148V294 M397.8,294h148V20h-148
				V294 M582.8,294h148V20h-148V294 M767.8,294h74V20h-74V294"/>
		</defs>
		<clipPath id="SVGID_4_">
			<use xlink:href="#SVGID_3_"  style="overflow:visible;"/>
		</clipPath>
		<path id="stream8treemap" shape-rendering="geometricPrecision" class="st1" d="M101.8,141.8H9.3v137h92.5h92.5h92.5h92.5h92.5
			h92.5h92.5h92.5V96.1h-92.5h-92.5h-92.5h-92.5h-92.5h-92.5v45.7H101.8"/>
	</g>
	<g>
		<defs>
			<path id="SVGID_5_" d="M-83.3,294h74V20h-74V294 M27.8,294h148V20h-148V294 M212.8,294h148V20h-148V294 M397.8,294h148V20h-148
				V294 M582.8,294h148V20h-148V294 M767.8,294h74V20h-74V294"/>
		</defs>
		<clipPath id="SVGID_6_">
			<use xlink:href="#SVGID_5_"  style="overflow:visible;"/>
		</clipPath>
		<path id="stream12treemap" shape-rendering="geometricPrecision" class="st2" d="M101.8,35.2H9.3v91.3h92.5h92.5V80.9h92.5h92.5
			h92.5h92.5h92.5h92.5V35.2h-92.5h-92.5h-92.5h-92.5h-92.5h-92.5l0,0H101.8"/>
	</g>
	<g>
		<defs>
			<path id="SVGID_7_" d="M-83.3,294h64.8V20h-64.8V294 M37,294h129.5V20H37V294 M222,294h129.5V20H222V294 M407,294h129.5V20H407
				V294 M592.1,294h129.5V20H592.1V294 M777.1,294h64.8V20h-64.8V294"/>
		</defs>
		<clipPath id="SVGID_8_">
			<use xlink:href="#SVGID_7_"  style="overflow:visible;"/>
		</clipPath>
		<path id="stream16treemap" shape-rendering="geometricPrecision" class="st3" d="M101.8,157H9.3v45.7h92.5h92.5V157h92.5h92.5
			v98.9h92.5h92.5h92.5h92.5v-137h-92.5h-92.5h-92.5h-92.5v-7.6h-92.5h-92.5V157H101.8"/>
	</g>
	<g>
		<defs>
			<path id="SVGID_9_" d="M-83.3,294h64.8V20h-64.8V294 M37,294h129.5V20H37V294 M222,294h129.5V20H222V294 M416.3,294h111V20h-111
				V294 M601.3,294h111V20h-111V294 M786.3,294h55.5V20h-55.5V294"/>
		</defs>
		<clipPath id="SVGID_10_">
			<use xlink:href="#SVGID_9_"  style="overflow:visible;"/>
		</clipPath>
		<path id="stream4treemap" shape-rendering="geometricPrecision" class="st4" d="M101.8,217.9H9.3v45.7h92.5h92.5h92.5h92.5v-83.7
			h92.5h92.5v53.3h92.5h92.5v-91.3h-92.5h-92.5v-7.6h-92.5h-92.5v38.1h-92.5h-92.5v45.7H101.8"/>
	</g>
	<g>
		<defs>
			<path id="SVGID_11_" d="M-83.3,294h64.8V20h-64.8V294 M37,294h129.5V20H37V294 M231.3,294h111V20h-111V294 M416.3,294h111V20
				h-111V294 M610.6,294h92.5V20h-92.5V294 M795.6,294h46.3V20h-46.3V294"/>
		</defs>
		<clipPath id="SVGID_12_">
			<use xlink:href="#SVGID_11_"  style="overflow:visible;"/>
		</clipPath>
		<path id="stream0treemap" shape-rendering="geometricPrecision" class="st5" d="M101.8,58.1H9.3v45.7h92.5h92.5v137h92.5h92.5
			h92.5h92.5v-30.4h92.5h92.5v-45.7h-92.5h-92.5v30.4h-92.5h-92.5h-92.5h-92.5v-137H101.8"/>
	</g>
</g>
<text transform="matrix(1 0 0 1 55.3985 325.6656)" class="st6 st7">January</text>
<text transform="matrix(1 0 0 1 242.3988 325.6656)" class="st6 st7">February</text>
<text transform="matrix(1 0 0 1 441.3988 325.6656)" class="st6 st7">March</text>
<text transform="matrix(1 0 0 1 638.5084 325.6657)" class="st6 st7">April</text>
</svg>
