<?xml version="1.0" encoding="utf-8"?>
<!-- Generator: Adobe Illustrator 20.0.0, SVG Export Plug-In . SVG Version: 6.00 Build 0)  -->
<svg version="1.1" id="Layer_1" xmlns="http://www.w3.org/2000/svg" xmlns:xlink="http://www.w3.org/1999/xlink" x="0px" y="0px"
	 viewBox="0 0 568.5 332.6" style="enable-background:new 0 0 568.5 332.6;" xml:space="preserve">
<style type="text/css">
	.st0{clip-path:url(#SVGID_2_);fill:#08306B;}
	.st1{clip-path:url(#SVGID_4_);fill:#3787C0;}
	.st2{clip-path:url(#SVGID_6_);fill:#3787C0;}
	.st3{clip-path:url(#SVGID_8_);fill:#ABCFE6;}
	.st4{clip-path:url(#SVGID_10_);fill:#ABCFE6;}
	.st5{clip-path:url(#SVGID_12_);fill:#ABCFE6;}
	.st6{clip-path:url(#SVGID_14_);fill:#ABCFE6;}
	.st7{clip-path:url(#SVGID_16_);fill:#ABCFE6;}
	.st8{clip-path:url(#SVGID_18_);fill:#F7FBFF;}
	.st9{clip-path:url(#SVGID_20_);fill:#F7FBFF;}
	.st10{clip-path:url(#SVGID_22_);fill:#F7FBFF;}
	.st11{font-family:'ArialMT';}
	.st12{font-size:25px;}
</style>
<g>
	<g>
		<defs>
			<path id="SVGID_1_" d="M-133,294H-8V20H-133V294 M19.7,294h249.8V20H19.7V294 M297.3,294h249.8V20H297.3V294 M574.8,294h124.9V20
				H574.8V294"/>
		</defs>
		<clipPath id="SVGID_2_">
			<use xlink:href="#SVGID_1_"  style="overflow:visible;"/>
		</clipPath>
		<path id="streamfakeRoottreemap" shape-rendering="geometricPrecision" class="st0" d="M144.6,20H5.8v274h138.8h138.8v-24.9h138.8
			H561V44.9H422.2H283.4V20H144.6"/>
	</g>
	<g>
		<defs>
			<path id="SVGID_3_" d="M-133,294h111V20h-111V294 M33.6,294h222.1V20H33.6V294 M311.2,294h222.1V20H311.2V294 M588.7,294h111V20
				h-111V294"/>
		</defs>
		<clipPath id="SVGID_4_">
			<use xlink:href="#SVGID_3_"  style="overflow:visible;"/>
		</clipPath>
		<path id="stream10treemap" shape-rendering="geometricPrecision" class="st1" d="M144.6,86.4H5.8v199.3h138.8h138.8v-24.9h138.8
			H561V86.4H422.2H283.4l0,0H144.6"/>
	</g>
	<g>
		<defs>
			<path id="SVGID_5_" d="M-133,294h111V20h-111V294 M33.6,294h222.1V20H33.6V294 M311.2,294h222.1V20H311.2V294 M588.7,294h111V20
				h-111V294"/>
		</defs>
		<clipPath id="SVGID_6_">
			<use xlink:href="#SVGID_5_"  style="overflow:visible;"/>
		</clipPath>
		<path id="stream18treemap" shape-rendering="geometricPrecision" class="st2" d="M144.6,28.3H5.8v49.8h138.8h138.8l0,0h138.8H561
			V53.2H422.2H283.4V28.3H144.6"/>
	</g>
	<g>
		<defs>
			<path id="SVGID_7_" d="M-133,294h97.1V20H-133V294 M47.5,294h194.3V20H47.5V294 M325,294h194.3V20H325V294 M602.6,294h97.1V20
				h-97.1V294"/>
		</defs>
		<clipPath id="SVGID_8_">
			<use xlink:href="#SVGID_7_"  style="overflow:visible;"/>
		</clipPath>
		<path id="stream0treemap" shape-rendering="geometricPrecision" class="st3" d="M144.6,255.8H5.8v24.9h138.8h138.8v-24.9h138.8
			H561v-24.9H422.2H283.4v24.9H144.6"/>
	</g>
	<g>
		<defs>
			<path id="SVGID_9_" d="M-133,294h97.1V20H-133V294 M47.5,294h194.3V20H47.5V294 M325,294h194.3V20H325V294 M602.6,294h97.1V20
				h-97.1V294"/>
		</defs>
		<clipPath id="SVGID_10_">
			<use xlink:href="#SVGID_9_"  style="overflow:visible;"/>
		</clipPath>
		<path id="stream12treemap" shape-rendering="geometricPrecision" class="st4" d="M144.6,225.9H5.8v24.9h138.8h138.8v-24.9h138.8
			H561V201H422.2H283.4v24.9H144.6"/>
	</g>
	<g>
		<defs>
			<path id="SVGID_11_" d="M-133,294h97.1V20H-133V294 M47.5,294h194.3V20H47.5V294 M325,294h194.3V20H325V294 M602.6,294h97.1V20
				h-97.1V294"/>
		</defs>
		<clipPath id="SVGID_12_">
			<use xlink:href="#SVGID_11_"  style="overflow:visible;"/>
		</clipPath>
		<path id="stream4treemap" shape-rendering="geometricPrecision" class="st5" d="M144.6,171.1H5.8v49.8h138.8h138.8V196h138.8H561
			v-24.9H422.2H283.4H144.6"/>
	</g>
	<g>
		<defs>
			<path id="SVGID_13_" d="M-133,294h97.1V20H-133V294 M47.5,294h194.3V20H47.5V294 M325,294h194.3V20H325V294 M602.6,294h97.1V20
				h-97.1V294"/>
		</defs>
		<clipPath id="SVGID_14_">
			<use xlink:href="#SVGID_13_"  style="overflow:visible;"/>
		</clipPath>
		<path id="stream8treemap" shape-rendering="geometricPrecision" class="st6" d="M144.6,91.4H5.8v74.7h138.8h138.8l0,0h138.8H561
			V91.4H422.2H283.4H144.6"/>
	</g>
	<g>
		<defs>
			<path id="SVGID_15_" d="M-133,294h97.1V20H-133V294 M47.5,294h194.3V20H47.5V294 M325,294h97.1V20H325V294"/>
		</defs>
		<clipPath id="SVGID_16_">
			<use xlink:href="#SVGID_15_"  style="overflow:visible;"/>
		</clipPath>
		<path id="stream16treemap" shape-rendering="geometricPrecision" class="st7" d="M144.6,40.8H5.8v24.9h138.8h138.8V40.8H144.6"/>
	</g>
	<g>
		<defs>
			<path id="SVGID_17_" d="M-133,294h83.3V20H-133V294 M61.3,294h166.5V20H61.3V294 M338.9,294h83.3V20h-83.3V294"/>
		</defs>
		<clipPath id="SVGID_18_">
			<use xlink:href="#SVGID_17_"  style="overflow:visible;"/>
		</clipPath>
		<path id="stream14treemap" shape-rendering="geometricPrecision" class="st8" d="M144.6,183.6H5.8v24.9h138.8h138.8v-24.9H144.6"
			/>
	</g>
	<g>
		<defs>
			<path id="SVGID_19_" d="M-133,294h83.3V20H-133V294 M61.3,294h166.5V20H61.3V294 M338.9,294h166.5V20H338.9V294 M616.5,294h83.3
				V20h-83.3V294"/>
		</defs>
		<clipPath id="SVGID_20_">
			<use xlink:href="#SVGID_19_"  style="overflow:visible;"/>
		</clipPath>
		<path id="stream6treemap" shape-rendering="geometricPrecision" class="st9" d="M144.6,132.9H5.8v24.9h138.8h138.8h138.8H561
			v-24.9H422.2H283.4l0,0H144.6"/>
	</g>
	<g>
		<defs>
			<path id="SVGID_21_" d="M-133,294h83.3V20H-133V294 M61.3,294h166.5V20H61.3V294 M338.9,294h166.5V20H338.9V294 M616.5,294h83.3
				V20h-83.3V294"/>
		</defs>
		<clipPath id="SVGID_22_">
			<use xlink:href="#SVGID_21_"  style="overflow:visible;"/>
		</clipPath>
		<path id="stream2treemap" shape-rendering="geometricPrecision" class="st10" d="M144.6,99.7H5.8v24.9h138.8h138.8l0,0h138.8H561
			V99.7H422.2H283.4l0,0H144.6"/>
	</g>
</g>
<text transform="matrix(1 0 0 1 96.6249 319.1317)" class="st11 st12">January</text>
<text transform="matrix(1 0 0 1 386.8955 319.1317)" class="st11 st12">February</text>
</svg>
