<?xml version="1.0" encoding="utf-8"?>
<!-- Generator: Adobe Illustrator 20.0.0, SVG Export Plug-In . SVG Version: 6.00 Build 0)  -->
<svg version="1.1" id="Layer_1" xmlns="http://www.w3.org/2000/svg" xmlns:xlink="http://www.w3.org/1999/xlink" x="0px" y="0px"
	 viewBox="0 0 769.6 369.1" style="enable-background:new 0 0 769.6 369.1;" xml:space="preserve">
<style type="text/css">
	.st0{clip-path:url(#SVGID_2_);fill:#08306B;}
	.st1{clip-path:url(#SVGID_4_);fill:#2271B4;}
	.st2{clip-path:url(#SVGID_6_);fill:#2271B4;}
	.st3{clip-path:url(#SVGID_8_);fill:#2271B4;}
	.st4{clip-path:url(#SVGID_10_);fill:#6DAED5;}
	.st5{clip-path:url(#SVGID_12_);fill:#C3DBEE;}
	.st6{clip-path:url(#SVGID_14_);fill:#F7FBFF;}
	.st7{font-family:'ArialMT';}
	.st8{font-size:25px;}
</style>
<g transform="translate(-8.486094172908224,-2.689490476059518) scale(1.0083524548945948)">
	<g>
		<defs>
			<path id="SVGID_1_" d="M-50.3,310h66V20h-66V310 M30.4,310h132.1V20H30.4V310 M177.2,310h132.1V20H177.2V310 M324,310h132.1V20
				H324V310 M470.8,310h132.1V20H470.8V310 M617.5,310h132.1V20H617.5V310 M764.3,310h66V20h-66V310"/>
		</defs>
		<clipPath id="SVGID_2_">
			<use xlink:href="#SVGID_1_"  style="overflow:visible;"/>
		</clipPath>
		<path id="streamfakeRoottreemap" shape-rendering="geometricPrecision" class="st0" d="M96.5,20H23.1v290h73.4h73.4h73.4h73.4H390
			h73.4h73.4h73.4h73.4H757V20h-73.4h-73.4h-73.4h-73.4H390h-73.4h-73.4h-73.4H96.5"/>
	</g>
	<g>
		<defs>
			<path id="SVGID_3_" d="M-50.3,310H8.4V20h-58.7V310 M37.8,310h117.4V20H37.8V310 M184.5,310H302V20H184.5V310 M331.3,310h117.4
				V20H331.3V310 M478.1,310h117.4V20H478.1V310 M624.9,310h117.4V20H624.9V310 M771.6,310h58.7V20h-58.7V310"/>
		</defs>
		<clipPath id="SVGID_4_">
			<use xlink:href="#SVGID_3_"  style="overflow:visible;"/>
		</clipPath>
		<path id="stream5treemap" shape-rendering="geometricPrecision" class="st1" d="M96.5,258.2H23.1v41.4h73.4h73.4h73.4h73.4H390
			h73.4h73.4h73.4h73.4H757v-41.4h-73.4h-73.4h-73.4h-73.4H390h-73.4h-73.4h-73.4H96.5"/>
	</g>
	<g>
		<defs>
			<path id="SVGID_5_" d="M-50.3,310H8.4V20h-58.7V310 M37.8,310h117.4V20H37.8V310 M184.5,310H302V20H184.5V310 M331.3,310h117.4
				V20H331.3V310 M478.1,310h117.4V20H478.1V310 M624.9,310h117.4V20H624.9V310 M771.6,310h58.7V20h-58.7V310"/>
		</defs>
		<clipPath id="SVGID_6_">
			<use xlink:href="#SVGID_5_"  style="overflow:visible;"/>
		</clipPath>
		<path id="stream10treemap" shape-rendering="geometricPrecision" class="st2" d="M96.5,82.1H23.1v165.7h73.4h73.4h73.4h73.4H390
			h73.4h73.4h73.4h73.4H757V82.1h-73.4h-73.4h-73.4h-73.4H390h-73.4h-73.4h-73.4H96.5"/>
	</g>
	<g>
		<defs>
			<path id="SVGID_7_" d="M-50.3,310H8.4V20h-58.7V310 M37.8,310h117.4V20H37.8V310 M184.5,310H302V20H184.5V310 M331.3,310h117.4
				V20H331.3V310 M478.1,310h117.4V20H478.1V310 M624.9,310h117.4V20H624.9V310 M771.6,310h58.7V20h-58.7V310"/>
		</defs>
		<clipPath id="SVGID_8_">
			<use xlink:href="#SVGID_7_"  style="overflow:visible;"/>
		</clipPath>
		<path id="stream20treemap" shape-rendering="geometricPrecision" class="st3" d="M96.5,30.4H23.1v41.4h73.4h73.4h73.4h73.4H390
			h73.4h73.4h73.4h73.4H757V30.4h-73.4h-73.4h-73.4h-73.4H390h-73.4h-73.4h-73.4H96.5"/>
	</g>
	<g>
		<defs>
			<path id="SVGID_9_" d="M-50.3,310H1.1V20h-51.4V310 M45.1,310h102.7V20H45.1V310 M191.9,310h102.7V20H191.9V310 M338.7,310h102.7
				V20H338.7V310 M485.4,310h102.7V20H485.4V310 M632.2,310h102.7V20H632.2V310 M779,310h51.4V20H779V310"/>
		</defs>
		<clipPath id="SVGID_10_">
			<use xlink:href="#SVGID_9_"  style="overflow:visible;"/>
		</clipPath>
		<path id="stream0treemap" shape-rendering="geometricPrecision" class="st4" d="M96.5,144.3H23.1v41.4h73.4h73.4h73.4h73.4v41.4
			H390h73.4h73.4h73.4h73.4H757V102.9h-73.4h-73.4h-73.4h-73.4H390h-73.4v41.4h-73.4h-73.4H96.5"/>
	</g>
	<g>
		<defs>
			<path id="SVGID_11_" d="M-50.3,310H1.1V20h-51.4V310 M45.1,310h102.7V20H45.1V310 M191.9,310h102.7V20H191.9V310 M346,310h88.1
				V20H346V310 M492.8,310h88.1V20h-88.1V310 M639.5,310h88.1V20h-88.1V310 M786.3,310h44V20h-44V310"/>
		</defs>
		<clipPath id="SVGID_12_">
			<use xlink:href="#SVGID_11_"  style="overflow:visible;"/>
		</clipPath>
		<path id="stream25treemap" shape-rendering="geometricPrecision" class="st5" d="M96.5,92.5H23.1v41.4h73.4h73.4h73.4h73.4v72.5
			H390h73.4v-48.3h73.4h73.4v48.3h73.4H757v-82.9h-73.4h-73.4v-6.9h-73.4h-73.4v6.9H390h-73.4V92.5h-73.4h-73.4H96.5"/>
	</g>
	<g>
		<defs>
			<path id="SVGID_13_" d="M-50.3,310H1.1V20h-51.4V310 M45.1,310h102.7V20H45.1V310 M191.9,310h102.7V20H191.9V310 M353.3,310h73.4
				V20h-73.4V310 M492.8,310h88.1V20h-88.1V310 M646.9,310h73.4V20h-73.4V310 M793.7,310h36.7V20h-36.7V310"/>
		</defs>
		<clipPath id="SVGID_14_">
			<use xlink:href="#SVGID_13_"  style="overflow:visible;"/>
		</clipPath>
		<path id="stream15treemap" shape-rendering="geometricPrecision" class="st6" d="M96.5,196.1H23.1v41.4h73.4h73.4h73.4h73.4v-51.8
			H390h73.4v27.6h73.4h73.4v-27.6h73.4H757v-41.4h-73.4h-73.4v27.6h-73.4h-73.4v-27.6H390h-73.4v51.8h-73.4h-73.4H96.5"/>
	</g>
</g>
<g transform="translate(-8.486094172908224,-2.689490476059518) scale(1.0083524548945948)">
</g>
<text transform="matrix(1 0 0 1 33.6765 344.8577)" class="st7 st8">January</text>
<text transform="matrix(1 0 0 1 189.0766 344.8578)" class="st7 st8">February</text>
<text transform="matrix(1 0 0 1 347.7998 344.8577)" class="st7 st8">March</text>
<text transform="matrix(1 0 0 1 508.9028 344.8581)" class="st7 st8">April</text>
<text transform="matrix(1 0 0 1 662.1225 344.8578)" class="st7 st8">May</text>
</svg>
