<?xml version="1.0" encoding="utf-8"?>
<!-- Generator: Adobe Illustrator 20.0.0, SVG Export Plug-In . SVG Version: 6.00 Build 0)  -->
<svg version="1.1" id="Layer_1" xmlns="http://www.w3.org/2000/svg" xmlns:xlink="http://www.w3.org/1999/xlink" x="0px" y="0px"
	 viewBox="0 0 658 298" style="enable-background:new 0 0 658 298;" xml:space="preserve">
<style type="text/css">
	.st0{clip-path:url(#SVGID_2_);fill:#08306B;}
	.st1{clip-path:url(#SVGID_4_);fill:#3787C0;}
	.st2{clip-path:url(#SVGID_6_);fill:#ABCFE6;}
	.st3{clip-path:url(#SVGID_8_);fill:#F7FBFF;}
	.st4{font-family:'ArialMT';}
	.st5{font-size:25px;}
</style>
<g>
	<g>
		<defs>
			<path id="SVGID_1_" d="M-588.5,249h611V20h-611V249 M22.5,249h611V20h-611V249 M633.5,249h611V20h-611V249"/>
		</defs>
		<clipPath id="SVGID_2_">
			<use xlink:href="#SVGID_1_"  style="overflow:visible;"/>
		</clipPath>
		<path id="streamfakeRootsecstream" shape-rendering="geometricPrecision" class="st0" d="M93.4,20H23v229h70.4h70.4
			c164.4,0,164.4-28.6,328.7-28.6h70.4h70.4V48.6h-70.4h-70.4C328.2,48.6,328.2,20,163.9,20H93.4"/>
	</g>
	<g>
		<defs>
			<path id="SVGID_3_" d="M-588.5,249H4.2V20h-592.7V249 M40.8,249h574.3V20H40.8V249 M651.8,249h592.7V20H651.8V249"/>
		</defs>
		<clipPath id="SVGID_4_">
			<use xlink:href="#SVGID_3_"  style="overflow:visible;"/>
		</clipPath>
		<path id="stream4secstream" shape-rendering="geometricPrecision" class="st1" d="M97.3,48.6H27.4v171.8h69.9h69.9
			c163.2,0,163.2-28.6,326.4-28.6h69.9h69.9V77.2h-69.9h-69.9c-163.2,0-163.2-28.6-326.4-28.6H97.3"/>
	</g>
	<g>
		<defs>
			<path id="SVGID_5_" d="M-588.5,249h574.3V20h-574.3V249 M59.2,249h537.7V20H59.2V249 M670.2,249h574.3V20H670.2V249"/>
		</defs>
		<clipPath id="SVGID_6_">
			<use xlink:href="#SVGID_5_"  style="overflow:visible;"/>
		</clipPath>
		<path id="stream2secstream" shape-rendering="geometricPrecision" class="st2" d="M90.9,77.2H22.5v114.5h68.4h68.4
			c159.6,0,159.6-28.6,319.1-28.6h68.4h68.4v-57.2h-68.4h-68.4c-159.6,0-159.6-28.6-319.1-28.6H90.9"/>
	</g>
	<g>
		<defs>
			<path id="SVGID_7_" d="M-588.5,249h556V20h-556V249 M77.5,249h556V20h-556V249"/>
		</defs>
		<clipPath id="SVGID_8_">
			<use xlink:href="#SVGID_7_"  style="overflow:visible;"/>
		</clipPath>
		<path id="stream0secstream" shape-rendering="geometricPrecision" class="st3" d="M88.2,105.9H23v57.2h65.2h65.2
			c129.4,0,129.4-57.2,0-57.2H88.2"/>
	</g>
</g>
<text transform="matrix(1 0 0 1 28.1245 283.4734)" class="st4 st5">January</text>
<text transform="matrix(1 0 0 1 520.1245 279.0195)" class="st4 st5">February</text>
</svg>
