<?xml version="1.0" encoding="utf-8"?>
<!-- Generator: Adobe Illustrator 20.0.0, SVG Export Plug-In . SVG Version: 6.00 Build 0)  -->
<svg version="1.1" id="Layer_1" xmlns="http://www.w3.org/2000/svg" xmlns:xlink="http://www.w3.org/1999/xlink" x="0px" y="0px"
	 viewBox="0 0 836 348" style="enable-background:new 0 0 836 348;" xml:space="preserve">
<style type="text/css">
	.st0{clip-path:url(#SVGID_2_);fill:#08306B;}
	.st1{clip-path:url(#SVGID_4_);fill:#6DAED5;}
	.st2{clip-path:url(#SVGID_6_);fill:#6DAED5;}
	.st3{clip-path:url(#SVGID_8_);fill:#F7FBFF;}
	.st4{clip-path:url(#SVGID_10_);fill:#F7FBFF;}
	.st5{clip-path:url(#SVGID_12_);fill:#F7FBFF;}
	.st6{font-family:'ArialMT';}
	.st7{font-size:22px;}
	.st8{font-size:25px;}
</style>
<g>
	<g>
		<defs>
			<path id="SVGID_1_" d="M-179,281H20V20h-199V281 M20,281h199V20H20V281 M219,281h199V20H219V281 M418,281h199V20H418V281
				 M617,281h199V20H617V281 M816,281h199V20H816V281"/>
		</defs>
		<clipPath id="SVGID_2_">
			<use xlink:href="#SVGID_1_"  style="overflow:visible;"/>
		</clipPath>
		<path id="streamfakeRootsecstream" shape-rendering="geometricPrecision" class="st0" d="M20,20v261c99.5,0,99.5,0,199,0
			s99.5,0,199,0s99.5,0,199,0s99.5-52.2,199-52.2V72.2c-99.5,0-99.5-52.2-199-52.2s-99.5,0-199,0s-99.5,0-199,0S119.5,20,20,20"/>
	</g>
	<g>
		<defs>
			<path id="SVGID_3_" d="M-179,281H14V20h-193V281 M26,281H213V20H26V281 M225,281H412V20H225V281 M424,281H611V20H424V281
				 M623,281H810V20H623V281 M822,281h193V20H822V281"/>
		</defs>
		<clipPath id="SVGID_4_">
			<use xlink:href="#SVGID_3_"  style="overflow:visible;"/>
		</clipPath>
		<path id="stream10secstream" shape-rendering="geometricPrecision" class="st1" d="M20,159.2v104.4c99.5,0,99.5,0,199,0
			s99.5,0,199,0s99.5,0,199,0s99.5-52.2,199-52.2v-52.2c-99.5,0-99.5,52.2-199,52.2s-99.5,0-199,0s-99.5,0-199,0
			S119.5,159.2,20,159.2"/>
	</g>
	<g>
		<defs>
			<path id="SVGID_5_" d="M-179,281H14V20h-193V281 M26,281H213V20H26V281 M225,281H412V20H225V281 M424,281H611V20H424V281
				 M623,281H810V20H623V281 M822,281h193V20H822V281"/>
		</defs>
		<clipPath id="SVGID_6_">
			<use xlink:href="#SVGID_5_"  style="overflow:visible;"/>
		</clipPath>
		<path id="stream15secstream" shape-rendering="geometricPrecision" class="st2" d="M20,37.4v104.4c99.5,0,99.5,52.2,199,52.2
			s99.5,0,199,0s99.5,0,199,0s99.5-52.2,199-52.2V89.6c-99.5,0-99.5-52.2-199-52.2s-99.5,0-199,0s-99.5,0-199,0S119.5,37.4,20,37.4"
			/>
	</g>
	<g>
		<defs>
			<path id="SVGID_7_" d="M-179,281H8.1V20H-179V281 M31.9,281H219V20H31.9V281"/>
		</defs>
		<clipPath id="SVGID_8_">
			<use xlink:href="#SVGID_7_"  style="overflow:visible;"/>
		</clipPath>
		<path id="stream5secstream" shape-rendering="geometricPrecision" class="st3" d="M20,185.3v52.2C95.6,237.5,95.6,185.3,20,185.3"
			/>
	</g>
	<g>
		<defs>
			<path id="SVGID_9_" d="M-179,281H8.1V20H-179V281 M31.9,281h175.1V20H31.9V281 M230.9,281h175.1V20H230.9V281 M429.9,281h175.1
				V20H429.9V281 M628.9,281H816V20H628.9V281"/>
		</defs>
		<clipPath id="SVGID_10_">
			<use xlink:href="#SVGID_9_"  style="overflow:visible;"/>
		</clipPath>
		<path id="stream20secstream" shape-rendering="geometricPrecision" class="st4" d="M20,63.5v52.2c99.5,0,99.5,60.9,199,60.9
			s99.5,0,199,0s99.5,0,199,0c75.6,0,75.6-52.2,0-52.2c-99.5,0-99.5,0-199,0s-99.5,0-199,0S119.5,63.5,20,63.5"/>
	</g>
	<g>
		<defs>
			<path id="SVGID_11_" d="M-179,281h386.1V20H-179V281 M230.9,281h175.1V20H230.9V281 M429.9,281h175.1V20H429.9V281 M628.9,281
				H816V20H628.9V281"/>
		</defs>
		<clipPath id="SVGID_12_">
			<use xlink:href="#SVGID_11_"  style="overflow:visible;"/>
		</clipPath>
		<path id="stream26secstream" shape-rendering="geometricPrecision" class="st5" d="M219,54.8c-75.6,0-75.6,52.2,0,52.2
			c99.5,0,99.5,0,199,0s99.5,0,199,0c75.6,0,75.6-52.2,0-52.2c-99.5,0-99.5,0-199,0S318.5,54.8,219,54.8"/>
	</g>
</g>
<text transform="matrix(1 0 0 1 31.9399 321.3665)" class="st6 st7">January-February</text>
<text transform="matrix(1 0 0 1 236.5931 321.3669)" class="st6 st7">February-March</text>
<text transform="matrix(1 0 0 1 447.8936 321.3682)" class="st6 st8">March-April</text>
<text transform="matrix(1 0 0 1 665.9402 321.3687)" class="st6 st8">April-May</text>
</svg>
