<?xml version="1.0" encoding="utf-8"?>
<!-- Generator: Adobe Illustrator 20.0.0, SVG Export Plug-In . SVG Version: 6.00 Build 0)  -->
<svg version="1.1" id="Layer_1" xmlns="http://www.w3.org/2000/svg" xmlns:xlink="http://www.w3.org/1999/xlink" x="0px" y="0px"
	 viewBox="0 0 588.3 336" style="enable-background:new 0 0 588.3 336;" xml:space="preserve">
<style type="text/css">
	.st0{clip-path:url(#SVGID_2_);fill:#08306B;}
	.st1{clip-path:url(#SVGID_4_);fill:#2271B4;}
	.st2{clip-path:url(#SVGID_6_);fill:#2271B4;}
	.st3{clip-path:url(#SVGID_8_);fill:#2271B4;}
	.st4{clip-path:url(#SVGID_10_);fill:#6DAED5;}
	.st5{clip-path:url(#SVGID_12_);fill:#6DAED5;}
	.st6{clip-path:url(#SVGID_14_);fill:#6DAED5;}
	.st7{clip-path:url(#SVGID_16_);fill:#6DAED5;}
	.st8{clip-path:url(#SVGID_18_);fill:#C3DBEE;}
	.st9{clip-path:url(#SVGID_20_);fill:#C3DBEE;}
	.st10{clip-path:url(#SVGID_22_);fill:#C3DBEE;}
	.st11{clip-path:url(#SVGID_24_);fill:#C3DBEE;}
	.st12{clip-path:url(#SVGID_26_);fill:#F7FBFF;}
	.st13{font-family:'ArialMT';}
	.st14{font-size:25px;}
</style>
<g>
	<g>
		<defs>
			<path id="SVGID_1_" d="M-538.3,286.9h555v-274h-555V286.9 M16.6,286.9h555v-274h-555V286.9 M571.7,286.9h555v-274h-555V286.9"/>
		</defs>
		<clipPath id="SVGID_2_">
			<use xlink:href="#SVGID_1_"  style="overflow:visible;"/>
		</clipPath>
		<path id="streamfakeRootsecstream" shape-rendering="geometricPrecision" class="st0" d="M16.6,23.4v252.9
			c277.5,0,277.5,10.5,555,10.5v-274C294.1,12.9,294.1,23.4,16.6,23.4"/>
	</g>
	<g>
		<defs>
			<path id="SVGID_3_" d="M-538.3,286.9H0v-274h-538.3V286.9 M33.3,286.9H555v-274H33.3V286.9 M588.3,286.9h538.3v-274H588.3V286.9"
				/>
		</defs>
		<clipPath id="SVGID_4_">
			<use xlink:href="#SVGID_3_"  style="overflow:visible;"/>
		</clipPath>
		<path id="stream6secstream" shape-rendering="geometricPrecision" class="st1" d="M16.6,81.4v189.7c277.5,0,277.5,10.5,555,10.5
			V70.9C294.1,70.9,294.1,81.4,16.6,81.4"/>
	</g>
	<g>
		<defs>
			<path id="SVGID_5_" d="M-538.3,286.9H0v-274h-538.3V286.9 M33.3,286.9H555v-274H33.3V286.9 M588.3,286.9h538.3v-274H588.3V286.9"
				/>
		</defs>
		<clipPath id="SVGID_6_">
			<use xlink:href="#SVGID_5_"  style="overflow:visible;"/>
		</clipPath>
		<path id="stream10secstream" shape-rendering="geometricPrecision" class="st2" d="M16.6,55.1v21.1c277.5,0,277.5-10.5,555-10.5
			V44.5C294.1,44.5,294.1,55.1,16.6,55.1"/>
	</g>
	<g>
		<defs>
			<path id="SVGID_7_" d="M-538.3,286.9H0v-274h-538.3V286.9 M33.3,286.9H555v-274H33.3V286.9 M588.3,286.9h538.3v-274H588.3V286.9"
				/>
		</defs>
		<clipPath id="SVGID_8_">
			<use xlink:href="#SVGID_7_"  style="overflow:visible;"/>
		</clipPath>
		<path id="stream16secstream" shape-rendering="geometricPrecision" class="st3" d="M16.6,28.7v21.1c277.5,0,277.5-10.5,555-10.5
			V18.2C294.1,18.2,294.1,28.7,16.6,28.7"/>
	</g>
	<g>
		<defs>
			<path id="SVGID_9_" d="M-538.3,286.9h521.7v-274h-521.7V286.9 M50,286.9h488.4v-274H50V286.9 M605,286.9h521.7v-274H605V286.9"/>
		</defs>
		<clipPath id="SVGID_10_">
			<use xlink:href="#SVGID_9_"  style="overflow:visible;"/>
		</clipPath>
		<path id="stream20secstream" shape-rendering="geometricPrecision" class="st4" d="M16.6,224.7v42.2c277.5,0,277.5,10.5,555,10.5
			v-42.2C294.1,235.3,294.1,224.7,16.6,224.7"/>
	</g>
	<g>
		<defs>
			<path id="SVGID_11_" d="M-538.3,286.9h521.7v-274h-521.7V286.9 M50,286.9h488.4v-274H50V286.9 M605,286.9h521.7v-274H605V286.9"
				/>
		</defs>
		<clipPath id="SVGID_12_">
			<use xlink:href="#SVGID_11_"  style="overflow:visible;"/>
		</clipPath>
		<path id="stream12secstream" shape-rendering="geometricPrecision" class="st5" d="M16.6,157.3v63.2c277.5,0,277.5,10.5,555,10.5
			v-42.2C294.1,188.9,294.1,157.3,16.6,157.3"/>
	</g>
	<g>
		<defs>
			<path id="SVGID_13_" d="M-538.3,286.9h521.7v-274h-521.7V286.9 M50,286.9h488.4v-274H50V286.9 M605,286.9h521.7v-274H605V286.9"
				/>
		</defs>
		<clipPath id="SVGID_14_">
			<use xlink:href="#SVGID_13_"  style="overflow:visible;"/>
		</clipPath>
		<path id="stream0secstream" shape-rendering="geometricPrecision" class="st6" d="M16.6,132v21.1c277.5,0,277.5,31.6,555,31.6
			v-21.1C294.1,163.6,294.1,132,16.6,132"/>
	</g>
	<g>
		<defs>
			<path id="SVGID_15_" d="M-538.3,286.9h521.7v-274h-521.7V286.9 M50,286.9h488.4v-274H50V286.9 M605,286.9h521.7v-274H605V286.9"
				/>
		</defs>
		<clipPath id="SVGID_16_">
			<use xlink:href="#SVGID_15_"  style="overflow:visible;"/>
		</clipPath>
		<path id="stream8secstream" shape-rendering="geometricPrecision" class="st7" d="M16.6,85.6v42.2c277.5,0,277.5,31.6,555,31.6
			V75.1C294.1,75.1,294.1,85.6,16.6,85.6"/>
	</g>
	<g>
		<defs>
			<path id="SVGID_17_" d="M-538.3,286.9h505v-274h-505V286.9 M66.6,286.9h455.1v-274H66.6V286.9 M621.6,286.9h505v-274h-505V286.9"
				/>
		</defs>
		<clipPath id="SVGID_18_">
			<use xlink:href="#SVGID_17_"  style="overflow:visible;"/>
		</clipPath>
		<path id="stream2secstream" shape-rendering="geometricPrecision" class="st8" d="M16.6,235.3v21.1c277.5,0,277.5,10.5,555,10.5
			v-21.1C294.1,245.8,294.1,235.3,16.6,235.3"/>
	</g>
	<g>
		<defs>
			<path id="SVGID_19_" d="M-538.3,286.9h505v-274h-505V286.9 M66.6,286.9h455.1v-274H66.6V286.9 M621.6,286.9h505v-274h-505V286.9"
				/>
		</defs>
		<clipPath id="SVGID_20_">
			<use xlink:href="#SVGID_19_"  style="overflow:visible;"/>
		</clipPath>
		<path id="stream4secstream" shape-rendering="geometricPrecision" class="st9" d="M16.6,164.3v21.1c277.5,0,277.5,35.1,555,35.1
			v-21.1C294.1,199.4,294.1,164.3,16.6,164.3"/>
	</g>
	<g>
		<defs>
			<path id="SVGID_21_" d="M-538.3,286.9h505v-274h-505V286.9 M66.6,286.9h455.1v-274H66.6V286.9 M621.6,286.9h505v-274h-505V286.9"
				/>
		</defs>
		<clipPath id="SVGID_22_">
			<use xlink:href="#SVGID_21_"  style="overflow:visible;"/>
		</clipPath>
		<path id="stream14secstream" shape-rendering="geometricPrecision" class="st10" d="M16.6,96.2v21.1c277.5,0,277.5,35.1,555,35.1
			v-42.2C294.1,110.2,294.1,96.2,16.6,96.2"/>
	</g>
	<g>
		<defs>
			<path id="SVGID_23_" d="M-538.3,286.9H521.7v-274H-538.3V286.9 M621.6,286.9h505v-274h-505V286.9"/>
		</defs>
		<clipPath id="SVGID_24_">
			<use xlink:href="#SVGID_23_"  style="overflow:visible;"/>
		</clipPath>
		<path id="stream23secstream" shape-rendering="geometricPrecision" class="st11" d="M571.7,82.1c-130.8,0-130.8,21.1,0,21.1V82.1"
			/>
	</g>
	<g>
		<defs>
			<path id="SVGID_25_" d="M-538.3,286.9h505v-274h-505V286.9 M66.6,286.9H505v-274H66.6V286.9 M638.2,286.9h488.4v-274H638.2V286.9
				"/>
		</defs>
		<clipPath id="SVGID_26_">
			<use xlink:href="#SVGID_25_"  style="overflow:visible;"/>
		</clipPath>
		<path id="stream18secstream" shape-rendering="geometricPrecision" class="st12" d="M16.6,192.4v21.1c277.5,0,277.5-71.7,555-71.7
			v-21.1C294.1,120.7,294.1,192.4,16.6,192.4"/>
	</g>
</g>
<text transform="matrix(1 0 0 1 44.5561 315.2132)" class="st13 st14">January</text>
<text transform="matrix(1 0 0 1 443.327 315.2135)" class="st13 st14">February</text>
</svg>
