<?xml version="1.0" encoding="utf-8"?>
<!-- Generator: Adobe Illustrator 20.0.0, SVG Export Plug-In . SVG Version: 6.00 Build 0)  -->
<svg version="1.1" id="Layer_1" xmlns="http://www.w3.org/2000/svg" xmlns:xlink="http://www.w3.org/1999/xlink" x="0px" y="0px"
	 viewBox="0 0 780 365" style="enable-background:new 0 0 780 365;" xml:space="preserve">
<style type="text/css">
	.st0{clip-path:url(#SVGID_2_);fill:#08306B;}
	.st1{clip-path:url(#SVGID_4_);fill:#1864AA;}
	.st2{clip-path:url(#SVGID_6_);fill:#1864AA;}
	.st3{clip-path:url(#SVGID_8_);fill:#4B97C9;}
	.st4{clip-path:url(#SVGID_10_);fill:#93C3DF;}
	.st5{clip-path:url(#SVGID_12_);fill:#CFE1F2;}
	.st6{clip-path:url(#SVGID_14_);fill:#F7FBFF;}
	.st7{font-family:'ArialMT';}
	.st8{font-size:25px;}
</style>
<g>
	<g>
		<defs>
			<path id="SVGID_1_" d="M-226.7,311H20V20h-246.7V311 M20,311h246.7V20H20V311 M266.7,311h246.7V20H266.7V311 M513.3,311H760V20
				H513.3V311 M760,311h246.7V20H760V311"/>
		</defs>
		<clipPath id="SVGID_2_">
			<use xlink:href="#SVGID_1_"  style="overflow:visible;"/>
		</clipPath>
		<path id="streamfakeRootsecstream" shape-rendering="geometricPrecision" class="st0" d="M20,20v291c123.3,0,123.3,0,246.7,0
			s123.3,0,246.7,0s123.3,0,246.7,0V20c-123.3,0-123.3,0-246.7,0S390,20,266.7,20S143.3,20,20,20"/>
	</g>
	<g>
		<defs>
			<path id="SVGID_3_" d="M-226.7,311H12.6V20h-239.3V311 M27.4,311h231.9V20H27.4V311 M274.1,311h231.9V20H274.1V311 M520.7,311
				h231.9V20H520.7V311 M767.4,311h239.3V20H767.4V311"/>
		</defs>
		<clipPath id="SVGID_4_">
			<use xlink:href="#SVGID_3_"  style="overflow:visible;"/>
		</clipPath>
		<path id="stream12secstream" shape-rendering="geometricPrecision" class="st1" d="M20,255.6v41.6c123.3,0,123.3,0,246.7,0
			s123.3,0,246.7,0s123.3,0,246.7,0v-41.6c-123.3,0-123.3,0-246.7,0s-123.3,0-246.7,0S143.3,255.6,20,255.6"/>
	</g>
	<g>
		<defs>
			<path id="SVGID_5_" d="M-226.7,311H12.6V20h-239.3V311 M27.4,311h231.9V20H27.4V311 M274.1,311h231.9V20H274.1V311 M520.7,311
				h231.9V20H520.7V311 M767.4,311h239.3V20H767.4V311"/>
		</defs>
		<clipPath id="SVGID_6_">
			<use xlink:href="#SVGID_5_"  style="overflow:visible;"/>
		</clipPath>
		<path id="stream16secstream" shape-rendering="geometricPrecision" class="st2" d="M20,33.9v207.9c123.3,0,123.3,0,246.7,0
			s123.3,0,246.7,0s123.3,0,246.7,0V33.9c-123.3,0-123.3,0-246.7,0s-123.3,0-246.7,0S143.3,33.9,20,33.9"/>
	</g>
	<g>
		<defs>
			<path id="SVGID_7_" d="M-226.7,311H5.2V20h-231.9V311 M34.8,311h217.1V20H34.8V311 M281.5,311h217.1V20H281.5V311 M528.1,311
				h217.1V20H528.1V311 M774.8,311h231.9V20H774.8V311"/>
		</defs>
		<clipPath id="SVGID_8_">
			<use xlink:href="#SVGID_7_"  style="overflow:visible;"/>
		</clipPath>
		<path id="stream0secstream" shape-rendering="geometricPrecision" class="st3" d="M20,96.2v83.1c123.3,0,123.3,48.5,246.7,48.5
			s123.3,0,246.7,0s123.3-6.9,246.7-6.9V54.6c-123.3,0-123.3,90.1-246.7,90.1s-123.3,0-246.7,0S143.3,96.2,20,96.2"/>
	</g>
	<g>
		<defs>
			<path id="SVGID_9_" d="M-226.7,311H5.2V20h-231.9V311 M34.8,311h217.1V20H34.8V311 M281.5,311h217.1V20H281.5V311 M528.1,311
				h209.7V20H528.1V311 M782.2,311h224.5V20H782.2V311"/>
		</defs>
		<clipPath id="SVGID_10_">
			<use xlink:href="#SVGID_9_"  style="overflow:visible;"/>
		</clipPath>
		<path id="stream20secstream" shape-rendering="geometricPrecision" class="st4" d="M20,44.2v41.6c123.3,0,123.3,45,246.7,45
			s123.3,0,246.7,0s123.3,69.3,246.7,69.3V75.4c-123.3,0-123.3-27.7-246.7-27.7s-123.3,0-246.7,0S143.3,44.2,20,44.2"/>
	</g>
	<g>
		<defs>
			<path id="SVGID_11_" d="M-226.7,311H5.2V20h-231.9V311 M34.8,311h209.7V20H34.8V311 M288.9,311h202.3V20H288.9V311 M535.5,311
				h194.9V20H535.5V311 M789.6,311h217.1V20H789.6V311"/>
		</defs>
		<clipPath id="SVGID_12_">
			<use xlink:href="#SVGID_11_"  style="overflow:visible;"/>
		</clipPath>
		<path id="stream8secstream" shape-rendering="geometricPrecision" class="st5" d="M20,189.8v41.6c123.3,0,123.3-121.2,246.7-121.2
			s123.3,0,246.7,0s123.3,69.3,246.7,69.3V96.2c-123.3,0-123.3-27.7-246.7-27.7s-123.3,0-246.7,0S143.3,189.8,20,189.8"/>
	</g>
	<g>
		<defs>
			<path id="SVGID_13_" d="M-226.7,311H-2.2V20h-224.5V311 M42.2,311h202.3V20H42.2V311 M288.9,311h202.3V20H288.9V311 M535.5,311
				H723V20H535.5V311 M797,311h209.7V20H797V311"/>
		</defs>
		<clipPath id="SVGID_14_">
			<use xlink:href="#SVGID_13_"  style="overflow:visible;"/>
		</clipPath>
		<path id="stream4secstream" shape-rendering="geometricPrecision" class="st6" d="M20,117v41.6c123.3,0,123.3,48.5,246.7,48.5
			s123.3,0,246.7,0s123.3-48.5,246.7-48.5V117c-123.3,0-123.3,48.5-246.7,48.5s-123.3,0-246.7,0S143.3,117,20,117"/>
	</g>
</g>
<text transform="matrix(1 0 0 1 42.2 350.7051)" class="st7 st8">January-February</text>
<text transform="matrix(1 0 0 1 305.0669 350.7051)" class="st7 st8">February-March</text>
<text transform="matrix(1 0 0 1 585.7336 350.7051)" class="st7 st8">March-April</text>
</svg>
