<?xml version="1.0" encoding="utf-8"?>
<!-- Generator: Adobe Illustrator 20.0.0, SVG Export Plug-In . SVG Version: 6.00 Build 0)  -->
<svg version="1.1" id="Layer_1" xmlns="http://www.w3.org/2000/svg" xmlns:xlink="http://www.w3.org/1999/xlink" x="0px" y="0px"
	 viewBox="0 0 762.2 347" style="enable-background:new 0 0 762.2 347;" xml:space="preserve">
<style type="text/css">
	.st0{clip-path:url(#SVGID_2_);fill:#08306B;}
	.st1{clip-path:url(#SVGID_4_);fill:#2271B4;}
	.st2{clip-path:url(#SVGID_6_);fill:#2271B4;}
	.st3{clip-path:url(#SVGID_8_);fill:#2271B4;}
	.st4{clip-path:url(#SVGID_10_);fill:#6DAED5;}
	.st5{clip-path:url(#SVGID_12_);fill:#C3DBEE;}
	.st6{clip-path:url(#SVGID_14_);fill:#F7FBFF;}
	.st7{font-family:'ArialMT';}
	.st8{font-size:22px;}
	.st9{font-size:25px;}
</style>
<g>
	<g>
		<defs>
			<path id="SVGID_1_" d="M-173.9,310h185V20h-185V310 M11.1,310h185V20h-185V310 M196.1,310h185V20h-185V310 M381.1,310h185V20
				h-185V310 M566.1,310h185V20h-185V310 M751.1,310h185V20h-185V310"/>
		</defs>
		<clipPath id="SVGID_2_">
			<use xlink:href="#SVGID_1_"  style="overflow:visible;"/>
		</clipPath>
		<path id="streamfakeRootsecstream" shape-rendering="geometricPrecision" class="st0" d="M11.1,20v290c92.5,0,92.5,0,185,0
			s92.5,0,185,0s92.5,0,185,0s92.5,0,185,0V20c-92.5,0-92.5,0-185,0s-92.5,0-185,0s-92.5,0-185,0S103.6,20,11.1,20"/>
	</g>
	<g>
		<defs>
			<path id="SVGID_3_" d="M-173.9,310H5.6V20h-179.4V310 M16.6,310h173.9V20H16.6V310 M201.7,310h173.9V20H201.7V310 M386.6,310
				h173.9V20H386.6V310 M571.7,310h173.9V20H571.7V310 M756.7,310h179.4V20H756.7V310"/>
		</defs>
		<clipPath id="SVGID_4_">
			<use xlink:href="#SVGID_3_"  style="overflow:visible;"/>
		</clipPath>
		<path id="stream5secstream" shape-rendering="geometricPrecision" class="st1" d="M11.1,258.2v41.4c92.5,0,92.5,0,185,0
			s92.5,0,185,0s92.5,0,185,0s92.5,0,185,0v-41.4c-92.5,0-92.5,0-185,0s-92.5,0-185,0s-92.5,0-185,0S103.6,258.2,11.1,258.2"/>
	</g>
	<g>
		<defs>
			<path id="SVGID_5_" d="M-173.9,310H5.6V20h-179.4V310 M16.6,310h173.9V20H16.6V310 M201.7,310h173.9V20H201.7V310 M386.6,310
				h173.9V20H386.6V310 M571.7,310h173.9V20H571.7V310 M756.7,310h179.4V20H756.7V310"/>
		</defs>
		<clipPath id="SVGID_6_">
			<use xlink:href="#SVGID_5_"  style="overflow:visible;"/>
		</clipPath>
		<path id="stream10secstream" shape-rendering="geometricPrecision" class="st2" d="M11.1,82.1v165.7c92.5,0,92.5,0,185,0
			s92.5,0,185,0s92.5,0,185,0s92.5,0,185,0V82.1c-92.5,0-92.5,0-185,0s-92.5,0-185,0s-92.5,0-185,0S103.6,82.1,11.1,82.1"/>
	</g>
	<g>
		<defs>
			<path id="SVGID_7_" d="M-173.9,310H5.6V20h-179.4V310 M16.6,310h173.9V20H16.6V310 M201.7,310h173.9V20H201.7V310 M386.6,310
				h173.9V20H386.6V310 M571.7,310h173.9V20H571.7V310 M756.7,310h179.4V20H756.7V310"/>
		</defs>
		<clipPath id="SVGID_8_">
			<use xlink:href="#SVGID_7_"  style="overflow:visible;"/>
		</clipPath>
		<path id="stream20secstream" shape-rendering="geometricPrecision" class="st3" d="M11.1,30.4v41.4c92.5,0,92.5,0,185,0
			s92.5,0,185,0s92.5,0,185,0s92.5,0,185,0V30.4c-92.5,0-92.5,0-185,0s-92.5,0-185,0s-92.5,0-185,0S103.6,30.4,11.1,30.4"/>
	</g>
	<g>
		<defs>
			<path id="SVGID_9_" d="M-173.9,310H0V20h-173.9V310 M22.2,310H185V20H22.2V310 M207.2,310H370V20H207.2V310 M392.2,310H555V20
				H392.2V310 M577.2,310H740V20H577.2V310 M762.2,310h173.9V20H762.2V310"/>
		</defs>
		<clipPath id="SVGID_10_">
			<use xlink:href="#SVGID_9_"  style="overflow:visible;"/>
		</clipPath>
		<path id="stream0secstream" shape-rendering="geometricPrecision" class="st4" d="M11.1,144.3v41.4c92.5,0,92.5,0,185,0
			s92.5,41.4,185,41.4s92.5,0,185,0s92.5,0,185,0V102.9c-92.5,0-92.5,0-185,0s-92.5,0-185,0s-92.5,41.4-185,41.4
			S103.6,144.3,11.1,144.3"/>
	</g>
	<g>
		<defs>
			<path id="SVGID_11_" d="M-173.9,310H0V20h-173.9V310 M22.2,310H185V20H22.2V310 M207.2,310h157.3V20H207.2V310 M397.8,310h151.7
				V20H397.8V310 M582.8,310h151.7V20H582.8V310 M767.8,310h168.3V20H767.8V310"/>
		</defs>
		<clipPath id="SVGID_12_">
			<use xlink:href="#SVGID_11_"  style="overflow:visible;"/>
		</clipPath>
		<path id="stream25secstream" shape-rendering="geometricPrecision" class="st5" d="M11.1,92.5v41.4c92.5,0,92.5,0,185,0
			s92.5,72.5,185,72.5s92.5-48.3,185-48.3s92.5,48.3,185,48.3v-82.9c-92.5,0-92.5-6.9-185-6.9s-92.5,6.9-185,6.9
			s-92.5-31.1-185-31.1S103.6,92.5,11.1,92.5"/>
	</g>
	<g>
		<defs>
			<path id="SVGID_13_" d="M-173.9,310H0V20h-173.9V310 M22.2,310H185V20H22.2V310 M207.2,310h151.7V20H207.2V310 M403.3,310h146.1
				V20H403.3V310 M582.8,310h146.1V20H582.8V310 M773.3,310h162.8V20H773.3V310"/>
		</defs>
		<clipPath id="SVGID_14_">
			<use xlink:href="#SVGID_13_"  style="overflow:visible;"/>
		</clipPath>
		<path id="stream15secstream" shape-rendering="geometricPrecision" class="st6" d="M11.1,196.1v41.4c92.5,0,92.5,0,185,0
			s92.5-51.8,185-51.8s92.5,27.6,185,27.6s92.5-27.6,185-27.6v-41.4c-92.5,0-92.5,27.6-185,27.6s-92.5-27.6-185-27.6
			s-92.5,51.8-185,51.8S103.6,196.1,11.1,196.1"/>
	</g>
</g>
<text transform="matrix(1 0 0 1 16.6498 340.3667)" class="st7 st8">January-February</text>
<text transform="matrix(1 0 0 1 212.7498 340.3669)" class="st7 st8">February-March</text>
<text transform="matrix(1 0 0 1 417.0503 340.3676)" class="st7 st9">March-April</text>
<text transform="matrix(1 0 0 1 605.097 340.3677)" class="st7 st9">April-May</text>
</svg>
