<?xml version="1.0" encoding="utf-8"?>
<!-- Generator: Adobe Illustrator 20.0.0, SVG Export Plug-In . SVG Version: 6.00 Build 0)  -->
<svg version="1.1" id="Layer_1" xmlns="http://www.w3.org/2000/svg" xmlns:xlink="http://www.w3.org/1999/xlink" x="0px" y="0px"
	 viewBox="0 0 780 382" style="enable-background:new 0 0 780 382;" xml:space="preserve">
<style type="text/css">
	.st0{clip-path:url(#SVGID_2_);fill:#08306B;}
	.st1{clip-path:url(#SVGID_4_);fill:#2271B4;}
	.st2{clip-path:url(#SVGID_6_);fill:#2271B4;}
	.st3{clip-path:url(#SVGID_8_);fill:#6DAED5;}
	.st4{clip-path:url(#SVGID_10_);fill:#6DAED5;}
	.st5{clip-path:url(#SVGID_12_);fill:#C3DBEE;}
	.st6{clip-path:url(#SVGID_14_);fill:#C3DBEE;}
	.st7{clip-path:url(#SVGID_16_);fill:#C3DBEE;}
	.st8{clip-path:url(#SVGID_18_);fill:#F7FBFF;}
	.st9{font-family:'ArialMT';}
	.st10{font-size:25px;}
</style>
<g>
	<g>
		<defs>
			<path id="SVGID_1_" d="M-350,327H20V20h-370V327 M20,327h370V20H20V327 M390,327h370V20H390V327 M760,327h370V20H760V327"/>
		</defs>
		<clipPath id="SVGID_2_">
			<use xlink:href="#SVGID_1_"  style="overflow:visible;"/>
		</clipPath>
		<path id="streamfakeRootsecstream" shape-rendering="geometricPrecision" class="st0" d="M20,46.1v254.7c185,0,185,26.1,370,26.1
			s185-17.4,370-17.4V37.4C575,37.4,575,20,390,20S205,46.1,20,46.1"/>
	</g>
	<g>
		<defs>
			<path id="SVGID_3_" d="M-350,327H8.9V20H-350V327 M31.1,327h347.8V20H31.1V327 M401.1,327h347.8V20H401.1V327 M771.1,327H1130V20
				H771.1V327"/>
		</defs>
		<clipPath id="SVGID_4_">
			<use xlink:href="#SVGID_3_"  style="overflow:visible;"/>
		</clipPath>
		<path id="stream3secstream" shape-rendering="geometricPrecision" class="st1" d="M20,276.8v5.8c185,0,185,26.1,370,26.1
			s185-17.4,370-17.4v-10.9c-185,0-185-19-370-19S205,276.8,20,276.8"/>
	</g>
	<g>
		<defs>
			<path id="SVGID_5_" d="M-350,327H8.9V20H-350V327 M31.1,327h347.8V20H31.1V327 M401.1,327h347.8V20H401.1V327 M771.1,327H1130V20
				H771.1V327"/>
		</defs>
		<clipPath id="SVGID_6_">
			<use xlink:href="#SVGID_5_"  style="overflow:visible;"/>
		</clipPath>
		<path id="stream21secstream" shape-rendering="geometricPrecision" class="st2" d="M20,64.4v194.1c185,0,185-15.3,370-15.3
			s185,19,370,19V55.7c-185,0-185-17.4-370-17.4S205,64.4,20,64.4"/>
	</g>
	<g>
		<defs>
			<path id="SVGID_7_" d="M-350,327H-2.2V20H-350V327 M42.2,327h325.6V20H42.2V327 M412.2,327h325.6V20H412.2V327 M782.2,327H1130
				V20H782.2V327"/>
		</defs>
		<clipPath id="SVGID_8_">
			<use xlink:href="#SVGID_7_"  style="overflow:visible;"/>
		</clipPath>
		<path id="stream9secstream" shape-rendering="geometricPrecision" class="st3" d="M20,174.7v66.6c185,0,185-16.3,370-16.3
			s185,29.8,370,29.8v-87.2c-185,0-185-46.8-370-46.8S205,174.7,20,174.7"/>
	</g>
	<g>
		<defs>
			<path id="SVGID_9_" d="M-350,327H-2.2V20H-350V327 M42.2,327h325.6V20H42.2V327 M412.2,327h325.6V20H412.2V327 M782.2,327H1130
				V20H782.2V327"/>
		</defs>
		<clipPath id="SVGID_10_">
			<use xlink:href="#SVGID_9_"  style="overflow:visible;"/>
		</clipPath>
		<path id="stream24secstream" shape-rendering="geometricPrecision" class="st4" d="M20,81.7v75.7c185,0,185-54.9,370-54.9
			s185,57.6,370,57.6v-97c-185,0-185-6.6-370-6.6S205,81.7,20,81.7"/>
	</g>
	<g>
		<defs>
			<path id="SVGID_11_" d="M-350,327h336.7V20H-350V327 M53.3,327h303.4V20H53.3V327 M423.3,327h303.4V20H423.3V327 M793.3,327H1130
				V20H793.3V327"/>
		</defs>
		<clipPath id="SVGID_12_">
			<use xlink:href="#SVGID_11_"  style="overflow:visible;"/>
		</clipPath>
		<path id="stream15secstream" shape-rendering="geometricPrecision" class="st5" d="M20,195.3v25.3c185,0,185-9.2,370-9.2
			s185,40.5,370,40.5v-25.5c-185,0-185-92.1-370-92.1S205,195.3,20,195.3"/>
	</g>
	<g>
		<defs>
			<path id="SVGID_13_" d="M-350,327h336.7V20H-350V327 M53.3,327h303.4V20H53.3V327 M423.3,327h303.4V20H423.3V327 M793.3,327H1130
				V20H793.3V327"/>
		</defs>
		<clipPath id="SVGID_14_">
			<use xlink:href="#SVGID_13_"  style="overflow:visible;"/>
		</clipPath>
		<path id="stream6secstream" shape-rendering="geometricPrecision" class="st6" d="M20,95.8v47.4c185,0,185-59,370-59
			s185,50,370,50V88.9c-185,0-185-14.2-370-14.2S205,95.8,20,95.8"/>
	</g>
	<g>
		<defs>
			<path id="SVGID_15_" d="M-350,327H726.7V20H-350V327 M793.3,327H1130V20H793.3V327"/>
		</defs>
		<clipPath id="SVGID_16_">
			<use xlink:href="#SVGID_15_"  style="overflow:visible;"/>
		</clipPath>
		<path id="stream20secstream" shape-rendering="geometricPrecision" class="st7" d="M760,170.4c-131,0-131,53.2,0,53.2V170.4"/>
	</g>
	<g>
		<defs>
			<path id="SVGID_17_" d="M-350,327h325.6V20H-350V327 M64.4,327h281.2V20H64.4V327 M434.4,327H760V20H434.4V327"/>
		</defs>
		<clipPath id="SVGID_18_">
			<use xlink:href="#SVGID_17_"  style="overflow:visible;"/>
		</clipPath>
		<path id="stream0secstream" shape-rendering="geometricPrecision" class="st8" d="M20,196.7v22.5c185,0,185-28.7,370-28.7
			c106.7,0,106.7-35.4,0-35.4C205,155.2,205,196.7,20,196.7"/>
	</g>
</g>
<text transform="matrix(1 0 0 1 109.1243 360.4734)" class="st9 st10">January-February</text>
<text transform="matrix(1 0 0 1 502.1602 360.4731)" class="st9 st10">February-March</text>
</svg>
