<?xml version="1.0" encoding="utf-8"?>
<!-- Generator: Adobe Illustrator 20.0.0, SVG Export Plug-In . SVG Version: 6.00 Build 0)  -->
<svg version="1.1" id="Layer_1" xmlns="http://www.w3.org/2000/svg" xmlns:xlink="http://www.w3.org/1999/xlink" x="0px" y="0px"
	 viewBox="0 0 773.3 356" style="enable-background:new 0 0 773.3 356;" xml:space="preserve">
<style type="text/css">
	.st0{clip-path:url(#SVGID_2_);fill:#08306B;}
	.st1{clip-path:url(#SVGID_4_);fill:#2271B4;}
	.st2{clip-path:url(#SVGID_6_);fill:#6DAED5;}
	.st3{clip-path:url(#SVGID_8_);fill:#6DAED5;}
	.st4{clip-path:url(#SVGID_10_);fill:#6DAED5;}
	.st5{clip-path:url(#SVGID_12_);fill:#6DAED5;}
	.st6{clip-path:url(#SVGID_14_);fill:#C3DBEE;}
	.st7{clip-path:url(#SVGID_16_);fill:#F7FBFF;}
	.st8{fill:#F41111;}
	.st9{font-family:'ArialMT';}
	.st10{font-size:25px;}
</style>
<g>
	<g>
		<g>
			<g>
				<defs>
					<path id="SVGID_1_" d="M-358.9,310h370V20h-370V310 M11.1,310h370V20h-370L11.1,310 M381.1,310h370V20h-370L381.1,310
						 M751.1,310h370V20h-370V310"/>
				</defs>
				<clipPath id="SVGID_2_">
					<use xlink:href="#SVGID_1_"  style="overflow:visible;"/>
				</clipPath>
				<path id="streamfakeRootsecstream" shape-rendering="geometricPrecision" class="st0" d="M11.1,38.1v253.8
					c185,0,185,18.1,370,18.1s185,0,370,0V20c-185,0-185,0-370,0S196.1,38.1,11.1,38.1"/>
			</g>
		</g>
	</g>
	<g>
		<g>
			<g>
				<defs>
					<path id="SVGID_3_" d="M-358.9,310H0V20h-358.9V310 M22.2,310H370V20H22.2V310 M392.2,310H740V20H392.2V310 M762.2,310h358.9
						V20H762.2V310"/>
				</defs>
				<clipPath id="SVGID_4_">
					<use xlink:href="#SVGID_3_"  style="overflow:visible;"/>
				</clipPath>
				<path id="stream6secstream" shape-rendering="geometricPrecision" class="st1" d="M11.1,56.2v217.5c185,0,185,18.1,370,18.1
					s185,0,370,0V38.1c-185,0-185,0-370,0S196.1,56.2,11.1,56.2"/>
			</g>
		</g>
	</g>
	<g>
		<g>
			<g>
				<defs>
					<path id="SVGID_5_" d="M-358.9,310h347.8V20h-347.8V310 M33.3,310h325.6V20H33.3V310 M403.3,310h325.6V20H403.3V310 M773.3,310
						h347.8V20H773.3V310"/>
				</defs>
				<clipPath id="SVGID_6_">
					<use xlink:href="#SVGID_5_"  style="overflow:visible;"/>
				</clipPath>
				<path id="stream9secstream" shape-rendering="geometricPrecision" class="st2" d="M11.1,230.2v36.2c185,0,185,18.1,370,18.1
					s185,0,370,0v-36.2c-185,0-185,0-370,0S196.1,230.2,11.1,230.2"/>
			</g>
		</g>
	</g>
	<g>
		<g>
			<g>
				<defs>
					<path id="SVGID_7_" d="M-358.9,310h347.8V20h-347.8V310 M33.3,310h325.6V20H33.3V310 M403.3,310h325.6V20H403.3V310 M773.3,310
						h347.8V20H773.3V310"/>
				</defs>
				<clipPath id="SVGID_8_">
					<use xlink:href="#SVGID_7_"  style="overflow:visible;"/>
				</clipPath>
				<path id="stream18secstream" shape-rendering="geometricPrecision" class="st3" d="M11.1,150.5V223c185,0,185-25.4,370-25.4
					s185,0,370,0V88.9c-185,0-185,0-370,0S196.1,150.5,11.1,150.5"/>
			</g>
		</g>
	</g>
	<g>
		<g>
			<g>
				<defs>
					<path id="SVGID_9_" d="M-358.9,310h347.8V20h-347.8V310 M33.3,310h325.6V20H33.3V310 M403.3,310h325.6V20H403.3V310 M773.3,310
						h347.8V20H773.3V310"/>
				</defs>
				<clipPath id="SVGID_10_">
					<use xlink:href="#SVGID_9_"  style="overflow:visible;"/>
				</clipPath>
				<path id="stream3secstream" shape-rendering="geometricPrecision" class="st4" d="M11.1,107v36.2c185,0,185-61.6,370-61.6
					s185,0,370,0V45.4c-185,0-185,0-370,0S196.1,107,11.1,107"/>
			</g>
		</g>
	</g>
	<g>
		<g>
			<g>
				<defs>
					<path id="SVGID_11_" d="M-358.9,310h717.8V20h-717.8V310 M403.3,310h325.6V20H403.3V310 M773.3,310h347.8V20H773.3V310"/>
				</defs>
				<clipPath id="SVGID_12_">
					<use xlink:href="#SVGID_11_"  style="overflow:visible;"/>
				</clipPath>
				<path id="stream13secstream" shape-rendering="geometricPrecision" class="st5" d="M381.1,204.9c-111.2,0-111.2,36.2,0,36.2
					c185,0,185,0,370,0v-36.2C566.1,204.9,566.1,204.9,381.1,204.9"/>
			</g>
		</g>
	</g>
	<g>
		<g>
			<g>
				<defs>
					<path id="SVGID_13_" d="M-358.9,310h336.7V20h-336.7V310 M44.4,310h303.4V20H44.4V310 M414.4,310h303.4V20H414.4V310
						 M784.4,310h336.7V20H784.4V310"/>
				</defs>
				<clipPath id="SVGID_14_">
					<use xlink:href="#SVGID_13_"  style="overflow:visible;"/>
				</clipPath>
				<path id="stream15secstream" shape-rendering="geometricPrecision" class="st6" d="M11.1,168.6v36.2c185,0,185-25.4,370-25.4
					s185,0,370,0V107c-185,0-185,0-370,0S196.1,168.6,11.1,168.6"/>
			</g>
		</g>
	</g>
	<g>
		<g>
			<g>
				<defs>
					<path id="SVGID_15_" d="M-358.9,310h347.8V20h-347.8V310 M33.3,310h303.4V20H33.3V310 M425.5,310h281.2V20H425.5V310
						 M795.5,310h325.6V20H795.5V310"/>
				</defs>
				<clipPath id="SVGID_16_">
					<use xlink:href="#SVGID_15_"  style="overflow:visible;"/>
				</clipPath>
				<path id="stream0secstream" shape-rendering="geometricPrecision" class="st7" d="M11.1,63.5v36.2c185,0,185,61.6,370,61.6
					s185,0,370,0v-36.2c-185,0-185,0-370,0S196.1,63.5,11.1,63.5"/>
			</g>
		</g>
	</g>
</g>
<rect y="56.2" class="st8" width="22.1" height="217.5"/>
<text transform="matrix(1 0 0 1 108.1243 335.4734)" class="st9 st10">January-February</text>
<text transform="matrix(1 0 0 1 494.1602 335.4734)" class="st9 st10">February-March</text>
</svg>
