<?xml version="1.0" encoding="utf-8"?>
<!-- Generator: Adobe Illustrator 20.0.0, SVG Export Plug-In . SVG Version: 6.00 Build 0)  -->
<svg version="1.1" id="Layer_1" xmlns="http://www.w3.org/2000/svg" xmlns:xlink="http://www.w3.org/1999/xlink" x="0px" y="0px"
	 viewBox="0 0 588.3 334.1" style="enable-background:new 0 0 588.3 334.1;" xml:space="preserve">
<style type="text/css">
	.st0{clip-path:url(#SVGID_2_);fill:#08306B;}
	.st1{clip-path:url(#SVGID_4_);fill:#3787C0;}
	.st2{clip-path:url(#SVGID_6_);fill:#3787C0;}
	.st3{clip-path:url(#SVGID_8_);fill:#ABCFE6;}
	.st4{clip-path:url(#SVGID_10_);fill:#ABCFE6;}
	.st5{clip-path:url(#SVGID_12_);fill:#ABCFE6;}
	.st6{clip-path:url(#SVGID_14_);fill:#ABCFE6;}
	.st7{clip-path:url(#SVGID_16_);fill:#ABCFE6;}
	.st8{clip-path:url(#SVGID_18_);fill:#F7FBFF;}
	.st9{clip-path:url(#SVGID_20_);fill:#F7FBFF;}
	.st10{clip-path:url(#SVGID_22_);fill:#F7FBFF;}
	.st11{font-family:'ArialMT';}
	.st12{font-size:25px;}
</style>
<g>
	<g>
		<defs>
			<path id="SVGID_1_" d="M-538.4,294h555V20h-555V294 M16.7,294h555V20h-555V294 M571.7,294h555V20h-555V294"/>
		</defs>
		<clipPath id="SVGID_2_">
			<use xlink:href="#SVGID_1_"  style="overflow:visible;"/>
		</clipPath>
		<path id="streamfakeRootsecstream" shape-rendering="geometricPrecision" class="st0" d="M16.7,20v274
			c277.5,0,277.5-24.9,555-24.9V44.9C294.2,44.9,294.2,20,16.7,20"/>
	</g>
	<g>
		<defs>
			<path id="SVGID_3_" d="M-538.4,294H0V20h-538.4V294 M33.3,294H555V20H33.3V294 M588.3,294h538.4V20H588.3V294"/>
		</defs>
		<clipPath id="SVGID_4_">
			<use xlink:href="#SVGID_3_"  style="overflow:visible;"/>
		</clipPath>
		<path id="stream10secstream" shape-rendering="geometricPrecision" class="st1" d="M16.7,86.4v199.3c277.5,0,277.5-24.9,555-24.9
			V86.4C294.2,86.4,294.2,86.4,16.7,86.4"/>
	</g>
	<g>
		<defs>
			<path id="SVGID_5_" d="M-538.4,294H0V20h-538.4V294 M33.3,294H555V20H33.3V294 M588.3,294h538.4V20H588.3V294"/>
		</defs>
		<clipPath id="SVGID_6_">
			<use xlink:href="#SVGID_5_"  style="overflow:visible;"/>
		</clipPath>
		<path id="stream18secstream" shape-rendering="geometricPrecision" class="st2" d="M16.7,28.3v49.8c277.5,0,277.5,0,555,0V53.2
			C294.2,53.2,294.2,28.3,16.7,28.3"/>
	</g>
	<g>
		<defs>
			<path id="SVGID_7_" d="M-538.4,294h521.7V20h-521.7V294 M50,294h488.4V20H50V294 M605,294h521.7V20H605V294"/>
		</defs>
		<clipPath id="SVGID_8_">
			<use xlink:href="#SVGID_7_"  style="overflow:visible;"/>
		</clipPath>
		<path id="stream0secstream" shape-rendering="geometricPrecision" class="st3" d="M16.7,255.8v24.9c277.5,0,277.5-24.9,555-24.9
			v-24.9C294.2,230.9,294.2,255.8,16.7,255.8"/>
	</g>
	<g>
		<defs>
			<path id="SVGID_9_" d="M-538.4,294h521.7V20h-521.7V294 M50,294h488.4V20H50V294 M605,294h521.7V20H605V294"/>
		</defs>
		<clipPath id="SVGID_10_">
			<use xlink:href="#SVGID_9_"  style="overflow:visible;"/>
		</clipPath>
		<path id="stream12secstream" shape-rendering="geometricPrecision" class="st4" d="M16.7,225.9v24.9c277.5,0,277.5-24.9,555-24.9
			V201C294.2,201,294.2,225.9,16.7,225.9"/>
	</g>
	<g>
		<defs>
			<path id="SVGID_11_" d="M-538.4,294h521.7V20h-521.7V294 M50,294h488.4V20H50V294 M605,294h521.7V20H605V294"/>
		</defs>
		<clipPath id="SVGID_12_">
			<use xlink:href="#SVGID_11_"  style="overflow:visible;"/>
		</clipPath>
		<path id="stream4secstream" shape-rendering="geometricPrecision" class="st5" d="M16.7,171.1v49.8c277.5,0,277.5-24.9,555-24.9
			v-24.9C294.2,171.1,294.2,171.1,16.7,171.1"/>
	</g>
	<g>
		<defs>
			<path id="SVGID_13_" d="M-538.4,294h521.7V20h-521.7V294 M50,294h488.4V20H50V294 M605,294h521.7V20H605V294"/>
		</defs>
		<clipPath id="SVGID_14_">
			<use xlink:href="#SVGID_13_"  style="overflow:visible;"/>
		</clipPath>
		<path id="stream8secstream" shape-rendering="geometricPrecision" class="st6" d="M16.7,91.4v74.7c277.5,0,277.5,0,555,0V91.4
			C294.2,91.4,294.2,91.4,16.7,91.4"/>
	</g>
	<g>
		<defs>
			<path id="SVGID_15_" d="M-538.4,294h521.7V20h-521.7V294 M50,294h521.7V20H50V294"/>
		</defs>
		<clipPath id="SVGID_16_">
			<use xlink:href="#SVGID_15_"  style="overflow:visible;"/>
		</clipPath>
		<path id="stream16secstream" shape-rendering="geometricPrecision" class="st7" d="M16.7,40.8v24.9
			C158.9,65.7,158.9,40.8,16.7,40.8"/>
	</g>
	<g>
		<defs>
			<path id="SVGID_17_" d="M-538.4,294h505.1V20h-505.1V294 M66.6,294h505.1V20H66.6V294"/>
		</defs>
		<clipPath id="SVGID_18_">
			<use xlink:href="#SVGID_17_"  style="overflow:visible;"/>
		</clipPath>
		<path id="stream14secstream" shape-rendering="geometricPrecision" class="st8" d="M16.7,183.6v24.9
			C158.9,208.5,158.9,183.6,16.7,183.6"/>
	</g>
	<g>
		<defs>
			<path id="SVGID_19_" d="M-538.4,294h505.1V20h-505.1V294 M66.6,294h455.1V20H66.6V294 M621.6,294h505.1V20H621.6V294"/>
		</defs>
		<clipPath id="SVGID_20_">
			<use xlink:href="#SVGID_19_"  style="overflow:visible;"/>
		</clipPath>
		<path id="stream6secstream" shape-rendering="geometricPrecision" class="st9" d="M16.7,132.9v24.9c277.5,0,277.5,0,555,0v-24.9
			C294.2,132.9,294.2,132.9,16.7,132.9"/>
	</g>
	<g>
		<defs>
			<path id="SVGID_21_" d="M-538.4,294h505.1V20h-505.1V294 M66.6,294h455.1V20H66.6V294 M621.6,294h505.1V20H621.6V294"/>
		</defs>
		<clipPath id="SVGID_22_">
			<use xlink:href="#SVGID_21_"  style="overflow:visible;"/>
		</clipPath>
		<path id="stream2secstream" shape-rendering="geometricPrecision" class="st10" d="M16.7,99.7v24.9c277.5,0,277.5,0,555,0V99.7
			C294.2,99.7,294.2,99.7,16.7,99.7"/>
	</g>
</g>
<text transform="matrix(1 0 0 1 26.6339 319.6973)" class="st11 st12">January</text>
<text transform="matrix(1 0 0 1 467.0717 319.6969)" class="st11 st12">February</text>
</svg>
