<?xml version="1.0" encoding="utf-8"?>
<!-- Generator: Adobe Illustrator 20.0.0, SVG Export Plug-In . SVG Version: 6.00 Build 0)  -->
<svg version="1.1"
	 id="svg948" inkscape:version="0.92.3 (2405546, 2018-03-11)" sodipodi:docname="Question3secstream.svg" xmlns:cc="http://creativecommons.org/ns#" xmlns:dc="http://purl.org/dc/elements/1.1/" xmlns:inkscape="http://www.inkscape.org/namespaces/inkscape" xmlns:rdf="http://www.w3.org/1999/02/22-rdf-syntax-ns#" xmlns:sodipodi="http://sodipodi.sourceforge.net/DTD/sodipodi-0.dtd" xmlns:svg="http://www.w3.org/2000/svg"
	 xmlns="http://www.w3.org/2000/svg" xmlns:xlink="http://www.w3.org/1999/xlink" x="0px" y="0px" viewBox="0 0 569.6 262.7"
	 style="enable-background:new 0 0 569.6 262.7;" xml:space="preserve">
<style type="text/css">
	.st0{clip-path:url(#SVGID_2_);fill:#08306B;}
	.st1{clip-path:url(#SVGID_4_);fill:#1864AA;}
	.st2{clip-path:url(#SVGID_6_);fill:#1864AA;}
	.st3{clip-path:url(#SVGID_8_);fill:#4B97C9;}
	.st4{clip-path:url(#SVGID_10_);fill:#4B97C9;}
	.st5{clip-path:url(#SVGID_12_);fill:#4B97C9;}
	.st6{clip-path:url(#SVGID_14_);fill:#4B97C9;}
	.st7{clip-path:url(#SVGID_16_);fill:#4B97C9;}
	.st8{clip-path:url(#SVGID_18_);fill:#93C3DF;}
	.st9{clip-path:url(#SVGID_20_);fill:#93C3DF;}
	.st10{clip-path:url(#SVGID_22_);fill:#93C3DF;}
	.st11{clip-path:url(#SVGID_24_);fill:#93C3DF;}
	.st12{clip-path:url(#SVGID_26_);fill:#CFE1F2;}
	.st13{clip-path:url(#SVGID_28_);fill:#CFE1F2;}
	.st14{clip-path:url(#SVGID_30_);fill:#CFE1F2;}
	.st15{clip-path:url(#SVGID_32_);fill:#F7FBFF;}
	.st16{fill:#F41111;}
	.st17{font-family:'ArialMT';}
	.st18{font-size:25px;}
</style>
<sodipodi:namedview  bordercolor="#666666" borderopacity="1.0" id="base" inkscape:current-layer="layer1" inkscape:cx="453.72789" inkscape:cy="-166.29335" inkscape:document-units="mm" inkscape:pageopacity="0.0" inkscape:pageshadow="2" inkscape:window-height="1147" inkscape:window-maximized="1" inkscape:window-width="1920" inkscape:window-x="-8" inkscape:window-y="-8" inkscape:zoom="0.7" pagecolor="#ffffff" showgrid="false">
	</sodipodi:namedview>
<g id="layer1" transform="translate(-19.84037,-77.090303)" inkscape:groupmode="layer" inkscape:label="Layer 1">
	<g id="g2001" transform="matrix(0.26458333,0,0,0.26458333,19.689666,71.798636)">
		<g id="g1941">
			<g>
				<g>
					<defs>
						<path id="SVGID_1_" d="M-2042,844.9H55.6V20H-2042V844.9 M55.6,844.9h2097.6V20H55.6V844.9 M2153.3,844.9h2097.6V20H2153.3
							V844.9"/>
					</defs>
					<clipPath id="SVGID_2_">
						<use xlink:href="#SVGID_1_"  style="overflow:visible;"/>
					</clipPath>
					<path id="streamfakeRootsecstream" inkscape:connector-curvature="0" class="st0" d="M55.6,20v824.9
						c1048.8,0,1048.8,0,2097.6,0V20C1104.5,20,1104.5,20,55.6,20"/>
				</g>
			</g>
			<g>
				<g>
					<defs>
						<path id="SVGID_3_" d="M-2042,844.9H-7.3V20H-2042V844.9 M118.6,844.9h1971.8V20H118.6V844.9 M2216.2,844.9h2034.7V20H2216.2
							V844.9"/>
					</defs>
					<clipPath id="SVGID_4_">
						<use xlink:href="#SVGID_3_"  style="overflow:visible;"/>
					</clipPath>
					<path id="stream2secstream" inkscape:connector-curvature="0" class="st1" d="M55.6,569.9v257.8c1048.8,0,1048.8,0,2097.6,0
						V569.9C1104.5,569.9,1104.5,569.9,55.6,569.9"/>
				</g>
			</g>
			<g>
				<g>
					<defs>
						<path id="SVGID_5_" d="M-2042,844.9H-7.3V20H-2042V844.9 M118.6,844.9h1971.8V20H118.6V844.9 M2216.2,844.9h2034.7V20H2216.2
							V844.9"/>
					</defs>
					<clipPath id="SVGID_6_">
						<use xlink:href="#SVGID_5_"  style="overflow:visible;"/>
					</clipPath>
					<path id="stream20secstream" inkscape:connector-curvature="0" class="st2" d="M55.6,37.2v515.6c1048.8,0,1048.8,0,2097.6,0
						V37.2C1104.5,37.2,1104.5,37.2,55.6,37.2"/>
				</g>
			</g>
			<g>
				<g>
					<defs>
						<path id="SVGID_7_" d="M-2042,844.9H-70.2V20H-2042V844.9 M181.5,844.9h1845.9V20H181.5V844.9 M2279.1,844.9h1971.8V20H2279.1
							V844.9"/>
					</defs>
					<clipPath id="SVGID_8_">
						<use xlink:href="#SVGID_7_"  style="overflow:visible;"/>
					</clipPath>
					<path id="stream16secstream" inkscape:connector-curvature="0" class="st3" d="M55.6,655.8v154.7c1048.8,0,1048.8,0,2097.6,0
						V655.8C1104.5,655.8,1104.5,655.8,55.6,655.8"/>
				</g>
			</g>
			<g>
				<g>
					<defs>
						<path id="SVGID_9_" d="M-2042,844.9H-70.2V20H-2042V844.9 M181.5,844.9h1845.9V20H181.5V844.9 M2279.1,844.9h1971.8V20H2279.1
							V844.9"/>
					</defs>
					<clipPath id="SVGID_10_">
						<use xlink:href="#SVGID_9_"  style="overflow:visible;"/>
					</clipPath>
					<path id="stream12secstream" inkscape:connector-curvature="0" class="st4" d="M55.6,587.1v51.6c1048.8,0,1048.8,0,2097.6,0
						v-51.6C1104.5,587.1,1104.5,587.1,55.6,587.1"/>
				</g>
			</g>
			<g>
				<g>
					<defs>
						<path id="SVGID_11_" d="M-2042,844.9H-70.2V20H-2042V844.9 M181.5,844.9h1845.9V20H181.5V844.9 M2279.1,844.9h1971.8V20
							H2279.1V844.9"/>
					</defs>
					<clipPath id="SVGID_12_">
						<use xlink:href="#SVGID_11_"  style="overflow:visible;"/>
					</clipPath>
					<path id="stream8secstream" inkscape:connector-curvature="0" class="st5" d="M55.6,488.3v51.6c1048.8,0,1048.8,0,2097.6,0
						v-51.6C1104.5,488.3,1104.5,488.3,55.6,488.3"/>
				</g>
			</g>
			<g>
				<g>
					<defs>
						<path id="SVGID_13_" d="M-2042,844.9H-70.2V20H-2042V844.9 M181.5,844.9h1845.9V20H181.5V844.9 M2279.1,844.9h1971.8V20
							H2279.1V844.9"/>
					</defs>
					<clipPath id="SVGID_14_">
						<use xlink:href="#SVGID_13_"  style="overflow:visible;"/>
					</clipPath>
					<path id="stream22secstream" inkscape:connector-curvature="0" class="st6" d="M55.6,217.6v257.8c1048.8,0,1048.8,0,2097.6,0
						V217.6C1104.5,217.6,1104.5,217.6,55.6,217.6"/>
				</g>
			</g>
			<g>
				<g>
					<defs>
						<path id="SVGID_15_" d="M-2042,844.9H-70.2V20H-2042V844.9 M181.5,844.9h1845.9V20H181.5V844.9 M2279.1,844.9h1971.8V20
							H2279.1V844.9"/>
					</defs>
					<clipPath id="SVGID_16_">
						<use xlink:href="#SVGID_15_"  style="overflow:visible;"/>
					</clipPath>
					<path id="stream24secstream" inkscape:connector-curvature="0" class="st7" d="M55.6,50.1v154.7c1048.8,0,1048.8,0,2097.6,0
						V50.1C1104.5,50.1,1104.5,50.1,55.6,50.1"/>
				</g>
			</g>
			<g>
				<g>
					<defs>
						<path id="SVGID_17_" d="M-2042,844.9h1908.9V20H-2042V844.9 M244.4,844.9h1720.1V20H244.4V844.9 M2342.1,844.9H4251V20H2342.1
							V844.9"/>
					</defs>
					<clipPath id="SVGID_18_">
						<use xlink:href="#SVGID_17_"  style="overflow:visible;"/>
					</clipPath>
					<path id="stream14secstream" inkscape:connector-curvature="0" class="st8" d="M55.6,681.6v103.1c1048.8,0,1048.8,0,2097.6,0
						V681.6C1104.5,681.6,1104.5,681.6,55.6,681.6"/>
				</g>
			</g>
			<g>
				<g>
					<defs>
						<path id="SVGID_19_" d="M-2042,844.9h1908.9V20H-2042V844.9 M244.4,844.9h1720.1V20H244.4V844.9 M2342.1,844.9H4251V20H2342.1
							V844.9"/>
					</defs>
					<clipPath id="SVGID_20_">
						<use xlink:href="#SVGID_19_"  style="overflow:visible;"/>
					</clipPath>
					<path id="stream4secstream" inkscape:connector-curvature="0" class="st9" d="M55.6,243.4v206.2c1048.8,0,1048.8,0,2097.6,0
						V243.4C1104.5,243.4,1104.5,243.4,55.6,243.4"/>
				</g>
			</g>
			<g>
				<g>
					<defs>
						<path id="SVGID_21_" d="M-2042,844.9h1908.9V20H-2042V844.9 M244.4,844.9h1720.1V20H244.4V844.9 M2342.1,844.9H4251V20H2342.1
							V844.9"/>
					</defs>
					<clipPath id="SVGID_22_">
						<use xlink:href="#SVGID_21_"  style="overflow:visible;"/>
					</clipPath>
					<path id="stream18secstream" inkscape:connector-curvature="0" class="st10" d="M55.6,136v51.6c1048.8,0,1048.8,0,2097.6,0V136
						C1104.5,136,1104.5,136,55.6,136"/>
				</g>
			</g>
			<g>
				<g>
					<defs>
						<path id="SVGID_23_" d="M-2042,844.9h1908.9V20H-2042V844.9 M244.4,844.9h1720.1V20H244.4V844.9 M2342.1,844.9H4251V20H2342.1
							V844.9"/>
					</defs>
					<clipPath id="SVGID_24_">
						<use xlink:href="#SVGID_23_"  style="overflow:visible;"/>
					</clipPath>
					<path id="stream0secstream" inkscape:connector-curvature="0" class="st11" d="M55.6,67.3v51.6c1048.8,0,1048.8,0,2097.6,0
						V67.3C1104.5,67.3,1104.5,67.3,55.6,67.3"/>
				</g>
			</g>
			<g>
				<g>
					<defs>
						<path id="SVGID_25_" d="M-2042,844.9h1845.9V20H-2042V844.9 M307.4,844.9h1594.2V20H307.4V844.9 M2405,844.9h1845.9V20H2405
							V844.9"/>
					</defs>
					<clipPath id="SVGID_26_">
						<use xlink:href="#SVGID_25_"  style="overflow:visible;"/>
					</clipPath>
					<path id="stream28secstream" inkscape:connector-curvature="0" class="st12" d="M55.6,707.4V759c1048.8,0,1048.8,0,2097.6,0
						v-51.6C1104.5,707.4,1104.5,707.4,55.6,707.4"/>
				</g>
			</g>
			<g>
				<g>
					<defs>
						<path id="SVGID_27_" d="M-2042,844.9h1845.9V20H-2042V844.9 M307.4,844.9h1594.2V20H307.4V844.9 M2405,844.9h1845.9V20H2405
							V844.9"/>
					</defs>
					<clipPath id="SVGID_28_">
						<use xlink:href="#SVGID_27_"  style="overflow:visible;"/>
					</clipPath>
					<path id="stream26secstream" inkscape:connector-curvature="0" class="st13" d="M55.6,380.9v51.6c1048.8,0,1048.8,0,2097.6,0
						v-51.6C1104.5,380.9,1104.5,380.9,55.6,380.9"/>
				</g>
			</g>
			<g>
				<g>
					<defs>
						<path id="SVGID_29_" d="M-2042,844.9h1845.9V20H-2042V844.9 M307.4,844.9h1594.2V20H307.4V844.9 M2405,844.9h1845.9V20H2405
							V844.9"/>
					</defs>
					<clipPath id="SVGID_30_">
						<use xlink:href="#SVGID_29_"  style="overflow:visible;"/>
					</clipPath>
					<path id="stream10secstream" inkscape:connector-curvature="0" class="st14" d="M55.6,260.6v103.1c1048.8,0,1048.8,0,2097.6,0
						V260.6C1104.5,260.6,1104.5,260.6,55.6,260.6"/>
				</g>
			</g>
			<g>
				<g>
					<defs>
						<path id="SVGID_31_" d="M-2042,844.9h1783V20h-1783V844.9 M370.3,844.9h1468.3V20H370.3V844.9 M2467.9,844.9h1783V20h-1783
							V844.9"/>
					</defs>
					<clipPath id="SVGID_32_">
						<use xlink:href="#SVGID_31_"  style="overflow:visible;"/>
					</clipPath>
					<path id="stream6secstream" inkscape:connector-curvature="0" class="st15" d="M55.6,286.4V338c1048.8,0,1048.8,0,2097.6,0
						v-51.6C1104.5,286.4,1104.5,286.4,55.6,286.4"/>
				</g>
			</g>
		</g>
		<g id="g1943">
		</g>
	</g>
	<rect id="rect2005" x="19.8" y="201" class="st16" width="47.8" height="13.7"/>
</g>
<text transform="matrix(1 0 0 1 41.2228 248.2131)" class="st17 st18">January</text>
<text transform="matrix(1 0 0 1 439.9937 248.2135)" class="st17 st18">February</text>
</svg>
