<?xml version="1.0" encoding="utf-8"?>
<!-- Generator: Adobe Illustrator 20.0.0, SVG Export Plug-In . SVG Version: 6.00 Build 0)  -->
<svg version="1.1" id="Layer_1" xmlns="http://www.w3.org/2000/svg" xmlns:xlink="http://www.w3.org/1999/xlink" x="0px" y="0px"
	 viewBox="0 0 588.3 352" style="enable-background:new 0 0 588.3 352;" xml:space="preserve">
<style type="text/css">
	.st0{clip-path:url(#SVGID_2_);fill:#08306B;}
	.st1{clip-path:url(#SVGID_4_);fill:#1864AA;}
	.st2{clip-path:url(#SVGID_6_);fill:#4B97C9;}
	.st3{clip-path:url(#SVGID_8_);fill:#4B97C9;}
	.st4{clip-path:url(#SVGID_10_);fill:#93C3DF;}
	.st5{clip-path:url(#SVGID_12_);fill:#93C3DF;}
	.st6{clip-path:url(#SVGID_14_);fill:#CFE1F2;}
	.st7{clip-path:url(#SVGID_16_);fill:#CFE1F2;}
	.st8{clip-path:url(#SVGID_18_);fill:#F7FBFF;}
	.st9{font-family:'ArialMT';}
	.st10{font-size:25px;}
</style>
<g>
	<g>
		<defs>
			<path id="SVGID_1_" d="M-538.4,310h555V20h-555V310 M16.7,310h555V20h-555V310 M571.7,310h555V20h-555V310"/>
		</defs>
		<clipPath id="SVGID_2_">
			<use xlink:href="#SVGID_1_"  style="overflow:visible;"/>
		</clipPath>
		<path id="streamfakeRootsecstream" shape-rendering="geometricPrecision" class="st0" d="M16.7,20v290c277.5,0,277.5,0,555,0V20
			C294.2,20,294.2,20,16.7,20"/>
	</g>
	<g>
		<defs>
			<path id="SVGID_3_" d="M-538.4,310H0V20h-538.4V310 M33.3,310H555V20H33.3V310 M588.3,310h538.4V20H588.3V310"/>
		</defs>
		<clipPath id="SVGID_4_">
			<use xlink:href="#SVGID_3_"  style="overflow:visible;"/>
		</clipPath>
		<path id="stream0secstream" shape-rendering="geometricPrecision" class="st1" d="M16.7,36.1v257.8c277.5,0,277.5,0,555,0V36.1
			C294.2,36.1,294.2,36.1,16.7,36.1"/>
	</g>
	<g>
		<defs>
			<path id="SVGID_5_" d="M-538.4,310h521.7V20h-521.7V310 M50,310h488.4V20H50V310 M605,310h521.7V20H605V310"/>
		</defs>
		<clipPath id="SVGID_6_">
			<use xlink:href="#SVGID_5_"  style="overflow:visible;"/>
		</clipPath>
		<path id="stream6secstream" shape-rendering="geometricPrecision" class="st2" d="M16.7,89.8v193.3c277.5,0,277.5,0,555,0V89.8
			C294.2,89.8,294.2,89.8,16.7,89.8"/>
	</g>
	<g>
		<defs>
			<path id="SVGID_7_" d="M-538.4,310h521.7V20h-521.7V310 M50,310h488.4V20H50V310 M605,310h521.7V20H605V310"/>
		</defs>
		<clipPath id="SVGID_8_">
			<use xlink:href="#SVGID_7_"  style="overflow:visible;"/>
		</clipPath>
		<path id="stream2secstream" shape-rendering="geometricPrecision" class="st3" d="M16.7,46.9v32.2c277.5,0,277.5,0,555,0V46.9
			C294.2,46.9,294.2,46.9,16.7,46.9"/>
	</g>
	<g>
		<defs>
			<path id="SVGID_9_" d="M-538.4,310h505.1V20h-505.1V310 M66.6,310h455.1V20H66.6V310 M621.6,310h505.1V20H621.6V310"/>
		</defs>
		<clipPath id="SVGID_10_">
			<use xlink:href="#SVGID_9_"  style="overflow:visible;"/>
		</clipPath>
		<path id="stream8secstream" shape-rendering="geometricPrecision" class="st4" d="M16.7,143.5v128.9c277.5,0,277.5,0,555,0V143.5
			C294.2,143.5,294.2,143.5,16.7,143.5"/>
	</g>
	<g>
		<defs>
			<path id="SVGID_11_" d="M-538.4,310h505.1V20h-505.1V310 M66.6,310h455.1V20H66.6V310 M621.6,310h505.1V20H621.6V310"/>
		</defs>
		<clipPath id="SVGID_12_">
			<use xlink:href="#SVGID_11_"  style="overflow:visible;"/>
		</clipPath>
		<path id="stream12secstream" shape-rendering="geometricPrecision" class="st5" d="M16.7,100.6v32.2c277.5,0,277.5,0,555,0v-32.2
			C294.2,100.6,294.2,100.6,16.7,100.6"/>
	</g>
	<g>
		<defs>
			<path id="SVGID_13_" d="M-538.4,310H-50V20h-488.4V310 M83.3,310h421.8V20H83.3V310 M638.3,310h488.4V20H638.3V310"/>
		</defs>
		<clipPath id="SVGID_14_">
			<use xlink:href="#SVGID_13_"  style="overflow:visible;"/>
		</clipPath>
		<path id="stream14secstream" shape-rendering="geometricPrecision" class="st6" d="M16.7,197.2v64.4c277.5,0,277.5,0,555,0v-64.4
			C294.2,197.2,294.2,197.2,16.7,197.2"/>
	</g>
	<g>
		<defs>
			<path id="SVGID_15_" d="M-538.4,310H-50V20h-488.4V310 M83.3,310h421.8V20H83.3V310 M638.3,310h488.4V20H638.3V310"/>
		</defs>
		<clipPath id="SVGID_16_">
			<use xlink:href="#SVGID_15_"  style="overflow:visible;"/>
		</clipPath>
		<path id="stream10secstream" shape-rendering="geometricPrecision" class="st7" d="M16.7,154.3v32.2c277.5,0,277.5,0,555,0v-32.2
			C294.2,154.3,294.2,154.3,16.7,154.3"/>
	</g>
	<g>
		<defs>
			<path id="SVGID_17_" d="M-538.4,310h471.8V20h-471.8V310 M99.9,310h388.5V20H99.9V310 M654.9,310h471.8V20H654.9V310"/>
		</defs>
		<clipPath id="SVGID_18_">
			<use xlink:href="#SVGID_17_"  style="overflow:visible;"/>
		</clipPath>
		<path id="stream4secstream" shape-rendering="geometricPrecision" class="st8" d="M16.7,213.3v32.2c277.5,0,277.5,0,555,0v-32.2
			C294.2,213.3,294.2,213.3,16.7,213.3"/>
	</g>
</g>
<text transform="matrix(1 0 0 1 49.9507 335.7134)" class="st9 st10">January</text>
<text transform="matrix(1 0 0 1 454.9937 335.7134)" class="st9 st10">February</text>
</svg>
