<?xml version="1.0" encoding="utf-8"?>
<!-- Generator: Adobe Illustrator 20.0.0, SVG Export Plug-In . SVG Version: 6.00 Build 0)  -->
<svg version="1.1" id="Layer_1" xmlns="http://www.w3.org/2000/svg" xmlns:xlink="http://www.w3.org/1999/xlink" x="0px" y="0px"
	 viewBox="0 0 780 374" style="enable-background:new 0 0 780 374;" xml:space="preserve">
<style type="text/css">
	.st0{clip-path:url(#SVGID_2_);fill:#08306B;}
	.st1{clip-path:url(#SVGID_4_);fill:#2271B4;}
	.st2{clip-path:url(#SVGID_6_);fill:#2271B4;}
	.st3{clip-path:url(#SVGID_8_);fill:#2271B4;}
	.st4{clip-path:url(#SVGID_10_);fill:#6DAED5;}
	.st5{clip-path:url(#SVGID_12_);fill:#6DAED5;}
	.st6{clip-path:url(#SVGID_14_);fill:#6DAED5;}
	.st7{clip-path:url(#SVGID_16_);fill:#6DAED5;}
	.st8{clip-path:url(#SVGID_18_);fill:#C3DBEE;}
	.st9{clip-path:url(#SVGID_20_);fill:#F7FBFF;}
	.st10{font-family:'ArialMT';}
	.st11{font-size:25px;}
</style>
<g>
	<g>
		<defs>
			<path id="SVGID_1_" d="M-350,311H20V20h-370V311 M20,311h370V20H20V311 M390,311h370V20H390V311 M760,311h370V20H760V311"/>
		</defs>
		<clipPath id="SVGID_2_">
			<use xlink:href="#SVGID_1_"  style="overflow:visible;"/>
		</clipPath>
		<path id="streamfakeRootsecstream" shape-rendering="geometricPrecision" class="st0" d="M20,77.7v175.6c185,0,185,49.7,370,49.7
			s185,8,370,8V20c-185,0-185,8-370,8S205,77.7,20,77.7"/>
	</g>
	<g>
		<defs>
			<path id="SVGID_3_" d="M-350,311H8.9V20H-350V311 M31.1,311h347.8V20H31.1V311 M401.1,311h347.8V20H401.1V311 M771.1,311H1130V20
				H771.1V311"/>
		</defs>
		<clipPath id="SVGID_4_">
			<use xlink:href="#SVGID_3_"  style="overflow:visible;"/>
		</clipPath>
		<path id="stream0secstream" shape-rendering="geometricPrecision" class="st1" d="M20,228.4v12.8c185,0,185,49.7,370,49.7
			s185,8,370,8v-59.3c-185,0-185-31.3-370-31.3S205,228.4,20,228.4"/>
	</g>
	<g>
		<defs>
			<path id="SVGID_5_" d="M-350,311H8.9V20H-350V311 M31.1,311h347.8V20H31.1V311 M401.1,311h347.8V20H401.1V311 M771.1,311H1130V20
				H771.1V311"/>
		</defs>
		<clipPath id="SVGID_6_">
			<use xlink:href="#SVGID_5_"  style="overflow:visible;"/>
		</clipPath>
		<path id="stream15secstream" shape-rendering="geometricPrecision" class="st2" d="M20,179.5v36.8c185,0,185-20.1,370-20.1
			s185,31.3,370,31.3v-41.2c-185,0-185-4.1-370-4.1S205,179.5,20,179.5"/>
	</g>
	<g>
		<defs>
			<path id="SVGID_7_" d="M-350,311H8.9V20H-350V311 M31.1,311h347.8V20H31.1V311 M401.1,311h347.8V20H401.1V311 M771.1,311H1130V20
				H771.1V311"/>
		</defs>
		<clipPath id="SVGID_8_">
			<use xlink:href="#SVGID_7_"  style="overflow:visible;"/>
		</clipPath>
		<path id="stream21secstream" shape-rendering="geometricPrecision" class="st3" d="M20,89.8v77.6c185,0,185,2.8,370,2.8
			s185,4.1,370,4.1V32.1c-185,0-185,8-370,8S205,89.8,20,89.8"/>
	</g>
	<g>
		<defs>
			<path id="SVGID_9_" d="M-350,311H-2.2V20H-350V311 M42.2,311h325.6V20H42.2V311 M412.2,311h325.6V20H412.2V311 M782.2,311H1130
				V20H782.2V311"/>
		</defs>
		<clipPath id="SVGID_10_">
			<use xlink:href="#SVGID_9_"  style="overflow:visible;"/>
		</clipPath>
		<path id="stream24secstream" shape-rendering="geometricPrecision" class="st4" d="M20,234.1v1.3c185,0,185,37.2,370,37.2
			s185,5.8,370,5.8V260c-185,0-185-33.5-370-33.5S205,234.1,20,234.1"/>
	</g>
	<g>
		<defs>
			<path id="SVGID_11_" d="M-350,311H-2.2V20H-350V311 M42.2,311h325.6V20H42.2V311 M412.2,311h325.6V20H412.2V311 M782.2,311H1130
				V20H782.2V311"/>
		</defs>
		<clipPath id="SVGID_12_">
			<use xlink:href="#SVGID_11_"  style="overflow:visible;"/>
		</clipPath>
		<path id="stream12secstream" shape-rendering="geometricPrecision" class="st5" d="M20,130.7v34.2c185,0,185,4.7,370,4.7
			s185,0.6,370,0.6V99.2c-185,0-185-12.8-370-12.8S205,130.7,20,130.7"/>
	</g>
	<g>
		<defs>
			<path id="SVGID_13_" d="M-350,311H-2.2V20H-350V311 M42.2,311h325.6V20H42.2V311 M412.2,311h325.6V20H412.2V311 M782.2,311H1130
				V20H782.2V311"/>
		</defs>
		<clipPath id="SVGID_14_">
			<use xlink:href="#SVGID_13_"  style="overflow:visible;"/>
		</clipPath>
		<path id="stream9secstream" shape-rendering="geometricPrecision" class="st6" d="M20,127.5v0.8c185,0,185-42.5,370-42.5
			s185,9.3,370,9.3V61.2c-185,0-185-18-370-18S205,127.5,20,127.5"/>
	</g>
	<g>
		<defs>
			<path id="SVGID_15_" d="M-350,311H-2.2V20H-350V311 M42.2,311h325.6V20H42.2V311 M412.2,311h325.6V20H412.2V311 M782.2,311H1130
				V20H782.2V311"/>
		</defs>
		<clipPath id="SVGID_16_">
			<use xlink:href="#SVGID_15_"  style="overflow:visible;"/>
		</clipPath>
		<path id="stream3secstream" shape-rendering="geometricPrecision" class="st7" d="M20,92.3V125c185,0,185-82.4,370-82.4
			s185,14.5,370,14.5V36.2c-185,0-185,4.5-370,4.5S205,92.3,20,92.3"/>
	</g>
	<g>
		<defs>
			<path id="SVGID_17_" d="M-350,311h336.7V20H-350V311 M53.3,311h303.4V20H53.3V311 M423.3,311h303.4V20H423.3V311 M793.3,311H1130
				V20H793.3V311"/>
		</defs>
		<clipPath id="SVGID_18_">
			<use xlink:href="#SVGID_17_"  style="overflow:visible;"/>
		</clipPath>
		<path id="stream6secstream" shape-rendering="geometricPrecision" class="st8" d="M20,144.4v6.8c185,0,185-3.4,370-3.4
			s185,15.4,370,15.4v-57.1c-185,0-185,2-370,2S205,144.4,20,144.4"/>
	</g>
	<g>
		<defs>
			<path id="SVGID_19_" d="M-350,311h325.6V20H-350V311 M64.4,311h281.2V20H64.4V311 M434.4,311h281.2V20H434.4V311 M804.4,311H1130
				V20H804.4V311"/>
		</defs>
		<clipPath id="SVGID_20_">
			<use xlink:href="#SVGID_19_"  style="overflow:visible;"/>
		</clipPath>
		<path id="stream18secstream" shape-rendering="geometricPrecision" class="st9" d="M20,147.4v0.7c185,0,185-8.3,370-8.3
			s185,0.3,370,0.3v-10.8c-185,0-185-13.1-370-13.1S205,147.4,20,147.4"/>
	</g>
</g>
<text transform="matrix(1 0 0 1 99.1245 345.4734)" class="st10 st11">January-February</text>
<text transform="matrix(1 0 0 1 492.1602 345.4731)" class="st10 st11">February-March</text>
</svg>
