<?xml version="1.0" encoding="utf-8"?>
<!-- Generator: Adobe Illustrator 20.0.0, SVG Export Plug-In . SVG Version: 6.00 Build 0)  -->
<svg version="1.1" id="Layer_1" xmlns="http://www.w3.org/2000/svg" xmlns:xlink="http://www.w3.org/1999/xlink" x="0px" y="0px"
	 viewBox="0 0 764.2 345" style="enable-background:new 0 0 764.2 345;" xml:space="preserve">
<style type="text/css">
	.st0{clip-path:url(#SVGID_2_);fill:#08306B;}
	.st1{clip-path:url(#SVGID_4_);fill:#1864AA;}
	.st2{clip-path:url(#SVGID_6_);fill:#1864AA;}
	.st3{clip-path:url(#SVGID_8_);fill:#1864AA;}
	.st4{clip-path:url(#SVGID_10_);fill:#4B97C9;}
	.st5{clip-path:url(#SVGID_12_);fill:#4B97C9;}
	.st6{clip-path:url(#SVGID_14_);fill:#4B97C9;}
	.st7{clip-path:url(#SVGID_16_);fill:#93C3DF;}
	.st8{clip-path:url(#SVGID_18_);fill:#93C3DF;}
	.st9{clip-path:url(#SVGID_20_);fill:#CFE1F2;}
	.st10{clip-path:url(#SVGID_22_);fill:#F41111;}
	.st11{font-family:'ArialMT';}
	.st12{font-size:25px;}
</style>
<g transform="translate(-35.625779480230676,-17.262551867675455) scale(1.0417867971116148)">
	<g>
		<g>
			<defs>
				<path id="SVGID_1_" d="M-308.4,294H46.8V20h-355.2L-308.4,294 M46.8,294H402V20H46.8V294 M401.9,294h355.2V20H401.9V294
					 M757.1,294h355.2V20H757.1V294"/>
			</defs>
			<clipPath id="SVGID_2_">
				<use xlink:href="#SVGID_1_"  style="overflow:visible;"/>
			</clipPath>
			<path id="streamfakeRootsecstream" shape-rendering="geometricPrecision" class="st0" d="M46.8,20v274c177.6,0,177.6,0,355.2,0
				s177.6,0,355.2,0V20c-177.6,0-177.6,0-355.2,0S224.4,20,46.8,20"/>
		</g>
	</g>
	<g>
		<g>
			<defs>
				<path id="SVGID_3_" d="M-308.4,294H36.1V20h-344.5V294 M57.4,294h333.8V20H57.4V294 M412.6,294h333.8V20H412.6V294 M767.8,294
					h344.5V20H767.8V294"/>
			</defs>
			<clipPath id="SVGID_4_">
				<use xlink:href="#SVGID_3_"  style="overflow:visible;"/>
			</clipPath>
			<path id="stream6secstream" shape-rendering="geometricPrecision" class="st1" d="M46.8,262.9v24.9c177.6,0,177.6,0,355.2,0
				s177.6,0,355.2,0v-24.9c-177.6,0-177.6,0-355.2,0S224.4,262.9,46.8,262.9"/>
		</g>
	</g>
	<g>
		<g>
			<defs>
				<path id="SVGID_5_" d="M-308.4,294H36.1V20h-344.5V294 M57.4,294h333.8V20H57.4V294 M412.6,294h333.8V20H412.6V294 M767.8,294
					h344.5V20H767.8V294"/>
			</defs>
			<clipPath id="SVGID_6_">
				<use xlink:href="#SVGID_5_"  style="overflow:visible;"/>
			</clipPath>
			<path id="stream15secstream" shape-rendering="geometricPrecision" class="st2" d="M46.8,82.3v174.4c177.6,0,177.6,0,355.2,0
				s177.6,0,355.2,0V82.3c-177.6,0-177.6,0-355.2,0S224.4,82.3,46.8,82.3"/>
		</g>
	</g>
	<g>
		<g>
			<defs>
				<path id="SVGID_7_" d="M-308.4,294H36.1V20h-344.5V294 M57.4,294h333.8V20H57.4V294 M412.6,294h333.8V20H412.6V294 M767.8,294
					h344.5V20H767.8V294"/>
			</defs>
			<clipPath id="SVGID_8_">
				<use xlink:href="#SVGID_7_"  style="overflow:visible;"/>
			</clipPath>
			<path id="stream24secstream" shape-rendering="geometricPrecision" class="st3" d="M46.8,26.2V76c177.6,0,177.6,0,355.2,0
				s177.6,0,355.2,0V26.2c-177.6,0-177.6,0-355.2,0S224.4,26.2,46.8,26.2"/>
		</g>
	</g>
	<g>
		<g>
			<defs>
				<path id="SVGID_9_" d="M-308.4,294H25.5V20h-333.8v274 M68.1,294h312.5V20H68.1V294 M423.3,294h312.5V20H423.3V294 M778.4,294
					h333.8V20H778.4V294"/>
			</defs>
			<clipPath id="SVGID_10_">
				<use xlink:href="#SVGID_9_"  style="overflow:visible;"/>
			</clipPath>
			<path id="stream9secstream" shape-rendering="geometricPrecision" class="st4" d="M46.8,175.7v74.7c177.6,0,177.6-2.1,355.2-2.1
				s177.6,0,355.2,0V123.8c-177.6,0-177.6,0-355.2,0S224.4,175.7,46.8,175.7"/>
		</g>
	</g>
	<g>
		<g>
			<defs>
				<path id="SVGID_11_" d="M-308.4,294H25.5V20h-333.8v274 M68.1,294h312.5V20H68.1V294 M423.3,294h312.5V20H423.3V294 M778.4,294
					h333.8V20H778.4V294"/>
			</defs>
			<clipPath id="SVGID_12_">
				<use xlink:href="#SVGID_11_"  style="overflow:visible;"/>
			</clipPath>
			<path id="stream3secstream" shape-rendering="geometricPrecision" class="st5" d="M46.8,88.5v24.9c177.6,0,177.6,2.1,355.2,2.1
				s177.6,0,355.2,0V90.6c-177.6,0-177.6,0-355.2,0S224.4,88.5,46.8,88.5"/>
		</g>
	</g>
	<g>
		<g>
			<defs>
				<path id="SVGID_13_" d="M-308.4,294H25.5V20h-333.8v274 M68.1,294h312.5V20H68.1V294 M423.3,294h312.5V20H423.3V294 M778.4,294
					h333.8V20H778.4V294"/>
			</defs>
			<clipPath id="SVGID_14_">
				<use xlink:href="#SVGID_13_"  style="overflow:visible;"/>
			</clipPath>
			<path id="stream21secstream" shape-rendering="geometricPrecision" class="st6" d="M46.8,38.7v24.9c177.6,0,177.6,0,355.2,0
				s177.6,0,355.2,0V38.7c-177.6,0-177.6,0-355.2,0S224.4,38.7,46.8,38.7"/>
		</g>
	</g>
	<g>
		<g>
			<defs>
				<path id="SVGID_15_" d="M-308.4,294H14.8V20h-323.2L-308.4,294 M78.8,294H370V20H78.8V294 M433.9,294h291.2V20H433.9V294
					 M789.1,294h323.2V20H789.1V294"/>
			</defs>
			<clipPath id="SVGID_16_">
				<use xlink:href="#SVGID_15_"  style="overflow:visible;"/>
			</clipPath>
			<path id="stream27secstream" shape-rendering="geometricPrecision" class="st7" d="M46.8,217.2v24.9c177.6,0,177.6-2.1,355.2-2.1
				s177.6,0,355.2,0v-24.9c-177.6,0-177.6,0-355.2,0S224.4,217.2,46.8,217.2"/>
		</g>
	</g>
	<g>
		<g>
			<defs>
				<path id="SVGID_17_" d="M-308.4,294H14.8V20h-323.2L-308.4,294 M78.8,294H370V20H78.8V294 M433.9,294h291.2V20H433.9V294
					 M789.1,294h323.2V20H789.1V294"/>
			</defs>
			<clipPath id="SVGID_18_">
				<use xlink:href="#SVGID_17_"  style="overflow:visible;"/>
			</clipPath>
			<path id="stream18secstream" shape-rendering="geometricPrecision" class="st8" d="M46.8,184v24.9c177.6,0,177.6-2.1,355.2-2.1
				s177.6,0,355.2,0v-74.7c-177.6,0-177.6,0-355.2,0S224.4,184,46.8,184"/>
		</g>
	</g>
	<g>
		<g>
			<defs>
				<path id="SVGID_19_" d="M-308.4,294H25.5V20h-333.8v274 M68.1,294h291.2V20H68.1V294 M444.6,294h269.9V20H444.6V294 M799.7,294
					h312.5V20H799.7V294"/>
			</defs>
			<clipPath id="SVGID_20_">
				<use xlink:href="#SVGID_19_"  style="overflow:visible;"/>
			</clipPath>
			<path id="stream12secstream" shape-rendering="geometricPrecision" class="st9" d="M46.8,119.6v49.8
				c177.6,0,177.6,24.9,355.2,24.9s177.6,0,355.2,0v-49.8c-177.6,0-177.6,0-355.2,0S224.4,119.6,46.8,119.6"/>
		</g>
	</g>
	<g>
		<g>
			<defs>
				<path id="SVGID_21_" d="M-308.4,294H14.8V20h-323.2L-308.4,294 M78.8,294h269.9V20H78.8V294 M455.2,294h248.6V20H455.2V294
					 M810.4,294h301.9V20H810.4V294"/>
			</defs>
			<clipPath id="SVGID_22_">
				<use xlink:href="#SVGID_21_"  style="overflow:visible;"/>
			</clipPath>
			<path id="stream0secstream" shape-rendering="geometricPrecision" class="st10" d="M46.8,132.1V157
				c177.6,0,177.6,24.9,355.2,24.9s177.6,0,355.2,0V157c-177.6,0-177.6,0-355.2,0S224.4,132.1,46.8,132.1"/>
		</g>
	</g>
</g>
<g transform="translate(-35.625779480230676,-17.262551867675455) scale(1.0417867971116148)">
</g>
<text transform="matrix(1 0 0 1 104.1245 323.4734)" class="st11 st12">January-February</text>
<text transform="matrix(1 0 0 1 497.1602 323.4731)" class="st11 st12">February-March</text>
</svg>
