<?xml version="1.0" encoding="utf-8"?>
<!-- Generator: Adobe Illustrator 20.0.0, SVG Export Plug-In . SVG Version: 6.00 Build 0)  -->
<svg version="1.1" id="Layer_1" xmlns="http://www.w3.org/2000/svg" xmlns:xlink="http://www.w3.org/1999/xlink" x="0px" y="0px"
	 viewBox="0 0 780 380" style="enable-background:new 0 0 780 380;" xml:space="preserve">
<style type="text/css">
	.st0{clip-path:url(#SVGID_2_);fill:#08306B;}
	.st1{clip-path:url(#SVGID_4_);fill:#1864AA;}
	.st2{clip-path:url(#SVGID_6_);fill:#1864AA;}
	.st3{clip-path:url(#SVGID_8_);fill:#1864AA;}
	.st4{clip-path:url(#SVGID_10_);fill:#4B97C9;}
	.st5{clip-path:url(#SVGID_12_);fill:#4B97C9;}
	.st6{clip-path:url(#SVGID_14_);fill:#4B97C9;}
	.st7{clip-path:url(#SVGID_16_);fill:#4B97C9;}
	.st8{clip-path:url(#SVGID_18_);fill:#93C3DF;}
	.st9{clip-path:url(#SVGID_20_);fill:#93C3DF;}
	.st10{clip-path:url(#SVGID_22_);fill:#93C3DF;}
	.st11{clip-path:url(#SVGID_24_);fill:#CFE1F2;}
	.st12{clip-path:url(#SVGID_26_);fill:#F7FBFF;}
	.st13{font-family:'ArialMT';}
	.st14{font-size:25px;}
</style>
<g>
	<g>
		<defs>
			<path id="SVGID_1_" d="M-226.7,327H20V20h-246.7V327 M20,327h246.7V20H20V327 M266.7,327h246.7V20H266.7V327 M513.3,327H760V20
				H513.3V327 M760,327h246.7V20H760V327"/>
		</defs>
		<clipPath id="SVGID_2_">
			<use xlink:href="#SVGID_1_"  style="overflow:visible;"/>
		</clipPath>
		<path id="streamfakeRootsecstream" shape-rendering="geometricPrecision" class="st0" d="M20,20v307c123.3,0,123.3,0,246.7,0
			s123.3,0,246.7,0s123.3,0,246.7,0V20c-123.3,0-123.3,0-246.7,0S390,20,266.7,20S143.3,20,20,20"/>
	</g>
	<g>
		<defs>
			<path id="SVGID_3_" d="M-226.7,327H12.6V20h-239.3V327 M27.4,327h231.9V20H27.4V327 M274.1,327h231.9V20H274.1V327 M520.7,327
				h231.9V20H520.7V327 M767.4,327h239.3V20H767.4V327"/>
		</defs>
		<clipPath id="SVGID_4_">
			<use xlink:href="#SVGID_3_"  style="overflow:visible;"/>
		</clipPath>
		<path id="stream8secstream" shape-rendering="geometricPrecision" class="st1" d="M20,250.2v70.8c123.3,0,123.3,0,246.7,0
			s123.3,0,246.7,0s123.3,0,246.7,0v-47.2c-123.3,0-123.3-47.2-246.7-47.2S390,250.2,266.7,250.2S143.3,250.2,20,250.2"/>
	</g>
	<g>
		<defs>
			<path id="SVGID_5_" d="M-226.7,327H12.6V20h-239.3V327 M27.4,327h231.9V20H27.4V327 M274.1,327h231.9V20H274.1V327 M520.7,327
				h231.9V20H520.7V327 M767.4,327h239.3V20H767.4V327"/>
		</defs>
		<clipPath id="SVGID_6_">
			<use xlink:href="#SVGID_5_"  style="overflow:visible;"/>
		</clipPath>
		<path id="stream12secstream" shape-rendering="geometricPrecision" class="st2" d="M20,173.5v70.8c123.3,0,123.3,0,246.7,0
			s123.3-23.6,246.7-23.6S636.7,268,760,268v-47.2c-123.3,0-123.3-47.2-246.7-47.2s-123.3,0-246.7,0S143.3,173.5,20,173.5"/>
	</g>
	<g>
		<defs>
			<path id="SVGID_7_" d="M-226.7,327H12.6V20h-239.3V327 M27.4,327h231.9V20H27.4V327 M274.1,327h231.9V20H274.1V327 M520.7,327
				h231.9V20H520.7V327 M767.4,327h239.3V20H767.4V327"/>
		</defs>
		<clipPath id="SVGID_8_">
			<use xlink:href="#SVGID_7_"  style="overflow:visible;"/>
		</clipPath>
		<path id="stream16secstream" shape-rendering="geometricPrecision" class="st3" d="M20,25.9v141.7c123.3,0,123.3,0,246.7,0
			s123.3,0,246.7,0s123.3,47.2,246.7,47.2V25.9c-123.3,0-123.3,0-246.7,0s-123.3,0-246.7,0S143.3,25.9,20,25.9"/>
	</g>
	<g>
		<defs>
			<path id="SVGID_9_" d="M-226.7,327H5.2V20h-231.9V327 M34.8,327h217.1V20H34.8V327 M281.5,327h217.1V20H281.5V327 M528.1,327
				h217.1V20H528.1V327 M774.8,327h231.9V20H774.8V327"/>
		</defs>
		<clipPath id="SVGID_10_">
			<use xlink:href="#SVGID_9_"  style="overflow:visible;"/>
		</clipPath>
		<path id="stream20secstream" shape-rendering="geometricPrecision" class="st4" d="M20,289.6v23.6c123.3,0,123.3,0,246.7,0
			s123.3,0,246.7,0s123.3-3.9,246.7-3.9v-23.6c-123.3,0-123.3-19.7-246.7-19.7S390,289.6,266.7,289.6S143.3,289.6,20,289.6"/>
	</g>
	<g>
		<defs>
			<path id="SVGID_11_" d="M-226.7,327H5.2V20h-231.9V327 M34.8,327h217.1V20H34.8V327 M281.5,327h217.1V20H281.5V327 M528.1,327
				h217.1V20H528.1V327 M774.8,327h231.9V20H774.8V327"/>
		</defs>
		<clipPath id="SVGID_12_">
			<use xlink:href="#SVGID_11_"  style="overflow:visible;"/>
		</clipPath>
		<path id="stream4secstream" shape-rendering="geometricPrecision" class="st5" d="M20,181.4V205c123.3,0,123.3,0,246.7,0
			s123.3,3.9,246.7,3.9s123.3,47.2,246.7,47.2v-23.6c-123.3,0-123.3-47.2-246.7-47.2s-123.3-3.9-246.7-3.9S143.3,181.4,20,181.4"/>
	</g>
	<g>
		<defs>
			<path id="SVGID_13_" d="M-226.7,327H5.2V20h-231.9V327 M34.8,327h217.1V20H34.8V327 M281.5,327h217.1V20H281.5V327 M528.1,327
				h217.1V20H528.1V327 M774.8,327h231.9V20H774.8V327"/>
		</defs>
		<clipPath id="SVGID_14_">
			<use xlink:href="#SVGID_13_"  style="overflow:visible;"/>
		</clipPath>
		<path id="stream40secstream" shape-rendering="geometricPrecision" class="st6" d="M20,61.3v47.2c123.3,0,123.3,0,246.7,0
			s123.3,51.2,246.7,51.2S636.7,207,760,207V88.9c-123.3,0-123.3-23.6-246.7-23.6S390,61.3,266.7,61.3S143.3,61.3,20,61.3"/>
	</g>
	<g>
		<defs>
			<path id="SVGID_15_" d="M-226.7,327H5.2V20h-231.9V327 M34.8,327h217.1V20H34.8V327 M281.5,327h217.1V20H281.5V327 M528.1,327
				h217.1V20H528.1V327 M774.8,327h231.9V20H774.8V327"/>
		</defs>
		<clipPath id="SVGID_16_">
			<use xlink:href="#SVGID_15_"  style="overflow:visible;"/>
		</clipPath>
		<path id="stream32secstream" shape-rendering="geometricPrecision" class="st7" d="M20,31.8v23.6c123.3,0,123.3,0,246.7,0
			s123.3,2,246.7,2S636.7,81,760,81V33.8c-123.3,0-123.3,0-246.7,0s-123.3-2-246.7-2S143.3,31.8,20,31.8"/>
	</g>
	<g>
		<defs>
			<path id="SVGID_17_" d="M-226.7,327H5.2V20h-231.9V327 M34.8,327h217.1V20H34.8V327 M281.5,327h217.1V20H281.5V327 M528.1,327
				h209.7V20H528.1V327 M782.2,327h224.5V20H782.2V327"/>
		</defs>
		<clipPath id="SVGID_18_">
			<use xlink:href="#SVGID_17_"  style="overflow:visible;"/>
		</clipPath>
		<path id="stream0secstream" shape-rendering="geometricPrecision" class="st8" d="M20,258.1v23.6c123.3,0,123.3,0,246.7,0
			s123.3-23.6,246.7-23.6S636.7,69.2,760,69.2V45.6c-123.3,0-123.3,188.9-246.7,188.9S390,258.1,266.7,258.1S143.3,258.1,20,258.1"
			/>
	</g>
	<g>
		<defs>
			<path id="SVGID_19_" d="M-226.7,327H5.2V20h-231.9V327 M34.8,327h217.1V20H34.8V327 M281.5,327h209.7V20H281.5V327 M535.5,327
				h202.3V20H535.5V327 M782.2,327h224.5V20H782.2V327"/>
		</defs>
		<clipPath id="SVGID_20_">
			<use xlink:href="#SVGID_19_"  style="overflow:visible;"/>
		</clipPath>
		<path id="stream24secstream" shape-rendering="geometricPrecision" class="st9" d="M20,114.5v47.2c123.3,0,123.3,0,246.7,0
			s123.3-9.8,246.7-9.8s123.3,47.2,246.7,47.2v-70.8c-123.3,0-123.3-23.6-246.7-23.6s-123.3,9.8-246.7,9.8S143.3,114.5,20,114.5"/>
	</g>
	<g>
		<defs>
			<path id="SVGID_21_" d="M-226.7,327H-2.2V20h-224.5V327 M42.2,327h202.3V20H42.2V327 M288.9,327h202.3V20H288.9V327 M535.5,327
				h202.3V20H535.5V327 M782.2,327h224.5V20H782.2V327"/>
		</defs>
		<clipPath id="SVGID_22_">
			<use xlink:href="#SVGID_21_"  style="overflow:visible;"/>
		</clipPath>
		<path id="stream44secstream" shape-rendering="geometricPrecision" class="st10" d="M20,73.1v23.6c123.3,0,123.3,0,246.7,0
			s123.3,0,246.7,0s123.3,23.6,246.7,23.6V96.8c-123.3,0-123.3-23.6-246.7-23.6s-123.3,0-246.7,0S143.3,73.1,20,73.1"/>
	</g>
	<g>
		<defs>
			<path id="SVGID_23_" d="M-226.7,327H-2.2V20h-224.5V327 M42.2,327h202.3V20H42.2V327 M288.9,327h194.9V20H288.9V327 M542.9,327
				h187.5V20H542.9V327 M789.6,327h217.1V20H789.6V327"/>
		</defs>
		<clipPath id="SVGID_24_">
			<use xlink:href="#SVGID_23_"  style="overflow:visible;"/>
		</clipPath>
		<path id="stream28secstream" shape-rendering="geometricPrecision" class="st11" d="M20,126.3v23.6c123.3,0,123.3,0,246.7,0
			S390,140,513.3,140s123.3,47.2,246.7,47.2V140c-123.3,0-123.3-23.6-246.7-23.6s-123.3,9.8-246.7,9.8S143.3,126.3,20,126.3"/>
	</g>
	<g>
		<defs>
			<path id="SVGID_25_" d="M-226.7,327H5.2V20h-231.9V327 M34.8,327h217.1V20H34.8V327 M281.5,327h209.7V20H281.5V327 M535.5,327
				H723V20H535.5V327 M797,327h209.7V20H797V327"/>
		</defs>
		<clipPath id="SVGID_26_">
			<use xlink:href="#SVGID_25_"  style="overflow:visible;"/>
		</clipPath>
		<path id="stream36secstream" shape-rendering="geometricPrecision" class="st12" d="M20,212.9v23.6c123.3,0,123.3,0,246.7,0
			s123.3,64.9,246.7,64.9S636.7,175.5,760,175.5v-23.6c-123.3,0-123.3,125.9-246.7,125.9S390,212.9,266.7,212.9
			S143.3,212.9,20,212.9"/>
	</g>
</g>
<text transform="matrix(1 0 0 1 42.1998 359.7051)" class="st13 st14">January-February</text>
<text transform="matrix(1 0 0 1 305.0667 359.7051)" class="st13 st14">February-March</text>
<text transform="matrix(1 0 0 1 585.7334 359.7051)" class="st13 st14">March-April</text>
</svg>
