<?xml version="1.0" encoding="utf-8"?>
<!-- Generator: Adobe Illustrator 20.0.0, SVG Export Plug-In . SVG Version: 6.00 Build 0)  -->
<svg version="1.1" id="Layer_1" xmlns="http://www.w3.org/2000/svg" xmlns:xlink="http://www.w3.org/1999/xlink" x="0px" y="0px"
	 viewBox="0 0 647 302" style="enable-background:new 0 0 647 302;" xml:space="preserve">
<style type="text/css">
	.st0{clip-path:url(#SVGID_2_);fill:#08306B;}
	.st1{clip-path:url(#SVGID_4_);fill:#3787C0;}
	.st2{clip-path:url(#SVGID_6_);fill:#ABCFE6;}
	.st3{clip-path:url(#SVGID_8_);fill:#F7FBFF;}
	.st4{font-family:'ArialMT';}
	.st5{font-size:25px;}
</style>
<g>
	<g>
		<defs>
			<polyline id="SVGID_1_" points="-596.5,252 1236.5,252 1236.5,20 -596.5,20 -596.5,252 			"/>
		</defs>
		<clipPath id="SVGID_2_">
			<use xlink:href="#SVGID_1_"  style="overflow:visible;"/>
		</clipPath>
		<path id="streamfakeRootstream" shape-rendering="geometricPrecision" class="st0" d="M14.5,20v232c305.5,0,305.5-29,611-29V49
			C320,49,320,20,14.5,20"/>
	</g>
	<g>
		<defs>
			<polyline id="SVGID_3_" points="-596.5,252 1236.5,252 1236.5,20 -596.5,20 -596.5,252 			"/>
		</defs>
		<clipPath id="SVGID_4_">
			<use xlink:href="#SVGID_3_"  style="overflow:visible;"/>
		</clipPath>
		<path id="stream4stream" shape-rendering="geometricPrecision" class="st1" d="M14.5,49v174c305.5,0,305.5-29,611-29V78
			C320,78,320,49,14.5,49"/>
	</g>
	<g>
		<defs>
			<polyline id="SVGID_5_" points="-596.5,252 1236.5,252 1236.5,20 -596.5,20 -596.5,252 			"/>
		</defs>
		<clipPath id="SVGID_6_">
			<use xlink:href="#SVGID_5_"  style="overflow:visible;"/>
		</clipPath>
		<path id="stream2stream" shape-rendering="geometricPrecision" class="st2" d="M14.5,78v116c305.5,0,305.5-29,611-29v-58
			C320,107,320,78,14.5,78"/>
	</g>
	<g>
		<defs>
			<polyline id="SVGID_7_" points="-596.5,252 625.5,252 625.5,20 -596.5,20 -596.5,252 			"/>
		</defs>
		<clipPath id="SVGID_8_">
			<use xlink:href="#SVGID_7_"  style="overflow:visible;"/>
		</clipPath>
		<path id="stream0stream" shape-rendering="geometricPrecision" class="st3" d="M14.5,107v58C274.2,165,274.2,107,14.5,107"/>
	</g>
</g>
<text transform="matrix(1 0 0 1 24.1245 287.4734)" class="st4 st5">January</text>
<text transform="matrix(1 0 0 1 516.1245 283.0195)" class="st4 st5">February</text>
</svg>
