<?xml version="1.0" encoding="utf-8"?>
<!-- Generator: Adobe Illustrator 20.0.0, SVG Export Plug-In . SVG Version: 6.00 Build 0)  -->
<svg version="1.1" id="Layer_1" xmlns="http://www.w3.org/2000/svg" xmlns:xlink="http://www.w3.org/1999/xlink" x="0px" y="0px"
	 viewBox="0 0 624 395" style="enable-background:new 0 0 624 395;" xml:space="preserve">
<style type="text/css">
	.st0{clip-path:url(#SVGID_2_);fill:#08306B;}
	.st1{clip-path:url(#SVGID_4_);fill:#6DAED5;}
	.st2{clip-path:url(#SVGID_6_);fill:#6DAED5;}
	.st3{clip-path:url(#SVGID_8_);fill:#F7FBFF;}
	.st4{clip-path:url(#SVGID_10_);fill:#F7FBFF;}
	.st5{font-family:'ArialMT';}
	.st6{font-size:40px;}
</style>
<g transform="translate(0,0) scale(1)">
	<g>
		<defs>
			<polyline id="SVGID_1_" points="-564,328 1188,328 1188,20 -564,20 -564,328 			"/>
		</defs>
		<clipPath id="SVGID_2_">
			<use xlink:href="#SVGID_1_"  style="overflow:visible;"/>
		</clipPath>
		<path id="streamfakeRootstream" shape-rendering="geometricPrecision" class="st0" d="M20,20v308c292,0,292,0,584,0V20
			C312,20,312,20,20,20"/>
	</g>
	<g>
		<defs>
			<polyline id="SVGID_3_" points="-564,328 1188,328 1188,20 -564,20 -564,328 			"/>
		</defs>
		<clipPath id="SVGID_4_">
			<use xlink:href="#SVGID_3_"  style="overflow:visible;"/>
		</clipPath>
		<path id="stream0stream" shape-rendering="geometricPrecision" class="st1" d="M20,245.9v61.6c292,0,292,0,584,0v-61.6
			C312,245.9,312,245.9,20,245.9"/>
	</g>
	<g>
		<defs>
			<polyline id="SVGID_5_" points="-564,328 1188,328 1188,20 -564,20 -564,328 			"/>
		</defs>
		<clipPath id="SVGID_6_">
			<use xlink:href="#SVGID_5_"  style="overflow:visible;"/>
		</clipPath>
		<path id="stream2stream" shape-rendering="geometricPrecision" class="st2" d="M20,40.5v184.8c292,0,292,0,584,0V40.5
			C312,40.5,312,40.5,20,40.5"/>
	</g>
	<g>
		<defs>
			<polyline id="SVGID_7_" points="-564,328 1188,328 1188,20 -564,20 -564,328 			"/>
		</defs>
		<clipPath id="SVGID_8_">
			<use xlink:href="#SVGID_7_"  style="overflow:visible;"/>
		</clipPath>
		<path id="stream4stream" shape-rendering="geometricPrecision" class="st3" d="M20,143.2v61.6c292,0,292,0,584,0v-61.6
			C312,143.2,312,143.2,20,143.2"/>
	</g>
	<g>
		<defs>
			<polyline id="SVGID_9_" points="-564,328 1188,328 1188,20 -564,20 -564,328 			"/>
		</defs>
		<clipPath id="SVGID_10_">
			<use xlink:href="#SVGID_9_"  style="overflow:visible;"/>
		</clipPath>
		<path id="stream6stream" shape-rendering="geometricPrecision" class="st4" d="M20,61.1v61.6c292,0,292,0,584,0V61.1
			C312,61.1,312,61.1,20,61.1"/>
	</g>
</g>
<g transform="translate(0,0) scale(1)">
</g>
<text transform="matrix(1 0 0 1 45.52 371.2139)" class="st5 st6">January</text>
<text transform="matrix(1 0 0 1 432.04 371.2139)" class="st5 st6">February</text>
</svg>
