<?xml version="1.0" encoding="utf-8"?>
<!-- Generator: Adobe Illustrator 20.0.0, SVG Export Plug-In . SVG Version: 6.00 Build 0)  -->
<svg version="1.1" id="Layer_1" xmlns="http://www.w3.org/2000/svg" xmlns:xlink="http://www.w3.org/1999/xlink" x="0px" y="0px"
	 viewBox="0 0 624 394" style="enable-background:new 0 0 624 394;" xml:space="preserve">
<style type="text/css">
	.st0{clip-path:url(#SVGID_2_);fill:#08306B;}
	.st1{clip-path:url(#SVGID_4_);fill:#2271B4;}
	.st2{clip-path:url(#SVGID_6_);fill:#6DAED5;}
	.st3{clip-path:url(#SVGID_8_);fill:#C3DBEE;}
	.st4{clip-path:url(#SVGID_10_);fill:#F7FBFF;}
	.st5{font-family:'ArialMT';}
	.st6{font-size:35px;}
</style>
<g>
	<g>
		<defs>
			<polyline id="SVGID_1_" points="-272,328 896,328 896,20 -272,20 -272,328 			"/>
		</defs>
		<clipPath id="SVGID_2_">
			<use xlink:href="#SVGID_1_"  style="overflow:visible;"/>
		</clipPath>
		<path id="streamfakeRootstream" shape-rendering="geometricPrecision" class="st0" d="M20,20v308c146,0,146,0,292,0s146,0,292,0
			V20c-146,0-146,0-292,0S166,20,20,20"/>
	</g>
	<g>
		<defs>
			<polyline id="SVGID_3_" points="-272,328 896,328 896,20 -272,20 -272,328 			"/>
		</defs>
		<clipPath id="SVGID_4_">
			<use xlink:href="#SVGID_3_"  style="overflow:visible;"/>
		</clipPath>
		<path id="stream9stream" shape-rendering="geometricPrecision" class="st1" d="M20,50.8v246.4c146,0,146,0,292,0s146,0,292,0V50.8
			c-146,0-146,0-292,0S166,50.8,20,50.8"/>
	</g>
	<g>
		<defs>
			<polyline id="SVGID_5_" points="-272,328 896,328 896,20 -272,20 -272,328 			"/>
		</defs>
		<clipPath id="SVGID_6_">
			<use xlink:href="#SVGID_5_"  style="overflow:visible;"/>
		</clipPath>
		<path id="stream0stream" shape-rendering="geometricPrecision" class="st2" d="M20,71.3v61.6c146,0,146,0,292,0
			s146,133.5,292,133.5V81.6c-146,0-146-10.3-292-10.3S166,71.3,20,71.3"/>
	</g>
	<g>
		<defs>
			<polyline id="SVGID_7_" points="-272,328 896,328 896,20 -272,20 -272,328 			"/>
		</defs>
		<clipPath id="SVGID_8_">
			<use xlink:href="#SVGID_7_"  style="overflow:visible;"/>
		</clipPath>
		<path id="stream6stream" shape-rendering="geometricPrecision" class="st3" d="M20,153.5v123.2c146,0,146,0,292,0
			s146-41.1,292-41.1V112.4c-146,0-146,41.1-292,41.1S166,153.5,20,153.5"/>
	</g>
	<g>
		<defs>
			<polyline id="SVGID_9_" points="-272,328 896,328 896,20 -272,20 -272,328 			"/>
		</defs>
		<clipPath id="SVGID_10_">
			<use xlink:href="#SVGID_9_"  style="overflow:visible;"/>
		</clipPath>
		<path id="stream3stream" shape-rendering="geometricPrecision" class="st4" d="M20,184.3v61.6c146,0,146,0,292,0
			s146-41.1,292-41.1v-61.6c-146,0-146,41.1-292,41.1S166,184.3,20,184.3"/>
	</g>
</g>
<text transform="matrix(1 0 0 1 19.556 368.2139)" class="st5 st6">January</text>
<text transform="matrix(1 0 0 1 233.3269 368.2144)" class="st5 st6">February</text>
<text transform="matrix(1 0 0 1 507.3269 368.2139)" class="st5 st6">March</text>
</svg>
