<?xml version="1.0" encoding="utf-8"?>
<!-- Generator: Adobe Illustrator 20.0.0, SVG Export Plug-In . SVG Version: 6.00 Build 0)  -->
<svg version="1.1" id="Layer_1" xmlns="http://www.w3.org/2000/svg" xmlns:xlink="http://www.w3.org/1999/xlink" x="0px" y="0px"
	 viewBox="0 0 836 349" style="enable-background:new 0 0 836 349;" xml:space="preserve">
<style type="text/css">
	.st0{clip-path:url(#SVGID_2_);fill:#08306B;}
	.st1{clip-path:url(#SVGID_4_);fill:#6DAED5;}
	.st2{clip-path:url(#SVGID_6_);fill:#6DAED5;}
	.st3{clip-path:url(#SVGID_8_);fill:#F7FBFF;}
	.st4{clip-path:url(#SVGID_10_);fill:#F7FBFF;}
	.st5{clip-path:url(#SVGID_12_);fill:#F7FBFF;}
	.st6{font-family:'ArialMT';}
	.st7{font-size:25px;}
</style>
<g>
	<g>
		<defs>
			<polyline id="SVGID_1_" points="-179,282 1015,282 1015,20 -179,20 -179,282 			"/>
		</defs>
		<clipPath id="SVGID_2_">
			<use xlink:href="#SVGID_1_"  style="overflow:visible;"/>
		</clipPath>
		<path id="streamfakeRootstream" shape-rendering="geometricPrecision" class="st0" d="M20,20v262c99.5,0,99.5,0,199,0
			s99.5,0,199,0s99.5,0,199,0s99.5-52.4,199-52.4V72.4c-99.5,0-99.5-52.4-199-52.4s-99.5,0-199,0s-99.5,0-199,0S119.5,20,20,20"/>
	</g>
	<g>
		<defs>
			<polyline id="SVGID_3_" points="-179,282 1015,282 1015,20 -179,20 -179,282 			"/>
		</defs>
		<clipPath id="SVGID_4_">
			<use xlink:href="#SVGID_3_"  style="overflow:visible;"/>
		</clipPath>
		<path id="stream10stream" shape-rendering="geometricPrecision" class="st1" d="M20,159.7v104.8c99.5,0,99.5,0,199,0s99.5,0,199,0
			s99.5,0,199,0s99.5-52.4,199-52.4v-52.4c-99.5,0-99.5,52.4-199,52.4s-99.5,0-199,0s-99.5,0-199,0S119.5,159.7,20,159.7"/>
	</g>
	<g>
		<defs>
			<polyline id="SVGID_5_" points="-179,282 1015,282 1015,20 -179,20 -179,282 			"/>
		</defs>
		<clipPath id="SVGID_6_">
			<use xlink:href="#SVGID_5_"  style="overflow:visible;"/>
		</clipPath>
		<path id="stream15stream" shape-rendering="geometricPrecision" class="st2" d="M20,37.5v104.8c99.5,0,99.5,52.4,199,52.4
			s99.5,0,199,0s99.5,0,199,0s99.5-52.4,199-52.4V89.9c-99.5,0-99.5-52.4-199-52.4s-99.5,0-199,0s-99.5,0-199,0S119.5,37.5,20,37.5"
			/>
	</g>
	<g>
		<defs>
			<polyline id="SVGID_7_" points="-179,282 219,282 219,20 -179,20 -179,282 			"/>
		</defs>
		<clipPath id="SVGID_8_">
			<use xlink:href="#SVGID_7_"  style="overflow:visible;"/>
		</clipPath>
		<path id="stream5stream" shape-rendering="geometricPrecision" class="st3" d="M20,185.9v52.4C95.6,238.3,95.6,185.9,20,185.9"/>
	</g>
	<g>
		<defs>
			<polyline id="SVGID_9_" points="-179,282 816,282 816,20 -179,20 -179,282 			"/>
		</defs>
		<clipPath id="SVGID_10_">
			<use xlink:href="#SVGID_9_"  style="overflow:visible;"/>
		</clipPath>
		<path id="stream20stream" shape-rendering="geometricPrecision" class="st4" d="M20,63.7v52.4c99.5,0,99.5,61.1,199,61.1
			s99.5,0,199,0s99.5,0,199,0c75.6,0,75.6-52.4,0-52.4c-99.5,0-99.5,0-199,0s-99.5,0-199,0S119.5,63.7,20,63.7"/>
	</g>
	<g>
		<defs>
			<polyline id="SVGID_11_" points="-179,282 816,282 816,20 -179,20 -179,282 			"/>
		</defs>
		<clipPath id="SVGID_12_">
			<use xlink:href="#SVGID_11_"  style="overflow:visible;"/>
		</clipPath>
		<path id="stream26stream" shape-rendering="geometricPrecision" class="st5" d="M219,54.9c-75.6,0-75.6,52.4,0,52.4
			c99.5,0,99.5,0,199,0s99.5,0,199,0c75.6,0,75.6-52.4,0-52.4c-99.5,0-99.5,0-199,0S318.5,54.9,219,54.9"/>
	</g>
</g>
<text transform="matrix(1 0 0 1 24.6722 322.3669)" class="st6 st7">January</text>
<text transform="matrix(1 0 0 1 223.6722 322.3669)" class="st6 st7">February</text>
<text transform="matrix(1 0 0 1 393.991 322.3671)" class="st6 st7">March</text>
<text transform="matrix(1 0 0 1 600.7461 322.3671)" class="st6 st7">April</text>
<text transform="matrix(1 0 0 1 757.9661 322.3672)" class="st6 st7">May</text>
</svg>
