<?xml version="1.0" encoding="utf-8"?>
<!-- Generator: Adobe Illustrator 20.0.0, SVG Export Plug-In . SVG Version: 6.00 Build 0)  -->
<svg version="1.1"
	 id="svg948" inkscape:version="0.92.3 (2405546, 2018-03-11)" sodipodi:docname="Question3stream.svg" xmlns:cc="http://creativecommons.org/ns#" xmlns:dc="http://purl.org/dc/elements/1.1/" xmlns:inkscape="http://www.inkscape.org/namespaces/inkscape" xmlns:rdf="http://www.w3.org/1999/02/22-rdf-syntax-ns#" xmlns:sodipodi="http://sodipodi.sourceforge.net/DTD/sodipodi-0.dtd" xmlns:svg="http://www.w3.org/2000/svg"
	 xmlns="http://www.w3.org/2000/svg" xmlns:xlink="http://www.w3.org/1999/xlink" x="0px" y="0px" viewBox="0 0 583.5 265"
	 style="enable-background:new 0 0 583.5 265;" xml:space="preserve">
<style type="text/css">
	.st0{fill:#F41111;}
	.st1{clip-path:url(#SVGID_2_);fill:#08306B;}
	.st2{clip-path:url(#SVGID_4_);fill:#1864AA;}
	.st3{clip-path:url(#SVGID_6_);fill:#1864AA;}
	.st4{clip-path:url(#SVGID_8_);fill:#4B97C9;}
	.st5{clip-path:url(#SVGID_10_);fill:#4B97C9;}
	.st6{clip-path:url(#SVGID_12_);fill:#4B97C9;}
	.st7{clip-path:url(#SVGID_14_);fill:#4B97C9;}
	.st8{clip-path:url(#SVGID_16_);fill:#4B97C9;}
	.st9{clip-path:url(#SVGID_18_);fill:#93C3DF;}
	.st10{clip-path:url(#SVGID_20_);fill:#93C3DF;}
	.st11{clip-path:url(#SVGID_22_);fill:#93C3DF;}
	.st12{clip-path:url(#SVGID_24_);fill:#93C3DF;}
	.st13{clip-path:url(#SVGID_26_);fill:#CFE1F2;}
	.st14{clip-path:url(#SVGID_28_);fill:#CFE1F2;}
	.st15{clip-path:url(#SVGID_30_);fill:#CFE1F2;}
	.st16{clip-path:url(#SVGID_32_);fill:#F7FBFF;}
	.st17{font-family:'ArialMT';}
	.st18{font-size:25px;}
</style>
<sodipodi:namedview  bordercolor="#666666" borderopacity="1.0" id="base" inkscape:current-layer="layer1" inkscape:cx="147.82661" inkscape:cy="37.780692" inkscape:document-units="mm" inkscape:pageopacity="0.0" inkscape:pageshadow="2" inkscape:window-height="1147" inkscape:window-maximized="1" inkscape:window-width="1920" inkscape:window-x="-8" inkscape:window-y="-8" inkscape:zoom="0.7" pagecolor="#ffffff" showgrid="false">
	</sodipodi:namedview>
<g id="layer1" transform="translate(-26.669075,-76.944474)" inkscape:groupmode="layer" inkscape:label="Layer 1">
	<rect id="rect2005" x="26.7" y="201.3" class="st0" width="28.5" height="13.7"/>
	<g id="g2133" transform="matrix(0.26458333,0,0,0.26458333,31.415891,71.652807)">
		<g id="g2073">
			<g>
				<defs>
					<polyline id="SVGID_1_" points="-2008,847.7 4284.9,847.7 4284.9,20 -2008,20 -2008,847.7 					"/>
				</defs>
				<clipPath id="SVGID_2_">
					<use xlink:href="#SVGID_1_"  style="overflow:visible;"/>
				</clipPath>
				<path id="streamfakeRootstream" inkscape:connector-curvature="0" class="st1" d="M89.6,20v827.7c1048.8,0,1048.8,0,2097.6,0V20
					C1138.4,20,1138.4,20,89.6,20"/>
			</g>
			<g>
				<defs>
					<polyline id="SVGID_3_" points="-2008,847.7 4284.9,847.7 4284.9,20 -2008,20 -2008,847.7 					"/>
				</defs>
				<clipPath id="SVGID_4_">
					<use xlink:href="#SVGID_3_"  style="overflow:visible;"/>
				</clipPath>
				<path id="stream2stream" inkscape:connector-curvature="0" class="st2" d="M89.6,571.8v258.7c1048.8,0,1048.8,0,2097.6,0V571.8
					C1138.4,571.8,1138.4,571.8,89.6,571.8"/>
			</g>
			<g>
				<defs>
					<polyline id="SVGID_5_" points="-2008,847.7 4284.9,847.7 4284.9,20 -2008,20 -2008,847.7 					"/>
				</defs>
				<clipPath id="SVGID_6_">
					<use xlink:href="#SVGID_5_"  style="overflow:visible;"/>
				</clipPath>
				<path id="stream20stream" inkscape:connector-curvature="0" class="st3" d="M89.6,37.2v517.3c1048.8,0,1048.8,0,2097.6,0V37.2
					C1138.4,37.2,1138.4,37.2,89.6,37.2"/>
			</g>
			<g>
				<defs>
					<polyline id="SVGID_7_" points="-2008,847.7 4284.9,847.7 4284.9,20 -2008,20 -2008,847.7 					"/>
				</defs>
				<clipPath id="SVGID_8_">
					<use xlink:href="#SVGID_7_"  style="overflow:visible;"/>
				</clipPath>
				<path id="stream16stream" inkscape:connector-curvature="0" class="st4" d="M89.6,658v155.2c1048.8,0,1048.8,0,2097.6,0V658
					C1138.4,658,1138.4,658,89.6,658"/>
			</g>
			<g>
				<defs>
					<polyline id="SVGID_9_" points="-2008,847.7 4284.9,847.7 4284.9,20 -2008,20 -2008,847.7 					"/>
				</defs>
				<clipPath id="SVGID_10_">
					<use xlink:href="#SVGID_9_"  style="overflow:visible;"/>
				</clipPath>
				<path id="stream12stream" inkscape:connector-curvature="0" class="st5" d="M89.6,589.1v51.7c1048.8,0,1048.8,0,2097.6,0v-51.7
					C1138.4,589.1,1138.4,589.1,89.6,589.1"/>
			</g>
			<g>
				<defs>
					<polyline id="SVGID_11_" points="-2008,847.7 4284.9,847.7 4284.9,20 -2008,20 -2008,847.7 					"/>
				</defs>
				<clipPath id="SVGID_12_">
					<use xlink:href="#SVGID_11_"  style="overflow:visible;"/>
				</clipPath>
				<path id="stream8stream" inkscape:connector-curvature="0" class="st6" d="M89.6,489.9v51.7c1048.8,0,1048.8,0,2097.6,0v-51.7
					C1138.4,489.9,1138.4,489.9,89.6,489.9"/>
			</g>
			<g>
				<defs>
					<polyline id="SVGID_13_" points="-2008,847.7 4284.9,847.7 4284.9,20 -2008,20 -2008,847.7 					"/>
				</defs>
				<clipPath id="SVGID_14_">
					<use xlink:href="#SVGID_13_"  style="overflow:visible;"/>
				</clipPath>
				<path id="stream22stream" inkscape:connector-curvature="0" class="st7" d="M89.6,218.3V477c1048.8,0,1048.8,0,2097.6,0V218.3
					C1138.4,218.3,1138.4,218.3,89.6,218.3"/>
			</g>
			<g>
				<defs>
					<polyline id="SVGID_15_" points="-2008,847.7 4284.9,847.7 4284.9,20 -2008,20 -2008,847.7 					"/>
				</defs>
				<clipPath id="SVGID_16_">
					<use xlink:href="#SVGID_15_"  style="overflow:visible;"/>
				</clipPath>
				<path id="stream24stream" inkscape:connector-curvature="0" class="st8" d="M89.6,50.2v155.2c1048.8,0,1048.8,0,2097.6,0V50.2
					C1138.4,50.2,1138.4,50.2,89.6,50.2"/>
			</g>
			<g>
				<defs>
					<polyline id="SVGID_17_" points="-2008,847.7 4284.9,847.7 4284.9,20 -2008,20 -2008,847.7 					"/>
				</defs>
				<clipPath id="SVGID_18_">
					<use xlink:href="#SVGID_17_"  style="overflow:visible;"/>
				</clipPath>
				<path id="stream14stream" inkscape:connector-curvature="0" class="st9" d="M89.6,683.9v103.5c1048.8,0,1048.8,0,2097.6,0V683.9
					C1138.4,683.9,1138.4,683.9,89.6,683.9"/>
			</g>
			<g>
				<defs>
					<polyline id="SVGID_19_" points="-2008,847.7 4284.9,847.7 4284.9,20 -2008,20 -2008,847.7 					"/>
				</defs>
				<clipPath id="SVGID_20_">
					<use xlink:href="#SVGID_19_"  style="overflow:visible;"/>
				</clipPath>
				<path id="stream4stream" inkscape:connector-curvature="0" class="st10" d="M89.6,244.2v206.9c1048.8,0,1048.8,0,2097.6,0V244.2
					C1138.4,244.2,1138.4,244.2,89.6,244.2"/>
			</g>
			<g>
				<defs>
					<polyline id="SVGID_21_" points="-2008,847.7 4284.9,847.7 4284.9,20 -2008,20 -2008,847.7 					"/>
				</defs>
				<clipPath id="SVGID_22_">
					<use xlink:href="#SVGID_21_"  style="overflow:visible;"/>
				</clipPath>
				<path id="stream18stream" inkscape:connector-curvature="0" class="st11" d="M89.6,136.4v51.7c1048.8,0,1048.8,0,2097.6,0v-51.7
					C1138.4,136.4,1138.4,136.4,89.6,136.4"/>
			</g>
			<g>
				<defs>
					<polyline id="SVGID_23_" points="-2008,847.7 4284.9,847.7 4284.9,20 -2008,20 -2008,847.7 					"/>
				</defs>
				<clipPath id="SVGID_24_">
					<use xlink:href="#SVGID_23_"  style="overflow:visible;"/>
				</clipPath>
				<path id="stream0stream" inkscape:connector-curvature="0" class="st12" d="M89.6,67.4v51.7c1048.8,0,1048.8,0,2097.6,0V67.4
					C1138.4,67.4,1138.4,67.4,89.6,67.4"/>
			</g>
			<g>
				<defs>
					<polyline id="SVGID_25_" points="-2008,847.7 4284.9,847.7 4284.9,20 -2008,20 -2008,847.7 					"/>
				</defs>
				<clipPath id="SVGID_26_">
					<use xlink:href="#SVGID_25_"  style="overflow:visible;"/>
				</clipPath>
				<path id="stream28stream" inkscape:connector-curvature="0" class="st13" d="M89.6,709.8v51.7c1048.8,0,1048.8,0,2097.6,0v-51.7
					C1138.4,709.8,1138.4,709.8,89.6,709.8"/>
			</g>
			<g>
				<defs>
					<polyline id="SVGID_27_" points="-2008,847.7 4284.9,847.7 4284.9,20 -2008,20 -2008,847.7 					"/>
				</defs>
				<clipPath id="SVGID_28_">
					<use xlink:href="#SVGID_27_"  style="overflow:visible;"/>
				</clipPath>
				<path id="stream26stream" inkscape:connector-curvature="0" class="st14" d="M89.6,382.1v51.7c1048.8,0,1048.8,0,2097.6,0v-51.7
					C1138.4,382.1,1138.4,382.1,89.6,382.1"/>
			</g>
			<g>
				<defs>
					<polyline id="SVGID_29_" points="-2008,847.7 4284.9,847.7 4284.9,20 -2008,20 -2008,847.7 					"/>
				</defs>
				<clipPath id="SVGID_30_">
					<use xlink:href="#SVGID_29_"  style="overflow:visible;"/>
				</clipPath>
				<path id="stream10stream" inkscape:connector-curvature="0" class="st15" d="M89.6,261.4v103.5c1048.8,0,1048.8,0,2097.6,0
					V261.4C1138.4,261.4,1138.4,261.4,89.6,261.4"/>
			</g>
			<g>
				<defs>
					<polyline id="SVGID_31_" points="-2008,847.7 4284.9,847.7 4284.9,20 -2008,20 -2008,847.7 					"/>
				</defs>
				<clipPath id="SVGID_32_">
					<use xlink:href="#SVGID_31_"  style="overflow:visible;"/>
				</clipPath>
				<path id="stream6stream" inkscape:connector-curvature="0" class="st16" d="M89.6,287.3V339c1048.8,0,1048.8,0,2097.6,0v-51.7
					C1138.4,287.3,1138.4,287.3,89.6,287.3"/>
			</g>
		</g>
		<g id="g2075">
		</g>
	</g>
	<text transform="matrix(1 0 0 1 69.7252 320.6579)" class="st17 st18">January</text>
	<text transform="matrix(1 0 0 1 492.9961 320.6576)" class="st17 st18">February</text>
</g>
</svg>
