<?xml version="1.0" encoding="utf-8"?>
<!-- Generator: Adobe Illustrator 20.0.0, SVG Export Plug-In . SVG Version: 6.00 Build 0)  -->
<svg version="1.1" id="Layer_1" xmlns="http://www.w3.org/2000/svg" xmlns:xlink="http://www.w3.org/1999/xlink" x="0px" y="0px"
	 viewBox="0 0 589.9 352.6" style="enable-background:new 0 0 589.9 352.6;" xml:space="preserve">
<style type="text/css">
	.st0{clip-path:url(#SVGID_2_);fill:#08306B;}
	.st1{clip-path:url(#SVGID_4_);fill:#1864AA;}
	.st2{clip-path:url(#SVGID_6_);fill:#4B97C9;}
	.st3{clip-path:url(#SVGID_8_);fill:#4B97C9;}
	.st4{clip-path:url(#SVGID_10_);fill:#93C3DF;}
	.st5{clip-path:url(#SVGID_12_);fill:#93C3DF;}
	.st6{clip-path:url(#SVGID_14_);fill:#CFE1F2;}
	.st7{clip-path:url(#SVGID_16_);fill:#CFE1F2;}
	.st8{clip-path:url(#SVGID_18_);fill:#F7FBFF;}
	.st9{font-family:'ArialMT';}
	.st10{font-size:25px;}
</style>
<g transform="translate(-36.60336195540276,-5.6709137864040144) scale(1.022428530609928)">
	<g>
		<defs>
			<polyline id="SVGID_1_" points="-493,311 1135.5,311 1135.5,20 -493,20 -493,311 			"/>
		</defs>
		<clipPath id="SVGID_2_">
			<use xlink:href="#SVGID_1_"  style="overflow:visible;"/>
		</clipPath>
		<path id="streamfakeRootstream" shape-rendering="geometricPrecision" class="st0" d="M49.8,20v291c271.4,0,271.4,0,542.8,0V20
			C321.2,20,321.2,20,49.8,20"/>
	</g>
	<g>
		<defs>
			<polyline id="SVGID_3_" points="-493,311 1135.5,311 1135.5,20 -493,20 -493,311 			"/>
		</defs>
		<clipPath id="SVGID_4_">
			<use xlink:href="#SVGID_3_"  style="overflow:visible;"/>
		</clipPath>
		<path id="stream0stream" shape-rendering="geometricPrecision" class="st1" d="M49.8,36.2v258.7c271.4,0,271.4,0,542.8,0V36.2
			C321.2,36.2,321.2,36.2,49.8,36.2"/>
	</g>
	<g>
		<defs>
			<polyline id="SVGID_5_" points="-493,311 1135.5,311 1135.5,20 -493,20 -493,311 			"/>
		</defs>
		<clipPath id="SVGID_6_">
			<use xlink:href="#SVGID_5_"  style="overflow:visible;"/>
		</clipPath>
		<path id="stream6stream" shape-rendering="geometricPrecision" class="st2" d="M49.8,90.1v194c271.4,0,271.4,0,542.8,0v-194
			C321.2,90.1,321.2,90.1,49.8,90.1"/>
	</g>
	<g>
		<defs>
			<polyline id="SVGID_7_" points="-493,311 1135.5,311 1135.5,20 -493,20 -493,311 			"/>
		</defs>
		<clipPath id="SVGID_8_">
			<use xlink:href="#SVGID_7_"  style="overflow:visible;"/>
		</clipPath>
		<path id="stream2stream" shape-rendering="geometricPrecision" class="st3" d="M49.8,46.9v32.3c271.4,0,271.4,0,542.8,0V46.9
			C321.2,46.9,321.2,46.9,49.8,46.9"/>
	</g>
	<g>
		<defs>
			<polyline id="SVGID_9_" points="-493,311 1135.5,311 1135.5,20 -493,20 -493,311 			"/>
		</defs>
		<clipPath id="SVGID_10_">
			<use xlink:href="#SVGID_9_"  style="overflow:visible;"/>
		</clipPath>
		<path id="stream8stream" shape-rendering="geometricPrecision" class="st4" d="M49.8,143.9v129.3c271.4,0,271.4,0,542.8,0V143.9
			C321.2,143.9,321.2,143.9,49.8,143.9"/>
	</g>
	<g>
		<defs>
			<polyline id="SVGID_11_" points="-493,311 1135.5,311 1135.5,20 -493,20 -493,311 			"/>
		</defs>
		<clipPath id="SVGID_12_">
			<use xlink:href="#SVGID_11_"  style="overflow:visible;"/>
		</clipPath>
		<path id="stream12stream" shape-rendering="geometricPrecision" class="st5" d="M49.8,100.8v32.3c271.4,0,271.4,0,542.8,0v-32.3
			C321.2,100.8,321.2,100.8,49.8,100.8"/>
	</g>
	<g>
		<defs>
			<polyline id="SVGID_13_" points="-493,311 1135.5,311 1135.5,20 -493,20 -493,311 			"/>
		</defs>
		<clipPath id="SVGID_14_">
			<use xlink:href="#SVGID_13_"  style="overflow:visible;"/>
		</clipPath>
		<path id="stream14stream" shape-rendering="geometricPrecision" class="st6" d="M49.8,197.8v64.7c271.4,0,271.4,0,542.8,0v-64.7
			C321.2,197.8,321.2,197.8,49.8,197.8"/>
	</g>
	<g>
		<defs>
			<polyline id="SVGID_15_" points="-493,311 1135.5,311 1135.5,20 -493,20 -493,311 			"/>
		</defs>
		<clipPath id="SVGID_16_">
			<use xlink:href="#SVGID_15_"  style="overflow:visible;"/>
		</clipPath>
		<path id="stream10stream" shape-rendering="geometricPrecision" class="st7" d="M49.8,154.7v32.3c271.4,0,271.4,0,542.8,0v-32.3
			C321.2,154.7,321.2,154.7,49.8,154.7"/>
	</g>
	<g>
		<defs>
			<polyline id="SVGID_17_" points="-493,311 1135.5,311 1135.5,20 -493,20 -493,311 			"/>
		</defs>
		<clipPath id="SVGID_18_">
			<use xlink:href="#SVGID_17_"  style="overflow:visible;"/>
		</clipPath>
		<path id="stream4stream" shape-rendering="geometricPrecision" class="st8" d="M49.8,214v32.3c271.4,0,271.4,0,542.8,0V214
			C321.2,214,321.2,214,49.8,214"/>
	</g>
</g>
<g transform="translate(-36.60336195540276,-5.6709137864040144) scale(1.022428530609928)">
</g>
<text transform="matrix(1 0 0 1 28.7234 339.7051)" class="st9 st10">January</text>
<text transform="matrix(1 0 0 1 463.9936 339.7047)" class="st9 st10">February</text>
</svg>
