<?xml version="1.0" encoding="utf-8"?>
<!-- Generator: Adobe Illustrator 20.0.0, SVG Export Plug-In . SVG Version: 6.00 Build 0)  -->
<svg version="1.1" id="Layer_1" xmlns="http://www.w3.org/2000/svg" xmlns:xlink="http://www.w3.org/1999/xlink" x="0px" y="0px"
	 viewBox="0 0 780 375" style="enable-background:new 0 0 780 375;" xml:space="preserve">
<style type="text/css">
	.st0{clip-path:url(#SVGID_2_);fill:#08306B;}
	.st1{clip-path:url(#SVGID_4_);fill:#2271B4;}
	.st2{clip-path:url(#SVGID_6_);fill:#2271B4;}
	.st3{clip-path:url(#SVGID_8_);fill:#2271B4;}
	.st4{clip-path:url(#SVGID_10_);fill:#6DAED5;}
	.st5{clip-path:url(#SVGID_12_);fill:#6DAED5;}
	.st6{clip-path:url(#SVGID_14_);fill:#6DAED5;}
	.st7{clip-path:url(#SVGID_16_);fill:#6DAED5;}
	.st8{clip-path:url(#SVGID_18_);fill:#C3DBEE;}
	.st9{clip-path:url(#SVGID_20_);fill:#F7FBFF;}
	.st10{font-family:'ArialMT';}
	.st11{font-size:25px;}
</style>
<g>
	<g>
		<defs>
			<polyline id="SVGID_1_" points="-350,312 1130,312 1130,20 -350,20 -350,312 			"/>
		</defs>
		<clipPath id="SVGID_2_">
			<use xlink:href="#SVGID_1_"  style="overflow:visible;"/>
		</clipPath>
		<path id="streamfakeRootstream" shape-rendering="geometricPrecision" class="st0" d="M20,77.9v176.2c185,0,185,49.9,370,49.9
			s185,8,370,8V20c-185,0-185,8-370,8S205,77.9,20,77.9"/>
	</g>
	<g>
		<defs>
			<polyline id="SVGID_3_" points="-350,312 1130,312 1130,20 -350,20 -350,312 			"/>
		</defs>
		<clipPath id="SVGID_4_">
			<use xlink:href="#SVGID_3_"  style="overflow:visible;"/>
		</clipPath>
		<path id="stream0stream" shape-rendering="geometricPrecision" class="st1" d="M20,229.1V242c185,0,185,49.9,370,49.9s185,8,370,8
			v-59.5c-185,0-185-31.4-370-31.4S205,229.1,20,229.1"/>
	</g>
	<g>
		<defs>
			<polyline id="SVGID_5_" points="-350,312 1130,312 1130,20 -350,20 -350,312 			"/>
		</defs>
		<clipPath id="SVGID_6_">
			<use xlink:href="#SVGID_5_"  style="overflow:visible;"/>
		</clipPath>
		<path id="stream15stream" shape-rendering="geometricPrecision" class="st2" d="M20,180v37c185,0,185-20.2,370-20.2
			s185,31.4,370,31.4v-41.3c-185,0-185-4.1-370-4.1S205,180,20,180"/>
	</g>
	<g>
		<defs>
			<polyline id="SVGID_7_" points="-350,312 1130,312 1130,20 -350,20 -350,312 			"/>
		</defs>
		<clipPath id="SVGID_8_">
			<use xlink:href="#SVGID_7_"  style="overflow:visible;"/>
		</clipPath>
		<path id="stream21stream" shape-rendering="geometricPrecision" class="st3" d="M20,90v77.9c185,0,185,2.9,370,2.9
			s185,4.1,370,4.1V32.1c-185,0-185,8-370,8S205,90,20,90"/>
	</g>
	<g>
		<defs>
			<polyline id="SVGID_9_" points="-350,312 1130,312 1130,20 -350,20 -350,312 			"/>
		</defs>
		<clipPath id="SVGID_10_">
			<use xlink:href="#SVGID_9_"  style="overflow:visible;"/>
		</clipPath>
		<path id="stream24stream" shape-rendering="geometricPrecision" class="st4" d="M20,234.9v1.3c185,0,185,37.3,370,37.3
			s185,5.9,370,5.9v-18.5c-185,0-185-33.6-370-33.6S205,234.9,20,234.9"/>
	</g>
	<g>
		<defs>
			<polyline id="SVGID_11_" points="-350,312 1130,312 1130,20 -350,20 -350,312 			"/>
		</defs>
		<clipPath id="SVGID_12_">
			<use xlink:href="#SVGID_11_"  style="overflow:visible;"/>
		</clipPath>
		<path id="stream12stream" shape-rendering="geometricPrecision" class="st5" d="M20,131.1v34.3c185,0,185,4.7,370,4.7
			s185,0.6,370,0.6V99.5c-185,0-185-12.8-370-12.8S205,131.1,20,131.1"/>
	</g>
	<g>
		<defs>
			<polyline id="SVGID_13_" points="-350,312 1130,312 1130,20 -350,20 -350,312 			"/>
		</defs>
		<clipPath id="SVGID_14_">
			<use xlink:href="#SVGID_13_"  style="overflow:visible;"/>
		</clipPath>
		<path id="stream9stream" shape-rendering="geometricPrecision" class="st6" d="M20,127.9v0.8c185,0,185-42.6,370-42.6
			s185,9.4,370,9.4v-34c-185,0-185-18-370-18S205,127.9,20,127.9"/>
	</g>
	<g>
		<defs>
			<polyline id="SVGID_15_" points="-350,312 1130,312 1130,20 -350,20 -350,312 			"/>
		</defs>
		<clipPath id="SVGID_16_">
			<use xlink:href="#SVGID_15_"  style="overflow:visible;"/>
		</clipPath>
		<path id="stream3stream" shape-rendering="geometricPrecision" class="st7" d="M20,92.5v32.9c185,0,185-82.7,370-82.7
			s185,14.6,370,14.6v-21c-185,0-185,4.6-370,4.6S205,92.5,20,92.5"/>
	</g>
	<g>
		<defs>
			<polyline id="SVGID_17_" points="-350,312 1130,312 1130,20 -350,20 -350,312 			"/>
		</defs>
		<clipPath id="SVGID_18_">
			<use xlink:href="#SVGID_17_"  style="overflow:visible;"/>
		</clipPath>
		<path id="stream6stream" shape-rendering="geometricPrecision" class="st8" d="M20,144.8v6.8c185,0,185-3.4,370-3.4
			s185,15.5,370,15.5v-57.2c-185,0-185,2-370,2S205,144.8,20,144.8"/>
	</g>
	<g>
		<defs>
			<polyline id="SVGID_19_" points="-350,312 1130,312 1130,20 -350,20 -350,312 			"/>
		</defs>
		<clipPath id="SVGID_20_">
			<use xlink:href="#SVGID_19_"  style="overflow:visible;"/>
		</clipPath>
		<path id="stream18stream" shape-rendering="geometricPrecision" class="st9" d="M20,147.9v0.7c185,0,185-8.3,370-8.3
			s185,0.3,370,0.3v-10.9c-185,0-185-13.2-370-13.2S205,147.9,20,147.9"/>
	</g>
</g>
<text transform="matrix(1 0 0 1 25.6498 352.0001)" class="st10 st11">January</text>
<text transform="matrix(1 0 0 1 353.65 351.9999)" class="st10 st11">February</text>
<text transform="matrix(1 0 0 1 687.2195 352.0006)" class="st10 st11">March</text>
</svg>
