<?xml version="1.0" encoding="utf-8"?>
<!-- Generator: Adobe Illustrator 20.0.0, SVG Export Plug-In . SVG Version: 6.00 Build 0)  -->
<svg version="1.1" id="Layer_1" xmlns="http://www.w3.org/2000/svg" xmlns:xlink="http://www.w3.org/1999/xlink" x="0px" y="0px"
	 viewBox="0 0 783 345" style="enable-background:new 0 0 783 345;" xml:space="preserve">
<style type="text/css">
	.st0{clip-path:url(#SVGID_2_);fill:#08306B;}
	.st1{clip-path:url(#SVGID_4_);fill:#1864AA;}
	.st2{clip-path:url(#SVGID_6_);fill:#1864AA;}
	.st3{clip-path:url(#SVGID_8_);fill:#1864AA;}
	.st4{clip-path:url(#SVGID_10_);fill:#4B97C9;}
	.st5{clip-path:url(#SVGID_12_);fill:#4B97C9;}
	.st6{clip-path:url(#SVGID_14_);fill:#4B97C9;}
	.st7{clip-path:url(#SVGID_16_);fill:#93C3DF;}
	.st8{clip-path:url(#SVGID_18_);fill:#93C3DF;}
	.st9{clip-path:url(#SVGID_20_);fill:#CFE1F2;}
	.st10{clip-path:url(#SVGID_22_);fill:#F41111;}
	.st11{font-family:'ArialMT';}
	.st12{font-size:25px;}
</style>
<g transform="translate(-84.53969805059432,5.458671109999386) scale(1.012476332101731)">
	<g>
		<g>
			<defs>
				<polyline id="SVGID_1_" points="-261.9,294 1199.9,294 1199.9,20 -261.9,20 -261.9,294 				"/>
			</defs>
			<clipPath id="SVGID_2_">
				<use xlink:href="#SVGID_1_"  style="overflow:visible;"/>
			</clipPath>
			<path id="streamfakeRootstream" shape-rendering="geometricPrecision" class="st0" d="M103.6,20v274c182.7,0,182.7,0,365.4,0
				s182.7,0,365.4,0V20c-182.7,0-182.7,0-365.4,0S286.3,20,103.6,20"/>
		</g>
	</g>
	<g>
		<g>
			<defs>
				<polyline id="SVGID_3_" points="-261.9,294 1199.9,294 1199.9,20 -261.9,20 -261.9,294 				"/>
			</defs>
			<clipPath id="SVGID_4_">
				<use xlink:href="#SVGID_3_"  style="overflow:visible;"/>
			</clipPath>
			<path id="stream6stream" shape-rendering="geometricPrecision" class="st1" d="M103.6,262.9v24.9c182.7,0,182.7,0,365.4,0
				s182.7,0,365.4,0v-24.9c-182.7,0-182.7,0-365.4,0S286.3,262.9,103.6,262.9"/>
		</g>
	</g>
	<g>
		<g>
			<defs>
				<polyline id="SVGID_5_" points="-261.9,294 1199.9,294 1199.9,20 -261.9,20 -261.9,294 				"/>
			</defs>
			<clipPath id="SVGID_6_">
				<use xlink:href="#SVGID_5_"  style="overflow:visible;"/>
			</clipPath>
			<path id="stream15stream" shape-rendering="geometricPrecision" class="st2" d="M103.6,82.3v174.4c182.7,0,182.7,0,365.4,0
				s182.7,0,365.4,0V82.3c-182.7,0-182.7,0-365.4,0S286.3,82.3,103.6,82.3"/>
		</g>
	</g>
	<g>
		<g>
			<defs>
				<polyline id="SVGID_7_" points="-261.9,294 1199.9,294 1199.9,20 -261.9,20 -261.9,294 				"/>
			</defs>
			<clipPath id="SVGID_8_">
				<use xlink:href="#SVGID_7_"  style="overflow:visible;"/>
			</clipPath>
			<path id="stream24stream" shape-rendering="geometricPrecision" class="st3" d="M103.6,26.2V76c182.7,0,182.7,0,365.4,0
				s182.7,0,365.4,0V26.2c-182.7,0-182.7,0-365.4,0S286.3,26.2,103.6,26.2"/>
		</g>
	</g>
	<g>
		<g>
			<defs>
				<polyline id="SVGID_9_" points="-261.9,294 1199.9,294 1199.9,20 -261.9,20 -261.9,294 				"/>
			</defs>
			<clipPath id="SVGID_10_">
				<use xlink:href="#SVGID_9_"  style="overflow:visible;"/>
			</clipPath>
			<path id="stream9stream" shape-rendering="geometricPrecision" class="st4" d="M103.6,175.7v74.7c182.7,0,182.7-2.1,365.4-2.1
				s182.7,0,365.4,0V123.8c-182.7,0-182.7,0-365.4,0S286.3,175.7,103.6,175.7"/>
		</g>
	</g>
	<g>
		<g>
			<defs>
				<polyline id="SVGID_11_" points="-261.9,294 1199.9,294 1199.9,20 -261.9,20 -261.9,294 				"/>
			</defs>
			<clipPath id="SVGID_12_">
				<use xlink:href="#SVGID_11_"  style="overflow:visible;"/>
			</clipPath>
			<path id="stream3stream" shape-rendering="geometricPrecision" class="st5" d="M103.6,88.5v24.9c182.7,0,182.7,2.1,365.4,2.1
				s182.7,0,365.4,0V90.6c-182.7,0-182.7,0-365.4,0S286.3,88.5,103.6,88.5"/>
		</g>
	</g>
	<g>
		<g>
			<defs>
				<polyline id="SVGID_13_" points="-261.9,294 1199.9,294 1199.9,20 -261.9,20 -261.9,294 				"/>
			</defs>
			<clipPath id="SVGID_14_">
				<use xlink:href="#SVGID_13_"  style="overflow:visible;"/>
			</clipPath>
			<path id="stream21stream" shape-rendering="geometricPrecision" class="st6" d="M103.6,38.7v24.9c182.7,0,182.7,0,365.4,0
				s182.7,0,365.4,0V38.7c-182.7,0-182.7,0-365.4,0S286.3,38.7,103.6,38.7"/>
		</g>
	</g>
	<g>
		<g>
			<defs>
				<polyline id="SVGID_15_" points="-261.9,294 1199.9,294 1199.9,20 -261.9,20 -261.9,294 				"/>
			</defs>
			<clipPath id="SVGID_16_">
				<use xlink:href="#SVGID_15_"  style="overflow:visible;"/>
			</clipPath>
			<path id="stream27stream" shape-rendering="geometricPrecision" class="st7" d="M103.6,217.2v24.9c182.7,0,182.7-2.1,365.4-2.1
				s182.7,0,365.4,0v-24.9c-182.7,0-182.7,0-365.4,0S286.3,217.2,103.6,217.2"/>
		</g>
	</g>
	<g>
		<g>
			<defs>
				<polyline id="SVGID_17_" points="-261.9,294 1199.9,294 1199.9,20 -261.9,20 -261.9,294 				"/>
			</defs>
			<clipPath id="SVGID_18_">
				<use xlink:href="#SVGID_17_"  style="overflow:visible;"/>
			</clipPath>
			<path id="stream18stream" shape-rendering="geometricPrecision" class="st8" d="M103.6,184v24.9c182.7,0,182.7-2.1,365.4-2.1
				s182.7,0,365.4,0v-74.7c-182.7,0-182.7,0-365.4,0S286.3,184,103.6,184"/>
		</g>
	</g>
	<g>
		<g>
			<defs>
				<polyline id="SVGID_19_" points="-261.9,294 1199.9,294 1199.9,20 -261.9,20 -261.9,294 				"/>
			</defs>
			<clipPath id="SVGID_20_">
				<use xlink:href="#SVGID_19_"  style="overflow:visible;"/>
			</clipPath>
			<path id="stream12stream" shape-rendering="geometricPrecision" class="st9" d="M103.6,119.6v49.8c182.7,0,182.7,24.9,365.4,24.9
				s182.7,0,365.4,0v-49.8c-182.7,0-182.7,0-365.4,0S286.3,119.6,103.6,119.6"/>
		</g>
	</g>
	<g>
		<g>
			<defs>
				<polyline id="SVGID_21_" points="-261.9,294 1199.9,294 1199.9,20 -261.9,20 -261.9,294 				"/>
			</defs>
			<clipPath id="SVGID_22_">
				<use xlink:href="#SVGID_21_"  style="overflow:visible;"/>
			</clipPath>
			<path id="stream0stream" shape-rendering="geometricPrecision" class="st10" d="M103.6,132.1V157c182.7,0,182.7,24.9,365.4,24.9
				s182.7,0,365.4,0V157c-182.7,0-182.7,0-365.4,0S286.3,132.1,103.6,132.1"/>
		</g>
	</g>
</g>
<g transform="translate(-84.53969805059432,5.458671109999386) scale(1.012476332101731)">
</g>
<text transform="matrix(1 0 0 1 24.6498 334.0001)" class="st11 st12">January</text>
<text transform="matrix(1 0 0 1 352.65 333.9999)" class="st11 st12">February</text>
<text transform="matrix(1 0 0 1 686.2195 334.0006)" class="st11 st12">March</text>
</svg>
