<?xml version="1.0" encoding="utf-8"?>
<!-- Generator: Adobe Illustrator 20.0.0, SVG Export Plug-In . SVG Version: 6.00 Build 0)  -->
<svg version="1.1" id="Layer_1" xmlns="http://www.w3.org/2000/svg" xmlns:xlink="http://www.w3.org/1999/xlink" x="0px" y="0px"
	 viewBox="0 0 594.4 338.6" style="enable-background:new 0 0 594.4 338.6;" xml:space="preserve">
<style type="text/css">
	.st0{clip-path:url(#SVGID_2_);fill:#08306B;}
	.st1{clip-path:url(#SVGID_4_);fill:#3787C0;}
	.st2{clip-path:url(#SVGID_6_);fill:#3787C0;}
	.st3{clip-path:url(#SVGID_8_);fill:#ABCFE6;}
	.st4{clip-path:url(#SVGID_10_);fill:#ABCFE6;}
	.st5{clip-path:url(#SVGID_12_);fill:#ABCFE6;}
	.st6{clip-path:url(#SVGID_14_);fill:#ABCFE6;}
	.st7{clip-path:url(#SVGID_16_);fill:#ABCFE6;}
	.st8{clip-path:url(#SVGID_18_);fill:#F7FBFF;}
	.st9{clip-path:url(#SVGID_20_);fill:#F7FBFF;}
	.st10{clip-path:url(#SVGID_22_);fill:#F7FBFF;}
	.st11{font-family:'ArialMT';}
	.st12{font-size:25px;}
</style>
<g transform="translate(-36.60336195540276,-5.6709137864040144) scale(1.022428530609928)">
	<g>
		<defs>
			<polyline id="SVGID_1_" points="-484.2,294 1144.3,294 1144.3,20 -484.2,20 -484.2,294 			"/>
		</defs>
		<clipPath id="SVGID_2_">
			<use xlink:href="#SVGID_1_"  style="overflow:visible;"/>
		</clipPath>
		<path id="streamfakeRootstream" shape-rendering="geometricPrecision" class="st0" d="M58.6,20v274c271.4,0,271.4-24.9,542.8-24.9
			V44.9C330,44.9,330,20,58.6,20"/>
	</g>
	<g>
		<defs>
			<polyline id="SVGID_3_" points="-484.2,294 1144.3,294 1144.3,20 -484.2,20 -484.2,294 			"/>
		</defs>
		<clipPath id="SVGID_4_">
			<use xlink:href="#SVGID_3_"  style="overflow:visible;"/>
		</clipPath>
		<path id="stream10stream" shape-rendering="geometricPrecision" class="st1" d="M58.6,86.4v199.3c271.4,0,271.4-24.9,542.8-24.9
			V86.4C330,86.4,330,86.4,58.6,86.4"/>
	</g>
	<g>
		<defs>
			<polyline id="SVGID_5_" points="-484.2,294 1144.3,294 1144.3,20 -484.2,20 -484.2,294 			"/>
		</defs>
		<clipPath id="SVGID_6_">
			<use xlink:href="#SVGID_5_"  style="overflow:visible;"/>
		</clipPath>
		<path id="stream18stream" shape-rendering="geometricPrecision" class="st2" d="M58.6,28.3v49.8c271.4,0,271.4,0,542.8,0V53.2
			C330,53.2,330,28.3,58.6,28.3"/>
	</g>
	<g>
		<defs>
			<polyline id="SVGID_7_" points="-484.2,294 1144.3,294 1144.3,20 -484.2,20 -484.2,294 			"/>
		</defs>
		<clipPath id="SVGID_8_">
			<use xlink:href="#SVGID_7_"  style="overflow:visible;"/>
		</clipPath>
		<path id="stream0stream" shape-rendering="geometricPrecision" class="st3" d="M58.6,255.8v24.9c271.4,0,271.4-24.9,542.8-24.9
			v-24.9C330,230.9,330,255.8,58.6,255.8"/>
	</g>
	<g>
		<defs>
			<polyline id="SVGID_9_" points="-484.2,294 1144.3,294 1144.3,20 -484.2,20 -484.2,294 			"/>
		</defs>
		<clipPath id="SVGID_10_">
			<use xlink:href="#SVGID_9_"  style="overflow:visible;"/>
		</clipPath>
		<path id="stream12stream" shape-rendering="geometricPrecision" class="st4" d="M58.6,225.9v24.9c271.4,0,271.4-24.9,542.8-24.9
			V201C330,201,330,225.9,58.6,225.9"/>
	</g>
	<g>
		<defs>
			<polyline id="SVGID_11_" points="-484.2,294 1144.3,294 1144.3,20 -484.2,20 -484.2,294 			"/>
		</defs>
		<clipPath id="SVGID_12_">
			<use xlink:href="#SVGID_11_"  style="overflow:visible;"/>
		</clipPath>
		<path id="stream4stream" shape-rendering="geometricPrecision" class="st5" d="M58.6,171.1v49.8C330,220.9,330,196,601.4,196
			v-24.9C330,171.1,330,171.1,58.6,171.1"/>
	</g>
	<g>
		<defs>
			<polyline id="SVGID_13_" points="-484.2,294 1144.3,294 1144.3,20 -484.2,20 -484.2,294 			"/>
		</defs>
		<clipPath id="SVGID_14_">
			<use xlink:href="#SVGID_13_"  style="overflow:visible;"/>
		</clipPath>
		<path id="stream8stream" shape-rendering="geometricPrecision" class="st6" d="M58.6,91.4v74.7c271.4,0,271.4,0,542.8,0V91.4
			C330,91.4,330,91.4,58.6,91.4"/>
	</g>
	<g>
		<defs>
			<polyline id="SVGID_15_" points="-484.2,294 601.4,294 601.4,20 -484.2,20 -484.2,294 			"/>
		</defs>
		<clipPath id="SVGID_16_">
			<use xlink:href="#SVGID_15_"  style="overflow:visible;"/>
		</clipPath>
		<path id="stream16stream" shape-rendering="geometricPrecision" class="st7" d="M58.6,40.8v24.9C197.7,65.7,197.7,40.8,58.6,40.8"
			/>
	</g>
	<g>
		<defs>
			<polyline id="SVGID_17_" points="-484.2,294 601.4,294 601.4,20 -484.2,20 -484.2,294 			"/>
		</defs>
		<clipPath id="SVGID_18_">
			<use xlink:href="#SVGID_17_"  style="overflow:visible;"/>
		</clipPath>
		<path id="stream14stream" shape-rendering="geometricPrecision" class="st8" d="M58.6,183.6v24.9
			C197.7,208.5,197.7,183.6,58.6,183.6"/>
	</g>
	<g>
		<defs>
			<polyline id="SVGID_19_" points="-484.2,294 1144.3,294 1144.3,20 -484.2,20 -484.2,294 			"/>
		</defs>
		<clipPath id="SVGID_20_">
			<use xlink:href="#SVGID_19_"  style="overflow:visible;"/>
		</clipPath>
		<path id="stream6stream" shape-rendering="geometricPrecision" class="st9" d="M58.6,132.9v24.9c271.4,0,271.4,0,542.8,0v-24.9
			C330,132.9,330,132.9,58.6,132.9"/>
	</g>
	<g>
		<defs>
			<polyline id="SVGID_21_" points="-484.2,294 1144.3,294 1144.3,20 -484.2,20 -484.2,294 			"/>
		</defs>
		<clipPath id="SVGID_22_">
			<use xlink:href="#SVGID_21_"  style="overflow:visible;"/>
		</clipPath>
		<path id="stream2stream" shape-rendering="geometricPrecision" class="st10" d="M58.6,99.7v24.9c271.4,0,271.4,0,542.8,0V99.7
			C330,99.7,330,99.7,58.6,99.7"/>
	</g>
</g>
<g transform="translate(-36.60336195540276,-5.6709137864040144) scale(1.022428530609928)">
</g>
<text transform="matrix(1 0 0 1 23.3214 324.1969)" class="st11 st12">January</text>
<text transform="matrix(1 0 0 1 471.4937 324.1971)" class="st11 st12">February</text>
</svg>
