<?xml version="1.0" encoding="utf-8"?>
<!-- Generator: Adobe Illustrator 20.0.0, SVG Export Plug-In . SVG Version: 6.00 Build 0)  -->
<svg version="1.1" id="Layer_1" xmlns="http://www.w3.org/2000/svg" xmlns:xlink="http://www.w3.org/1999/xlink" x="0px" y="0px"
	 viewBox="0 0 774 356" style="enable-background:new 0 0 774 356;" xml:space="preserve">
<style type="text/css">
	.st0{clip-path:url(#SVGID_2_);fill:#08306B;}
	.st1{clip-path:url(#SVGID_4_);fill:#2271B4;}
	.st2{clip-path:url(#SVGID_6_);fill:#2271B4;}
	.st3{clip-path:url(#SVGID_8_);fill:#2271B4;}
	.st4{clip-path:url(#SVGID_10_);fill:#6DAED5;}
	.st5{clip-path:url(#SVGID_12_);fill:#C3DBEE;}
	.st6{clip-path:url(#SVGID_14_);fill:#F7FBFF;}
	.st7{font-family:'ArialMT';}
	.st8{font-size:25px;}
</style>
<g transform="translate(-36.60336195540276,-5.6709137864040144) scale(1.022428530609928)">
	<g>
		<defs>
			<polyline id="SVGID_1_" points="-126.6,311 959,311 959,20 -126.6,20 -126.6,311 			"/>
		</defs>
		<clipPath id="SVGID_2_">
			<use xlink:href="#SVGID_1_"  style="overflow:visible;"/>
		</clipPath>
		<path id="streamfakeRootstream" shape-rendering="geometricPrecision" class="st0" d="M54.3,20v291c90.5,0,90.5,0,180.9,0
			s90.5,0,180.9,0s90.5,0,180.9,0s90.5,0,180.9,0V20c-90.5,0-90.5,0-180.9,0s-90.5,0-180.9,0s-90.5,0-180.9,0S144.8,20,54.3,20"/>
	</g>
	<g>
		<defs>
			<polyline id="SVGID_3_" points="-126.6,311 959,311 959,20 -126.6,20 -126.6,311 			"/>
		</defs>
		<clipPath id="SVGID_4_">
			<use xlink:href="#SVGID_3_"  style="overflow:visible;"/>
		</clipPath>
		<path id="stream5stream" shape-rendering="geometricPrecision" class="st1" d="M54.3,259v41.6c90.5,0,90.5,0,180.9,0
			s90.5,0,180.9,0s90.5,0,180.9,0s90.5,0,180.9,0V259c-90.5,0-90.5,0-180.9,0s-90.5,0-180.9,0s-90.5,0-180.9,0S144.8,259,54.3,259"
			/>
	</g>
	<g>
		<defs>
			<polyline id="SVGID_5_" points="-126.6,311 959,311 959,20 -126.6,20 -126.6,311 			"/>
		</defs>
		<clipPath id="SVGID_6_">
			<use xlink:href="#SVGID_5_"  style="overflow:visible;"/>
		</clipPath>
		<path id="stream10stream" shape-rendering="geometricPrecision" class="st2" d="M54.3,82.4v166.3c90.5,0,90.5,0,180.9,0
			s90.5,0,180.9,0s90.5,0,180.9,0s90.5,0,180.9,0V82.4c-90.5,0-90.5,0-180.9,0s-90.5,0-180.9,0s-90.5,0-180.9,0
			S144.8,82.4,54.3,82.4"/>
	</g>
	<g>
		<defs>
			<polyline id="SVGID_7_" points="-126.6,311 959,311 959,20 -126.6,20 -126.6,311 			"/>
		</defs>
		<clipPath id="SVGID_8_">
			<use xlink:href="#SVGID_7_"  style="overflow:visible;"/>
		</clipPath>
		<path id="stream20stream" shape-rendering="geometricPrecision" class="st3" d="M54.3,30.4V72c90.5,0,90.5,0,180.9,0
			s90.5,0,180.9,0s90.5,0,180.9,0s90.5,0,180.9,0V30.4c-90.5,0-90.5,0-180.9,0s-90.5,0-180.9,0s-90.5,0-180.9,0
			S144.8,30.4,54.3,30.4"/>
	</g>
	<g>
		<defs>
			<polyline id="SVGID_9_" points="-126.6,311 959,311 959,20 -126.6,20 -126.6,311 			"/>
		</defs>
		<clipPath id="SVGID_10_">
			<use xlink:href="#SVGID_9_"  style="overflow:visible;"/>
		</clipPath>
		<path id="stream0stream" shape-rendering="geometricPrecision" class="st4" d="M54.3,144.7v41.6c90.5,0,90.5,0,180.9,0
			s90.5,41.6,180.9,41.6s90.5,0,180.9,0s90.5,0,180.9,0V103.1c-90.5,0-90.5,0-180.9,0s-90.5,0-180.9,0s-90.5,41.6-180.9,41.6
			S144.8,144.7,54.3,144.7"/>
	</g>
	<g>
		<defs>
			<polyline id="SVGID_11_" points="-126.6,311 959,311 959,20 -126.6,20 -126.6,311 			"/>
		</defs>
		<clipPath id="SVGID_12_">
			<use xlink:href="#SVGID_11_"  style="overflow:visible;"/>
		</clipPath>
		<path id="stream25stream" shape-rendering="geometricPrecision" class="st5" d="M54.3,92.7v41.6c90.5,0,90.5,0,180.9,0
			s90.5,72.7,180.9,72.7s90.5-48.5,180.9-48.5s90.5,48.5,180.9,48.5v-83.1c-90.5,0-90.5-6.9-180.9-6.9s-90.5,6.9-180.9,6.9
			s-90.5-31.2-180.9-31.2S144.8,92.7,54.3,92.7"/>
	</g>
	<g>
		<defs>
			<polyline id="SVGID_13_" points="-126.6,311 959,311 959,20 -126.6,20 -126.6,311 			"/>
		</defs>
		<clipPath id="SVGID_14_">
			<use xlink:href="#SVGID_13_"  style="overflow:visible;"/>
		</clipPath>
		<path id="stream15stream" shape-rendering="geometricPrecision" class="st6" d="M54.3,196.7v41.6c90.5,0,90.5,0,180.9,0
			s90.5-52,180.9-52S506.7,214,597.1,214s90.5-27.7,180.9-27.7v-41.6c-90.5,0-90.5,27.7-180.9,27.7s-90.5-27.7-180.9-27.7
			s-90.5,52-180.9,52S144.8,196.7,54.3,196.7"/>
	</g>
</g>
<g transform="translate(-36.60336195540276,-5.6709137864040144) scale(1.022428530609928)">
</g>
<text transform="matrix(1 0 0 1 22.7129 342.3669)" class="st7 st8">January</text>
<text transform="matrix(1 0 0 1 172.3722 342.3669)" class="st7 st8">February</text>
<text transform="matrix(1 0 0 1 362.0317 342.3671)" class="st7 st8">March</text>
<text transform="matrix(1 0 0 1 555.7869 342.3671)" class="st7 st8">April</text>
<text transform="matrix(1 0 0 1 710.0068 342.3672)" class="st7 st8">May</text>
</svg>
