<?xml version="1.0" encoding="utf-8"?>
<!-- Generator: Adobe Illustrator 20.0.0, SVG Export Plug-In . SVG Version: 6.00 Build 0)  -->
<svg version="1.1" id="Layer_1" xmlns="http://www.w3.org/2000/svg" xmlns:xlink="http://www.w3.org/1999/xlink" x="0px" y="0px"
	 viewBox="0 0 780 381" style="enable-background:new 0 0 780 381;" xml:space="preserve">
<style type="text/css">
	.st0{clip-path:url(#SVGID_2_);fill:#08306B;}
	.st1{clip-path:url(#SVGID_4_);fill:#1864AA;}
	.st2{clip-path:url(#SVGID_6_);fill:#1864AA;}
	.st3{clip-path:url(#SVGID_8_);fill:#1864AA;}
	.st4{clip-path:url(#SVGID_10_);fill:#4B97C9;}
	.st5{clip-path:url(#SVGID_12_);fill:#4B97C9;}
	.st6{clip-path:url(#SVGID_14_);fill:#4B97C9;}
	.st7{clip-path:url(#SVGID_16_);fill:#4B97C9;}
	.st8{clip-path:url(#SVGID_18_);fill:#93C3DF;}
	.st9{clip-path:url(#SVGID_20_);fill:#93C3DF;}
	.st10{clip-path:url(#SVGID_22_);fill:#93C3DF;}
	.st11{clip-path:url(#SVGID_24_);fill:#CFE1F2;}
	.st12{clip-path:url(#SVGID_26_);fill:#F7FBFF;}
	.st13{font-family:'ArialMT';}
	.st14{font-size:25px;}
</style>
<g>
	<g>
		<defs>
			<polyline id="SVGID_1_" points="-226.7,328 1006.7,328 1006.7,20 -226.7,20 -226.7,328 			"/>
		</defs>
		<clipPath id="SVGID_2_">
			<use xlink:href="#SVGID_1_"  style="overflow:visible;"/>
		</clipPath>
		<path id="streamfakeRootstream" shape-rendering="geometricPrecision" class="st0" d="M20,20v308c123.3,0,123.3,0,246.7,0
			s123.3,0,246.7,0s123.3,0,246.7,0V20c-123.3,0-123.3,0-246.7,0S390,20,266.7,20S143.3,20,20,20"/>
	</g>
	<g>
		<defs>
			<polyline id="SVGID_3_" points="-226.7,328 1006.7,328 1006.7,20 -226.7,20 -226.7,328 			"/>
		</defs>
		<clipPath id="SVGID_4_">
			<use xlink:href="#SVGID_3_"  style="overflow:visible;"/>
		</clipPath>
		<path id="stream8stream" shape-rendering="geometricPrecision" class="st1" d="M20,251v71.1c123.3,0,123.3,0,246.7,0
			s123.3,0,246.7,0s123.3,0,246.7,0v-47.4c-123.3,0-123.3-47.4-246.7-47.4S390,251,266.7,251S143.3,251,20,251"/>
	</g>
	<g>
		<defs>
			<polyline id="SVGID_5_" points="-226.7,328 1006.7,328 1006.7,20 -226.7,20 -226.7,328 			"/>
		</defs>
		<clipPath id="SVGID_6_">
			<use xlink:href="#SVGID_5_"  style="overflow:visible;"/>
		</clipPath>
		<path id="stream12stream" shape-rendering="geometricPrecision" class="st2" d="M20,174v71.1c123.3,0,123.3,0,246.7,0
			s123.3-23.7,246.7-23.7s123.3,47.4,246.7,47.4v-47.4c-123.3,0-123.3-47.4-246.7-47.4s-123.3,0-246.7,0S143.3,174,20,174"/>
	</g>
	<g>
		<defs>
			<polyline id="SVGID_7_" points="-226.7,328 1006.7,328 1006.7,20 -226.7,20 -226.7,328 			"/>
		</defs>
		<clipPath id="SVGID_8_">
			<use xlink:href="#SVGID_7_"  style="overflow:visible;"/>
		</clipPath>
		<path id="stream16stream" shape-rendering="geometricPrecision" class="st3" d="M20,25.9v142.2c123.3,0,123.3,0,246.7,0
			s123.3,0,246.7,0s123.3,47.4,246.7,47.4V25.9c-123.3,0-123.3,0-246.7,0s-123.3,0-246.7,0S143.3,25.9,20,25.9"/>
	</g>
	<g>
		<defs>
			<polyline id="SVGID_9_" points="-226.7,328 1006.7,328 1006.7,20 -226.7,20 -226.7,328 			"/>
		</defs>
		<clipPath id="SVGID_10_">
			<use xlink:href="#SVGID_9_"  style="overflow:visible;"/>
		</clipPath>
		<path id="stream20stream" shape-rendering="geometricPrecision" class="st4" d="M20,290.5v23.7c123.3,0,123.3,0,246.7,0
			s123.3,0,246.7,0s123.3-3.9,246.7-3.9v-23.7c-123.3,0-123.3-19.7-246.7-19.7S390,290.5,266.7,290.5S143.3,290.5,20,290.5"/>
	</g>
	<g>
		<defs>
			<polyline id="SVGID_11_" points="-226.7,328 1006.7,328 1006.7,20 -226.7,20 -226.7,328 			"/>
		</defs>
		<clipPath id="SVGID_12_">
			<use xlink:href="#SVGID_11_"  style="overflow:visible;"/>
		</clipPath>
		<path id="stream4stream" shape-rendering="geometricPrecision" class="st5" d="M20,181.9v23.7c123.3,0,123.3,0,246.7,0
			s123.3,3.9,246.7,3.9s123.3,47.4,246.7,47.4v-23.7c-123.3,0-123.3-47.4-246.7-47.4s-123.3-3.9-246.7-3.9S143.3,181.9,20,181.9"/>
	</g>
	<g>
		<defs>
			<polyline id="SVGID_13_" points="-226.7,328 1006.7,328 1006.7,20 -226.7,20 -226.7,328 			"/>
		</defs>
		<clipPath id="SVGID_14_">
			<use xlink:href="#SVGID_13_"  style="overflow:visible;"/>
		</clipPath>
		<path id="stream40stream" shape-rendering="geometricPrecision" class="st6" d="M20,61.5v47.4c123.3,0,123.3,0,246.7,0
			s123.3,51.3,246.7,51.3s123.3,47.4,246.7,47.4V89.1c-123.3,0-123.3-23.7-246.7-23.7S390,61.5,266.7,61.5S143.3,61.5,20,61.5"/>
	</g>
	<g>
		<defs>
			<polyline id="SVGID_15_" points="-226.7,328 1006.7,328 1006.7,20 -226.7,20 -226.7,328 			"/>
		</defs>
		<clipPath id="SVGID_16_">
			<use xlink:href="#SVGID_15_"  style="overflow:visible;"/>
		</clipPath>
		<path id="stream32stream" shape-rendering="geometricPrecision" class="st7" d="M20,31.8v23.7c123.3,0,123.3,0,246.7,0
			s123.3,2,246.7,2S636.7,81.2,760,81.2V33.8c-123.3,0-123.3,0-246.7,0s-123.3-2-246.7-2S143.3,31.8,20,31.8"/>
	</g>
	<g>
		<defs>
			<polyline id="SVGID_17_" points="-226.7,328 1006.7,328 1006.7,20 -226.7,20 -226.7,328 			"/>
		</defs>
		<clipPath id="SVGID_18_">
			<use xlink:href="#SVGID_17_"  style="overflow:visible;"/>
		</clipPath>
		<path id="stream0stream" shape-rendering="geometricPrecision" class="st8" d="M20,258.9v23.7c123.3,0,123.3,0,246.7,0
			s123.3-23.7,246.7-23.7S636.7,69.4,760,69.4V45.7c-123.3,0-123.3,189.5-246.7,189.5S390,258.9,266.7,258.9S143.3,258.9,20,258.9"
			/>
	</g>
	<g>
		<defs>
			<polyline id="SVGID_19_" points="-226.7,328 1006.7,328 1006.7,20 -226.7,20 -226.7,328 			"/>
		</defs>
		<clipPath id="SVGID_20_">
			<use xlink:href="#SVGID_19_"  style="overflow:visible;"/>
		</clipPath>
		<path id="stream24stream" shape-rendering="geometricPrecision" class="st9" d="M20,114.8v47.4c123.3,0,123.3,0,246.7,0
			s123.3-9.9,246.7-9.9s123.3,47.4,246.7,47.4v-71.1c-123.3,0-123.3-23.7-246.7-23.7s-123.3,9.9-246.7,9.9S143.3,114.8,20,114.8"/>
	</g>
	<g>
		<defs>
			<polyline id="SVGID_21_" points="-226.7,328 1006.7,328 1006.7,20 -226.7,20 -226.7,328 			"/>
		</defs>
		<clipPath id="SVGID_22_">
			<use xlink:href="#SVGID_21_"  style="overflow:visible;"/>
		</clipPath>
		<path id="stream44stream" shape-rendering="geometricPrecision" class="st10" d="M20,73.3V97c123.3,0,123.3,0,246.7,0
			s123.3,0,246.7,0s123.3,23.7,246.7,23.7V97c-123.3,0-123.3-23.7-246.7-23.7s-123.3,0-246.7,0S143.3,73.3,20,73.3"/>
	</g>
	<g>
		<defs>
			<polyline id="SVGID_23_" points="-226.7,328 1006.7,328 1006.7,20 -226.7,20 -226.7,328 			"/>
		</defs>
		<clipPath id="SVGID_24_">
			<use xlink:href="#SVGID_23_"  style="overflow:visible;"/>
		</clipPath>
		<path id="stream28stream" shape-rendering="geometricPrecision" class="st11" d="M20,126.6v23.7c123.3,0,123.3,0,246.7,0
			s123.3-9.9,246.7-9.9s123.3,47.4,246.7,47.4v-47.4c-123.3,0-123.3-23.7-246.7-23.7s-123.3,9.9-246.7,9.9S143.3,126.6,20,126.6"/>
	</g>
	<g>
		<defs>
			<polyline id="SVGID_25_" points="-226.7,328 1006.7,328 1006.7,20 -226.7,20 -226.7,328 			"/>
		</defs>
		<clipPath id="SVGID_26_">
			<use xlink:href="#SVGID_25_"  style="overflow:visible;"/>
		</clipPath>
		<path id="stream36stream" shape-rendering="geometricPrecision" class="st12" d="M20,213.5v23.7c123.3,0,123.3,0,246.7,0
			s123.3,65.2,246.7,65.2S636.7,176,760,176v-23.7c-123.3,0-123.3,126.4-246.7,126.4S390,213.5,266.7,213.5S143.3,213.5,20,213.5"/>
	</g>
</g>
<text transform="matrix(1 0 0 1 21.7231 361.7051)" class="st13 st14">January</text>
<text transform="matrix(1 0 0 1 226.7231 361.7051)" class="st13 st14">February</text>
<text transform="matrix(1 0 0 1 467.7234 361.7051)" class="st13 st14">March</text>
<text transform="matrix(1 0 0 1 709.4998 361.7051)" class="st13 st14">April</text>
</svg>
