<?xml version="1.0" encoding="utf-8"?>
<!-- Generator: Adobe Illustrator 20.0.0, SVG Export Plug-In . SVG Version: 6.00 Build 0)  -->
<svg version="1.1" id="Layer_1" xmlns="http://www.w3.org/2000/svg" xmlns:xlink="http://www.w3.org/1999/xlink" x="0px" y="0px"
	 viewBox="0 0 779.5 364" style="enable-background:new 0 0 779.5 364;" xml:space="preserve">
<style type="text/css">
	.st0{fill:#F41111;}
	.st1{clip-path:url(#SVGID_2_);fill:#08306B;}
	.st2{clip-path:url(#SVGID_4_);fill:#2271B4;}
	.st3{clip-path:url(#SVGID_6_);fill:#6DAED5;}
	.st4{clip-path:url(#SVGID_8_);fill:#6DAED5;}
	.st5{clip-path:url(#SVGID_10_);fill:#6DAED5;}
	.st6{clip-path:url(#SVGID_12_);fill:#6DAED5;}
	.st7{clip-path:url(#SVGID_14_);fill:#C3DBEE;}
	.st8{clip-path:url(#SVGID_16_);fill:#F7FBFF;}
	.st9{fill:none;}
	.st10{font-family:'ArialMT';}
	.st11{font-size:25px;}
</style>
<rect y="52.1" class="st0" width="23.7" height="223"/>
<g transform="translate(-36.60336195540276,-5.6709137864040144) scale(1.022428530609928)">
	<g>
		<g>
			<defs>
				<polyline id="SVGID_1_" points="-303.1,311 1144.5,311 1144.5,20 -303.1,20 -303.1,311 				"/>
			</defs>
			<clipPath id="SVGID_2_">
				<use xlink:href="#SVGID_1_"  style="overflow:visible;"/>
			</clipPath>
			<path id="streamfakeRootstream" shape-rendering="geometricPrecision" class="st1" d="M58.8,38.2v254.6
				c180.9,0,180.9,18.2,361.9,18.2s180.9,0,361.9,0V20c-180.9,0-180.9,0-361.9,0S239.8,38.2,58.8,38.2"/>
		</g>
	</g>
	<g>
		<g>
			<defs>
				<polyline id="SVGID_3_" points="-303.1,311 1144.5,311 1144.5,20 -303.1,20 -303.1,311 				"/>
			</defs>
			<clipPath id="SVGID_4_">
				<use xlink:href="#SVGID_3_"  style="overflow:visible;"/>
			</clipPath>
			<path id="stream6stream" shape-rendering="geometricPrecision" class="st2" d="M58.8,56.4v218.2c180.9,0,180.9,18.2,361.9,18.2
				s180.9,0,361.9,0V38.2c-180.9,0-180.9,0-361.9,0S239.8,56.4,58.8,56.4"/>
		</g>
	</g>
	<g>
		<g>
			<defs>
				<polyline id="SVGID_5_" points="-303.1,311 1144.5,311 1144.5,20 -303.1,20 -303.1,311 				"/>
			</defs>
			<clipPath id="SVGID_6_">
				<use xlink:href="#SVGID_5_"  style="overflow:visible;"/>
			</clipPath>
			<path id="stream9stream" shape-rendering="geometricPrecision" class="st3" d="M58.8,231v36.4c180.9,0,180.9,18.2,361.9,18.2
				s180.9,0,361.9,0v-36.4c-180.9,0-180.9,0-361.9,0S239.8,231,58.8,231"/>
		</g>
	</g>
	<g>
		<g>
			<defs>
				<polyline id="SVGID_7_" points="-303.1,311 1144.5,311 1144.5,20 -303.1,20 -303.1,311 				"/>
			</defs>
			<clipPath id="SVGID_8_">
				<use xlink:href="#SVGID_7_"  style="overflow:visible;"/>
			</clipPath>
			<path id="stream18stream" shape-rendering="geometricPrecision" class="st4" d="M58.8,150.9v72.7c180.9,0,180.9-25.5,361.9-25.5
				s180.9,0,361.9,0v-109c-180.9,0-180.9,0-361.9,0S239.8,150.9,58.8,150.9"/>
		</g>
	</g>
	<g>
		<g>
			<defs>
				<polyline id="SVGID_9_" points="-303.1,311 1144.5,311 1144.5,20 -303.1,20 -303.1,311 				"/>
			</defs>
			<clipPath id="SVGID_10_">
				<use xlink:href="#SVGID_9_"  style="overflow:visible;"/>
			</clipPath>
			<path id="stream3stream" shape-rendering="geometricPrecision" class="st5" d="M58.8,107.3v36.4c180.9,0,180.9-61.8,361.9-61.8
				s180.9,0,361.9,0V45.5c-180.9,0-180.9,0-361.9,0S239.8,107.3,58.8,107.3"/>
		</g>
	</g>
	<g>
		<g>
			<defs>
				<polyline id="SVGID_11_" points="-303.1,311 1144.5,311 1144.5,20 -303.1,20 -303.1,311 				"/>
			</defs>
			<clipPath id="SVGID_12_">
				<use xlink:href="#SVGID_11_"  style="overflow:visible;"/>
			</clipPath>
			<path id="stream13stream" shape-rendering="geometricPrecision" class="st6" d="M420.7,205.5c-108.7,0-108.7,36.4,0,36.4
				c180.9,0,180.9,0,361.9,0v-36.4C601.6,205.5,601.6,205.5,420.7,205.5"/>
		</g>
	</g>
	<g>
		<g>
			<defs>
				<polyline id="SVGID_13_" points="-303.1,311 1144.5,311 1144.5,20 -303.1,20 -303.1,311 				"/>
			</defs>
			<clipPath id="SVGID_14_">
				<use xlink:href="#SVGID_13_"  style="overflow:visible;"/>
			</clipPath>
			<path id="stream15stream" shape-rendering="geometricPrecision" class="st7" d="M58.8,169.1v36.4c180.9,0,180.9-25.5,361.9-25.5
				s180.9,0,361.9,0v-72.7c-180.9,0-180.9,0-361.9,0S239.8,169.1,58.8,169.1"/>
		</g>
	</g>
	<g>
		<g>
			<defs>
				<polyline id="SVGID_15_" points="-303.1,311 1144.5,311 1144.5,20 -303.1,20 -303.1,311 				"/>
			</defs>
			<clipPath id="SVGID_16_">
				<use xlink:href="#SVGID_15_"  style="overflow:visible;"/>
			</clipPath>
			<path id="stream0stream" shape-rendering="geometricPrecision" class="st8" d="M58.8,63.6V100c180.9,0,180.9,61.8,361.9,61.8
				s180.9,0,361.9,0v-36.4c-180.9,0-180.9,0-361.9,0S239.8,63.6,58.8,63.6"/>
		</g>
	</g>
</g>
<g transform="translate(-36.60336195540276,-5.6709137864040144) scale(1.022428530609928)">
</g>
<rect x="-447.4" y="324" class="st9" width="158" height="40"/>
<rect x="362.7" y="324" class="st9" width="158" height="40"/>
<rect x="1138.6" y="324" class="st9" width="109" height="40"/>
<text transform="matrix(1 0 0 1 36.6498 344.0001)" class="st10 st11">January</text>
<text transform="matrix(1 0 0 1 362.65 343.9995)" class="st10 st11">February</text>
<text transform="matrix(1 0 0 1 670.2195 344.0005)" class="st10 st11">March</text>
</svg>
