<?xml version="1.0" encoding="utf-8"?>
<!-- Generator: Adobe Illustrator 20.0.0, SVG Export Plug-In . SVG Version: 6.00 Build 0)  -->
<svg version="1.1" id="Layer_1" xmlns="http://www.w3.org/2000/svg" xmlns:xlink="http://www.w3.org/1999/xlink" x="0px" y="0px"
	 viewBox="0 0 609 343.1" style="enable-background:new 0 0 609 343.1;" xml:space="preserve">
<style type="text/css">
	.st0{clip-path:url(#SVGID_2_);fill:#08306B;}
	.st1{clip-path:url(#SVGID_4_);fill:#2271B4;}
	.st2{clip-path:url(#SVGID_6_);fill:#2271B4;}
	.st3{clip-path:url(#SVGID_8_);fill:#2271B4;}
	.st4{clip-path:url(#SVGID_10_);fill:#6DAED5;}
	.st5{clip-path:url(#SVGID_12_);fill:#6DAED5;}
	.st6{clip-path:url(#SVGID_14_);fill:#6DAED5;}
	.st7{clip-path:url(#SVGID_16_);fill:#6DAED5;}
	.st8{clip-path:url(#SVGID_18_);fill:#C3DBEE;}
	.st9{clip-path:url(#SVGID_20_);fill:#C3DBEE;}
	.st10{clip-path:url(#SVGID_22_);fill:#C3DBEE;}
	.st11{clip-path:url(#SVGID_24_);fill:#C3DBEE;}
	.st12{clip-path:url(#SVGID_26_);fill:#F7FBFF;}
	.st13{font-family:'ArialMT';}
	.st14{font-size:25px;}
</style>
<g transform="translate(-36.60336195540276,-5.6709137864040144) scale(1.022428530609928)">
	<g>
		<defs>
			<polyline id="SVGID_1_" points="-484.2,294 1144.3,294 1144.3,20 -484.2,20 -484.2,294 			"/>
		</defs>
		<clipPath id="SVGID_2_">
			<use xlink:href="#SVGID_1_"  style="overflow:visible;"/>
		</clipPath>
		<path id="streamfakeRootstream" shape-rendering="geometricPrecision" class="st0" d="M58.6,30.5v252.9
			C330,283.5,330,294,601.4,294V20C330,20,330,30.5,58.6,30.5"/>
	</g>
	<g>
		<defs>
			<polyline id="SVGID_3_" points="-484.2,294 1144.3,294 1144.3,20 -484.2,20 -484.2,294 			"/>
		</defs>
		<clipPath id="SVGID_4_">
			<use xlink:href="#SVGID_3_"  style="overflow:visible;"/>
		</clipPath>
		<path id="stream6stream" shape-rendering="geometricPrecision" class="st1" d="M58.6,88.5v189.7c271.4,0,271.4,10.5,542.8,10.5V78
			C330,78,330,88.5,58.6,88.5"/>
	</g>
	<g>
		<defs>
			<polyline id="SVGID_5_" points="-484.2,294 1144.3,294 1144.3,20 -484.2,20 -484.2,294 			"/>
		</defs>
		<clipPath id="SVGID_6_">
			<use xlink:href="#SVGID_5_"  style="overflow:visible;"/>
		</clipPath>
		<path id="stream10stream" shape-rendering="geometricPrecision" class="st2" d="M58.6,62.2v21.1C330,83.2,330,72.7,601.4,72.7
			V51.6C330,51.6,330,62.2,58.6,62.2"/>
	</g>
	<g>
		<defs>
			<polyline id="SVGID_7_" points="-484.2,294 1144.3,294 1144.3,20 -484.2,20 -484.2,294 			"/>
		</defs>
		<clipPath id="SVGID_8_">
			<use xlink:href="#SVGID_7_"  style="overflow:visible;"/>
		</clipPath>
		<path id="stream16stream" shape-rendering="geometricPrecision" class="st3" d="M58.6,35.8v21.1C330,56.9,330,46.3,601.4,46.3
			V25.3C330,25.3,330,35.8,58.6,35.8"/>
	</g>
	<g>
		<defs>
			<polyline id="SVGID_9_" points="-484.2,294 1144.3,294 1144.3,20 -484.2,20 -484.2,294 			"/>
		</defs>
		<clipPath id="SVGID_10_">
			<use xlink:href="#SVGID_9_"  style="overflow:visible;"/>
		</clipPath>
		<path id="stream20stream" shape-rendering="geometricPrecision" class="st4" d="M58.6,231.8V274c271.4,0,271.4,10.5,542.8,10.5
			v-42.2C330,242.4,330,231.8,58.6,231.8"/>
	</g>
	<g>
		<defs>
			<polyline id="SVGID_11_" points="-484.2,294 1144.3,294 1144.3,20 -484.2,20 -484.2,294 			"/>
		</defs>
		<clipPath id="SVGID_12_">
			<use xlink:href="#SVGID_11_"  style="overflow:visible;"/>
		</clipPath>
		<path id="stream12stream" shape-rendering="geometricPrecision" class="st5" d="M58.6,164.4v63.2c271.4,0,271.4,10.5,542.8,10.5
			V196C330,196,330,164.4,58.6,164.4"/>
	</g>
	<g>
		<defs>
			<polyline id="SVGID_13_" points="-484.2,294 1144.3,294 1144.3,20 -484.2,20 -484.2,294 			"/>
		</defs>
		<clipPath id="SVGID_14_">
			<use xlink:href="#SVGID_13_"  style="overflow:visible;"/>
		</clipPath>
		<path id="stream0stream" shape-rendering="geometricPrecision" class="st6" d="M58.6,139.1v21.1c271.4,0,271.4,31.6,542.8,31.6
			v-21.1C330,170.7,330,139.1,58.6,139.1"/>
	</g>
	<g>
		<defs>
			<polyline id="SVGID_15_" points="-484.2,294 1144.3,294 1144.3,20 -484.2,20 -484.2,294 			"/>
		</defs>
		<clipPath id="SVGID_16_">
			<use xlink:href="#SVGID_15_"  style="overflow:visible;"/>
		</clipPath>
		<path id="stream8stream" shape-rendering="geometricPrecision" class="st7" d="M58.6,92.7v42.2c271.4,0,271.4,31.6,542.8,31.6
			V82.2C330,82.2,330,92.7,58.6,92.7"/>
	</g>
	<g>
		<defs>
			<polyline id="SVGID_17_" points="-484.2,294 1144.3,294 1144.3,20 -484.2,20 -484.2,294 			"/>
		</defs>
		<clipPath id="SVGID_18_">
			<use xlink:href="#SVGID_17_"  style="overflow:visible;"/>
		</clipPath>
		<path id="stream2stream" shape-rendering="geometricPrecision" class="st8" d="M58.6,242.4v21.1C330,263.4,330,274,601.4,274
			v-21.1C330,252.9,330,242.4,58.6,242.4"/>
	</g>
	<g>
		<defs>
			<polyline id="SVGID_19_" points="-484.2,294 1144.3,294 1144.3,20 -484.2,20 -484.2,294 			"/>
		</defs>
		<clipPath id="SVGID_20_">
			<use xlink:href="#SVGID_19_"  style="overflow:visible;"/>
		</clipPath>
		<path id="stream4stream" shape-rendering="geometricPrecision" class="st9" d="M58.6,171.4v21.1c271.4,0,271.4,35.1,542.8,35.1
			v-21.1C330,206.5,330,171.4,58.6,171.4"/>
	</g>
	<g>
		<defs>
			<polyline id="SVGID_21_" points="-484.2,294 1144.3,294 1144.3,20 -484.2,20 -484.2,294 			"/>
		</defs>
		<clipPath id="SVGID_22_">
			<use xlink:href="#SVGID_21_"  style="overflow:visible;"/>
		</clipPath>
		<path id="stream14stream" shape-rendering="geometricPrecision" class="st10" d="M58.6,103.3v21.1c271.4,0,271.4,35.1,542.8,35.1
			v-42.2C330,117.3,330,103.3,58.6,103.3"/>
	</g>
	<g>
		<defs>
			<polyline id="SVGID_23_" points="-484.2,294 1144.3,294 1144.3,20 -484.2,20 -484.2,294 			"/>
		</defs>
		<clipPath id="SVGID_24_">
			<use xlink:href="#SVGID_23_"  style="overflow:visible;"/>
		</clipPath>
		<path id="stream23stream" shape-rendering="geometricPrecision" class="st11" d="M601.4,89.2c-128,0-128,21.1,0,21.1V89.2"/>
	</g>
	<g>
		<defs>
			<polyline id="SVGID_25_" points="-484.2,294 1144.3,294 1144.3,20 -484.2,20 -484.2,294 			"/>
		</defs>
		<clipPath id="SVGID_26_">
			<use xlink:href="#SVGID_25_"  style="overflow:visible;"/>
		</clipPath>
		<path id="stream18stream" shape-rendering="geometricPrecision" class="st12" d="M58.6,199.5v21.1c271.4,0,271.4-71.7,542.8-71.7
			v-21.1C330,127.8,330,199.5,58.6,199.5"/>
	</g>
</g>
<g transform="translate(-36.60336195540276,-5.6709137864040144) scale(1.022428530609928)">
</g>
<text transform="matrix(1 0 0 1 38.7228 321.7135)" class="st13 st14">January</text>
<text transform="matrix(1 0 0 1 461.9936 321.7132)" class="st13 st14">February</text>
</svg>
