<?xml version="1.0" encoding="utf-8"?>
<!-- Generator: Adobe Illustrator 20.0.0, SVG Export Plug-In . SVG Version: 6.00 Build 0)  -->
<svg version="1.1" id="Layer_1" xmlns="http://www.w3.org/2000/svg" xmlns:xlink="http://www.w3.org/1999/xlink" x="0px" y="0px"
	 viewBox="0 0 780 368" style="enable-background:new 0 0 780 368;" xml:space="preserve">
<style type="text/css">
	.st0{clip-path:url(#SVGID_2_);fill:#08306B;}
	.st1{clip-path:url(#SVGID_4_);fill:#1864AA;}
	.st2{clip-path:url(#SVGID_6_);fill:#1864AA;}
	.st3{clip-path:url(#SVGID_8_);fill:#4B97C9;}
	.st4{clip-path:url(#SVGID_10_);fill:#93C3DF;}
	.st5{clip-path:url(#SVGID_12_);fill:#CFE1F2;}
	.st6{clip-path:url(#SVGID_14_);fill:#F7FBFF;}
	.st7{font-family:'ArialMT';}
	.st8{font-size:25px;}
</style>
<g>
	<g>
		<defs>
			<polyline id="SVGID_1_" points="-226.7,312 1006.7,312 1006.7,20 -226.7,20 -226.7,312 			"/>
		</defs>
		<clipPath id="SVGID_2_">
			<use xlink:href="#SVGID_1_"  style="overflow:visible;"/>
		</clipPath>
		<path id="streamfakeRootstream" shape-rendering="geometricPrecision" class="st0" d="M20,20v292c123.3,0,123.3,0,246.7,0
			s123.3,0,246.7,0s123.3,0,246.7,0V20c-123.3,0-123.3,0-246.7,0S390,20,266.7,20S143.3,20,20,20"/>
	</g>
	<g>
		<defs>
			<polyline id="SVGID_3_" points="-226.7,312 1006.7,312 1006.7,20 -226.7,20 -226.7,312 			"/>
		</defs>
		<clipPath id="SVGID_4_">
			<use xlink:href="#SVGID_3_"  style="overflow:visible;"/>
		</clipPath>
		<path id="stream12stream" shape-rendering="geometricPrecision" class="st1" d="M20,256.4v41.7c123.3,0,123.3,0,246.7,0
			s123.3,0,246.7,0s123.3,0,246.7,0v-41.7c-123.3,0-123.3,0-246.7,0s-123.3,0-246.7,0S143.3,256.4,20,256.4"/>
	</g>
	<g>
		<defs>
			<polyline id="SVGID_5_" points="-226.7,312 1006.7,312 1006.7,20 -226.7,20 -226.7,312 			"/>
		</defs>
		<clipPath id="SVGID_6_">
			<use xlink:href="#SVGID_5_"  style="overflow:visible;"/>
		</clipPath>
		<path id="stream16stream" shape-rendering="geometricPrecision" class="st2" d="M20,33.9v208.6c123.3,0,123.3,0,246.7,0
			s123.3,0,246.7,0s123.3,0,246.7,0V33.9c-123.3,0-123.3,0-246.7,0s-123.3,0-246.7,0S143.3,33.9,20,33.9"/>
	</g>
	<g>
		<defs>
			<polyline id="SVGID_7_" points="-226.7,312 1006.7,312 1006.7,20 -226.7,20 -226.7,312 			"/>
		</defs>
		<clipPath id="SVGID_8_">
			<use xlink:href="#SVGID_7_"  style="overflow:visible;"/>
		</clipPath>
		<path id="stream0stream" shape-rendering="geometricPrecision" class="st3" d="M20,96.5v83.4c123.3,0,123.3,48.7,246.7,48.7
			s123.3,0,246.7,0s123.3-7,246.7-7V54.8c-123.3,0-123.3,90.4-246.7,90.4s-123.3,0-246.7,0S143.3,96.5,20,96.5"/>
	</g>
	<g>
		<defs>
			<polyline id="SVGID_9_" points="-226.7,312 1006.7,312 1006.7,20 -226.7,20 -226.7,312 			"/>
		</defs>
		<clipPath id="SVGID_10_">
			<use xlink:href="#SVGID_9_"  style="overflow:visible;"/>
		</clipPath>
		<path id="stream20stream" shape-rendering="geometricPrecision" class="st4" d="M20,44.3V86c123.3,0,123.3,45.2,246.7,45.2
			s123.3,0,246.7,0s123.3,69.5,246.7,69.5V75.6c-123.3,0-123.3-27.8-246.7-27.8s-123.3,0-246.7,0S143.3,44.3,20,44.3"/>
	</g>
	<g>
		<defs>
			<polyline id="SVGID_11_" points="-226.7,312 1006.7,312 1006.7,20 -226.7,20 -226.7,312 			"/>
		</defs>
		<clipPath id="SVGID_12_">
			<use xlink:href="#SVGID_11_"  style="overflow:visible;"/>
		</clipPath>
		<path id="stream8stream" shape-rendering="geometricPrecision" class="st5" d="M20,190.3V232c123.3,0,123.3-121.7,246.7-121.7
			s123.3,0,246.7,0s123.3,69.5,246.7,69.5V96.5c-123.3,0-123.3-27.8-246.7-27.8s-123.3,0-246.7,0S143.3,190.3,20,190.3"/>
	</g>
	<g>
		<defs>
			<polyline id="SVGID_13_" points="-226.7,312 1006.7,312 1006.7,20 -226.7,20 -226.7,312 			"/>
		</defs>
		<clipPath id="SVGID_14_">
			<use xlink:href="#SVGID_13_"  style="overflow:visible;"/>
		</clipPath>
		<path id="stream4stream" shape-rendering="geometricPrecision" class="st6" d="M20,117.3V159c123.3,0,123.3,48.7,246.7,48.7
			s123.3,0,246.7,0S636.7,159,760,159v-41.7c-123.3,0-123.3,48.7-246.7,48.7s-123.3,0-246.7,0S143.3,117.3,20,117.3"/>
	</g>
</g>
<text transform="matrix(1 0 0 1 18.7231 346.7051)" class="st7 st8">January</text>
<text transform="matrix(1 0 0 1 223.7231 346.7051)" class="st7 st8">February</text>
<text transform="matrix(1 0 0 1 464.7234 346.7051)" class="st7 st8">March</text>
<text transform="matrix(1 0 0 1 706.4998 346.7051)" class="st7 st8">April</text>
</svg>
