<?xml version="1.0" encoding="utf-8"?>
<!-- Generator: Adobe Illustrator 20.0.0, SVG Export Plug-In . SVG Version: 6.00 Build 0)  -->
<svg version="1.1" id="Layer_1" xmlns="http://www.w3.org/2000/svg" xmlns:xlink="http://www.w3.org/1999/xlink" x="0px" y="0px"
	 viewBox="0 0 780 383" style="enable-background:new 0 0 780 383;" xml:space="preserve">
<style type="text/css">
	.st0{clip-path:url(#SVGID_2_);fill:#08306B;}
	.st1{clip-path:url(#SVGID_4_);fill:#2271B4;}
	.st2{clip-path:url(#SVGID_6_);fill:#2271B4;}
	.st3{clip-path:url(#SVGID_8_);fill:#6DAED5;}
	.st4{clip-path:url(#SVGID_10_);fill:#6DAED5;}
	.st5{clip-path:url(#SVGID_12_);fill:#C3DBEE;}
	.st6{clip-path:url(#SVGID_14_);fill:#C3DBEE;}
	.st7{clip-path:url(#SVGID_16_);fill:#C3DBEE;}
	.st8{clip-path:url(#SVGID_18_);fill:#F7FBFF;}
	.st9{font-family:'ArialMT';}
	.st10{font-size:25px;}
</style>
<g>
	<g>
		<defs>
			<polyline id="SVGID_1_" points="-350,328 1130,328 1130,20 -350,20 -350,328 			"/>
		</defs>
		<clipPath id="SVGID_2_">
			<use xlink:href="#SVGID_1_"  style="overflow:visible;"/>
		</clipPath>
		<path id="streamfakeRootstream" shape-rendering="geometricPrecision" class="st0" d="M20,46.2v255.5c185,0,185,26.2,370,26.2
			s185-17.4,370-17.4V37.4C575,37.4,575,20,390,20S205,46.2,20,46.2"/>
	</g>
	<g>
		<defs>
			<polyline id="SVGID_3_" points="-350,328 1130,328 1130,20 -350,20 -350,328 			"/>
		</defs>
		<clipPath id="SVGID_4_">
			<use xlink:href="#SVGID_3_"  style="overflow:visible;"/>
		</clipPath>
		<path id="stream3stream" shape-rendering="geometricPrecision" class="st1" d="M20,277.6v5.8c185,0,185,26.2,370,26.2
			s185-17.4,370-17.4v-10.9c-185,0-185-19-370-19S205,277.6,20,277.6"/>
	</g>
	<g>
		<defs>
			<polyline id="SVGID_5_" points="-350,328 1130,328 1130,20 -350,20 -350,328 			"/>
		</defs>
		<clipPath id="SVGID_6_">
			<use xlink:href="#SVGID_5_"  style="overflow:visible;"/>
		</clipPath>
		<path id="stream21stream" shape-rendering="geometricPrecision" class="st2" d="M20,64.6v194.7c185,0,185-15.4,370-15.4
			s185,19,370,19V55.8c-185,0-185-17.4-370-17.4S205,64.6,20,64.6"/>
	</g>
	<g>
		<defs>
			<polyline id="SVGID_7_" points="-350,328 1130,328 1130,20 -350,20 -350,328 			"/>
		</defs>
		<clipPath id="SVGID_8_">
			<use xlink:href="#SVGID_7_"  style="overflow:visible;"/>
		</clipPath>
		<path id="stream9stream" shape-rendering="geometricPrecision" class="st3" d="M20,175.2V242c185,0,185-16.3,370-16.3
			s185,29.9,370,29.9V168c-185,0-185-47-370-47S205,175.2,20,175.2"/>
	</g>
	<g>
		<defs>
			<polyline id="SVGID_9_" points="-350,328 1130,328 1130,20 -350,20 -350,328 			"/>
		</defs>
		<clipPath id="SVGID_10_">
			<use xlink:href="#SVGID_9_"  style="overflow:visible;"/>
		</clipPath>
		<path id="stream24stream" shape-rendering="geometricPrecision" class="st4" d="M20,81.9v76c185,0,185-55.1,370-55.1
			s185,57.8,370,57.8V63.2c-185,0-185-6.6-370-6.6S205,81.9,20,81.9"/>
	</g>
	<g>
		<defs>
			<polyline id="SVGID_11_" points="-350,328 1130,328 1130,20 -350,20 -350,328 			"/>
		</defs>
		<clipPath id="SVGID_12_">
			<use xlink:href="#SVGID_11_"  style="overflow:visible;"/>
		</clipPath>
		<path id="stream15stream" shape-rendering="geometricPrecision" class="st5" d="M20,195.9v25.3c185,0,185-9.2,370-9.2
			s185,40.6,370,40.6v-25.6c-185,0-185-92.4-370-92.4S205,195.9,20,195.9"/>
	</g>
	<g>
		<defs>
			<polyline id="SVGID_13_" points="-350,328 1130,328 1130,20 -350,20 -350,328 			"/>
		</defs>
		<clipPath id="SVGID_14_">
			<use xlink:href="#SVGID_13_"  style="overflow:visible;"/>
		</clipPath>
		<path id="stream6stream" shape-rendering="geometricPrecision" class="st6" d="M20,96.1v47.5c185,0,185-59.2,370-59.2
			s185,50.2,370,50.2V89.2c-185,0-185-14.2-370-14.2S205,96.1,20,96.1"/>
	</g>
	<g>
		<defs>
			<polyline id="SVGID_15_" points="-350,328 1130,328 1130,20 -350,20 -350,328 			"/>
		</defs>
		<clipPath id="SVGID_16_">
			<use xlink:href="#SVGID_15_"  style="overflow:visible;"/>
		</clipPath>
		<path id="stream20stream" shape-rendering="geometricPrecision" class="st7" d="M760,170.9c-131,0-131,53.4,0,53.4V170.9"/>
	</g>
	<g>
		<defs>
			<polyline id="SVGID_17_" points="-350,328 760,328 760,20 -350,20 -350,328 			"/>
		</defs>
		<clipPath id="SVGID_18_">
			<use xlink:href="#SVGID_17_"  style="overflow:visible;"/>
		</clipPath>
		<path id="stream0stream" shape-rendering="geometricPrecision" class="st8" d="M20,197.3v22.6c185,0,185-28.8,370-28.8
			c106.7,0,106.7-35.5,0-35.5C205,155.6,205,197.3,20,197.3"/>
	</g>
</g>
<text transform="matrix(1 0 0 1 21.6498 368.0001)" class="st9 st10">January</text>
<text transform="matrix(1 0 0 1 349.65 367.9999)" class="st9 st10">February</text>
<text transform="matrix(1 0 0 1 683.2195 368.0006)" class="st9 st10">March</text>
</svg>
